<?xml version="1.0" standalone="no"?>
<!DOCTYPE svg PUBLIC "-//W3C//DTD SVG 1.1//EN" "http://www.w3.org/Graphics/SVG/1.1/DTD/svg11.dtd" >
<svg xmlns="http://www.w3.org/2000/svg" xmlns:xlink="http://www.w3.org/1999/xlink" version="1.1">
<metadata>
Created by FontForge 20170731 at Tue Apr  2 14:02:19 2019
 By Aleksey,,,
Created by Robert E. Leuschke, Gideon Inc. Cyrillic version created by Andrey V. Markelov, Love Media Ltd.
</metadata>
<defs>
<font id="GoodVibesPro" horiz-adv-x="686" >
  <font-face 
    font-family="Good Vibes Pro"
    font-weight="400"
    font-stretch="normal"
    units-per-em="2048"
    panose-1="2 0 5 7 8 0 0 2 0 2"
    ascent="1638"
    descent="-410"
    x-height="705"
    cap-height="1511"
    bbox="-809 -813.098 4039.99 1960.65"
    underline-thickness="28"
    underline-position="-356"
    unicode-range="U+0020-2019"
  />
<missing-glyph horiz-adv-x="748" 
d="M68 0v1365h544v-1365h-544zM136 68h408v1229h-408v-1229z" />
    <glyph glyph-name="uniFB02" unicode="fl" horiz-adv-x="839" 
d="M-240 -606q-2 49 14.5 119.5t45 156.5t67.5 184.5t84 204.5q-16 25 -21 52.5t-2 53t13 46t25 31.5q35 29 73 22q55 125 111.5 247t111 235.5t104.5 213t93 179.5q35 66 72 104.5t102 38.5q18 0 42.5 -7t47.5 -3q-49 -45 -119.5 -150.5t-151.5 -249t-167 -313.5t-162 -342
q20 -25 38 -62.5t28 -91.5q2 -6 3 -13t3 -13q45 -4 90 32.5t85 92t74 120t58 117.5q10 20 25.5 14.5t5.5 -28.5q-29 -66 -63.5 -133.5t-76.5 -124.5t-90.5 -93t-103.5 -36q8 -109 -14.5 -233.5t-69.5 -232t-116.5 -178.5t-151.5 -67q-43 2 -74 23.5t-33 83.5zM-129 -613
q4 -40 24.5 -45.5t50 18.5t60.5 65q37 49 68.5 117.5t55.5 145t36 155.5t10 147q-31 -4 -64.5 6t-54.5 27q-53 -135 -99 -269.5t-71 -236.5q-20 -90 -16 -130zM78 68q10 -16 31.5 -27.5t50.5 -11.5h12q-4 51 -18 92q-12 27 -31 49q-12 -29 -22.5 -51.5t-22.5 -50.5zM474 152
q1 43 9.5 88t20.5 87t20 72q25 86 59.5 182.5t75.5 191.5t86.5 185.5t90.5 163.5q55 92 116.5 132t102.5 27t48 -80.5t-48 -190.5q-72 -160 -170.5 -319t-249.5 -296q-8 -27 -20.5 -61.5t-22.5 -73.5q-23 -92 -8.5 -145.5t50.5 -68.5t82 6.5t87 78.5q25 37 48 74t42.5 71.5
t35 64.5t25.5 50q14 27 29.5 24t1.5 -34q-18 -41 -49 -106.5t-75 -127t-103.5 -106.5t-136.5 -45q-57 0 -89 21.5t-45.5 56.5t-12.5 78zM651 461q55 55 108.5 125.5t102.5 147.5t90 155.5t72 150.5q14 35 24.5 76t7.5 64.5t-21.5 17.5t-59.5 -65q-37 -53 -84 -141.5
t-92 -185.5t-84 -190.5t-64 -154.5z" />
    <glyph glyph-name=".notdef" horiz-adv-x="748" 
d="M68 0v1365h544v-1365h-544zM136 68h408v1229h-408v-1229z" />
    <glyph glyph-name="glyph1" horiz-adv-x="0" 
 />
    <glyph glyph-name="uni000D" horiz-adv-x="530" 
 />
    <glyph glyph-name="space" unicode=" " horiz-adv-x="530" 
 />
    <glyph glyph-name="exclam" unicode="!" horiz-adv-x="716" 
d="M246 55q4 35 33.5 59.5t64.5 24.5t55.5 -24.5t14.5 -59.5t-35 -59.5t-64 -24.5t-55 24.5t-14 59.5zM399 221l2 15l521 991q10 20 30.5 29.5t45 11.5t49 1t45.5 -1l10 -4l4 -13q-4 -12 -33 -57t-74 -113.5t-101 -152.5t-115.5 -172t-118 -175t-108.5 -160t-86 -127
l-50 -75z" />
    <glyph glyph-name="quotedbl" unicode="&#x22;" horiz-adv-x="651" 
d="M348 1278q-2 27 16.5 47.5t45.5 20.5q39 0 45 -39q4 -23 -3.5 -74t-19.5 -108.5t-25.5 -108.5t-19.5 -76h-20zM571 1280q-4 29 13.5 47.5t46.5 18.5q41 0 47 -41q4 -23 -4 -74t-20.5 -107.5t-26 -108.5t-19.5 -75h-20z" />
    <glyph glyph-name="numbersign" unicode="#" horiz-adv-x="1527" 
d="M51 469l62 96h319l172 289h-348l59 98h349l282 473h113l-287 -473h287l284 473h111l-285 -473h304l-58 -98h-305l-170 -289h330l-60 -96h-329l-285 -469h-109l281 469h-283l-284 -469h-109l283 469h-324zM541 565h286l172 289h-284z" />
    <glyph glyph-name="percent" unicode="%" horiz-adv-x="1271" 
d="M-68 -162q258 272 492.5 556t470.5 575q-59 -51 -121.5 -92t-121 -61.5t-111 -14.5t-92.5 49q-41 -33 -86.5 -52.5t-92.5 -17.5q-59 2 -93 35t-45 86t-1 119.5t39 134.5q31 70 76 132.5t97 110.5t108.5 74.5t107.5 26.5q76 -2 111 -39t39 -94t-16.5 -127t-54.5 -137.5
t-75 -125.5t-76 -91q20 -39 58.5 -46.5t86.5 8t103.5 49.5t110.5 79q35 27 93 88t116.5 125.5t104.5 116t57 57.5q2 2 11 4t18 2t16.5 -3t7.5 -11l-1260 -1526h-76zM242 940q-4 -45 6 -73.5t39 -37.5q31 -10 66.5 4.5t72.5 45.5q-35 53 -31 100q0 35 16.5 61.5t53.5 26.5
q27 0 44 -17.5t17 -43.5q0 -14 -4 -23q14 20 36 59t41 85.5t34.5 96.5t19.5 92t-7 73t-44 41q-33 8 -71.5 -9.5t-77.5 -54.5t-76 -90t-66 -115q-29 -63 -47 -119.5t-22 -101.5zM575.5 179.5q10.5 66.5 38.5 133.5q31 70 76 133.5t97.5 110.5t109 74.5t107.5 25.5
q90 -2 123.5 -56t25.5 -135t-51 -173t-104.5 -171t-136.5 -131t-146 -50q-59 2 -93 34.5t-45.5 85t-1 119zM686 98q-4 -45 6 -73.5t39 -36.5q35 -10 70 4t65.5 40.5t56 57.5t44.5 53q23 29 51 87t51 124q14 39 22.5 78t8.5 71t-12.5 54.5t-38.5 30.5q-35 10 -74 -7.5
t-78 -55.5t-76 -90t-65 -113q-29 -63 -47.5 -121t-22.5 -103z" />
    <glyph glyph-name="quotesingle" unicode="'" horiz-adv-x="323" 
d="M158 800q-2 11 16 17q57 20 102.5 64.5t55.5 113.5q-31 -20 -60 -20q-35 0 -55 25.5t-14 60.5t34.5 59.5t63.5 24.5q45 0 64.5 -36t19.5 -77q0 -49 -19.5 -89t-50 -68.5t-66.5 -49t-69 -30.5q-20 -6 -22 5z" />
    <glyph glyph-name="parenleft" unicode="(" horiz-adv-x="716" 
d="M52.5 337.5q-13.5 149.5 31.5 326.5q31 113 114 248t205.5 260.5t279.5 227t333 146.5q25 6 37 2t11 -11t-13.5 -17.5t-34.5 -16.5q-117 -31 -216.5 -87t-181 -127.5t-146 -152.5t-114 -162t-83 -157t-52.5 -135q-47 -141 -54 -282.5t24.5 -252t104.5 -174t187 -49.5
q39 4 38 -17.5t-52 -27.5q-109 -12 -200 42t-148 160.5t-70.5 256z" />
    <glyph glyph-name="parenright" unicode=")" horiz-adv-x="1060" 
d="M28 -95q1 7 14 17t36 17q117 31 215 87t180 127.5t146.5 152.5t113.5 162t83 156.5t52 135.5q45 141 53.5 282.5t-23.5 251t-104.5 173t-185.5 51.5q-41 -4 -40 17t53 28q109 12 199.5 -42.5t148 -161t71 -256t-31.5 -325.5q-29 -113 -112 -248t-207 -261t-280.5 -227
t-332.5 -146q-25 -6 -37 -2t-11 11z" />
    <glyph glyph-name="asterisk" unicode="*" horiz-adv-x="882" 
d="M34 750.5q-3 17.5 5 32t37 14.5h297q-27 59 -55.5 123.5t-61.5 132.5q-10 20 -5 31.5t17.5 13.5t28.5 -8.5t29 -34.5q35 -66 63.5 -124.5t56.5 -111.5l238 240q14 16 26.5 14t16.5 -14t-2 -32.5t-27 -41.5l-174 -188h279q20 0 27.5 -10.5t1 -22.5t-23.5 -22.5t-44 -10.5
l-270 -10q27 -53 53 -106.5t55 -108.5q6 -12 0 -30.5t-19.5 -31t-29.5 -12.5t-29 25q-16 37 -41.5 95t-60.5 134l-223 -244q-10 -10 -28.5 -9t-32 11.5t-16.5 26.5t17 37l205 207l-270 -10q-14 0 -25.5 14t-14.5 31.5z" />
    <glyph glyph-name="plus" unicode="+" horiz-adv-x="937" 
d="M278.5 444.5q2.5 18.5 13.5 35t34 16.5q16 0 48 -1t70.5 -2t81.5 -2.5t84 -1.5q6 29 15.5 67t18.5 79t19.5 81t18.5 70q4 18 15.5 29.5t22.5 13.5t17 -6t2 -28q-6 -29 -14 -68t-16.5 -82t-16.5 -84t-14 -72q59 -2 129.5 -1t136.5 -1q16 0 25.5 -9t9.5 -19t-10.5 -18.5
t-30.5 -8.5q-59 0 -133 -4t-139 -8q-12 -76 -27.5 -155t-20.5 -126q-2 -10 -19 -20t-36.5 -13.5t-34 4t-8.5 29.5q4 18 11.5 48t17.5 67t20.5 79t20.5 83q-37 -4 -78 -6t-81 -4.5t-73.5 -4.5t-56.5 -4q-12 -2 -18.5 13.5t-4 34z" />
    <glyph glyph-name="comma" unicode="," horiz-adv-x="313" 
d="M-1 -205q-3 12 17 19q57 18 102.5 63t53.5 115q-27 -20 -57 -21q-35 0 -55.5 24.5t-14.5 59.5q4 35 34 59.5t64 24.5q45 0 67.5 -28.5t22.5 -69.5q0 -51 -21.5 -92t-53 -73t-68.5 -53.5t-70 -31.5q-18 -8 -21 4z" />
    <glyph glyph-name="hyphen" unicode="-" horiz-adv-x="831" 
d="M302 444.5q-3 18.5 4 35t30 16.5q63 0 167.5 -2t282.5 -7q18 0 29.5 -9t13.5 -19t-6 -18.5t-28 -8.5q-141 0 -254 -12t-205 -23q-10 -2 -20.5 13.5t-13.5 34z" />
    <glyph glyph-name="period" unicode="." horiz-adv-x="425" 
d="M211 55q4 35 33.5 59.5t64.5 24.5t55.5 -24.5t14.5 -59.5t-35 -59.5t-63 -24.5q-35 0 -55.5 24.5t-14.5 59.5z" />
    <glyph glyph-name="slash" unicode="/" horiz-adv-x="1122" 
d="M37 -78q-12 17 18 43q51 45 133 137.5t187.5 218t231.5 281.5t261.5 327t278 351t283.5 358q16 20 40.5 26.5t45 2.5t27.5 -18.5t-11 -34.5q-63 -74 -149.5 -178.5t-184.5 -226.5t-205.5 -256t-215 -265t-211 -254t-193.5 -224t-163 -174t-120 -104q-41 -27 -53 -10z" />
    <glyph glyph-name="zero" unicode="0" horiz-adv-x="1028" 
d="M106 244q0 78 31 178t84 204.5t125 205t154 179.5t170 127t174 48q53 0 89 -17.5t58.5 -48t32.5 -73t10 -89.5q0 -80 -26.5 -184t-73.5 -213.5t-112.5 -214t-144.5 -186.5t-167 -132.5t-180 -50.5q-57 0 -99.5 21.5t-70 58.5t-41 85t-13.5 102zM229 172q0 -63 27 -108.5
t98 -45.5q70 0 141.5 55.5t138 143.5t126 198.5t102.5 219t68.5 205t25.5 157.5q0 57 -22.5 103.5t-87.5 46.5q-68 0 -139.5 -56.5t-140 -145.5t-130 -198.5t-107.5 -218t-73 -204t-27 -152.5z" />
    <glyph glyph-name="one" unicode="1" horiz-adv-x="774" 
d="M123 12q141 248 277.5 494t275.5 493q-78 -72 -160 -134t-174 -117h-8l-8 16l4 12q104 78 195 150.5t180 165.5q16 18 40.5 40.5t51.5 26.5l63 6q4 2 12 -2v-10l-10 -20l-612 -1123q-16 -10 -52 -11t-55 -3q-4 0 -9 2t-9 2z" />
    <glyph glyph-name="two" unicode="2" horiz-adv-x="999" 
d="M2 0q2 6 31.5 40t65.5 74t68 72.5t36 34.5q10 2 22.5 2t22.5 -4q41 37 105.5 95.5t135 129t142 148.5t128 154.5t92.5 148.5t36 131q0 47 -26.5 68.5t-72.5 21.5q-59 0 -111 -30.5t-96 -77.5t-78 -103.5t-52 -105.5l-9 -8h-24l-4 12q25 68 65.5 134.5t96 120.5t123 88
t145.5 34t132 -43t54 -127q0 -55 -44 -127t-113.5 -151t-154.5 -158.5t-168 -150.5t-152.5 -127t-108.5 -89l59 -29.5t82 -39t82 -34t57 -14.5q43 0 81 22.5t68 49t51.5 50.5t31.5 28l14 -13v-8q-25 -31 -62.5 -72t-82.5 -79.5t-91.5 -65.5t-86.5 -27q-23 0 -69 16.5t-95 37
t-93.5 40t-62.5 27.5l-143 -112z" />
    <glyph glyph-name="three" unicode="3" horiz-adv-x="937" 
d="M20 27v10l15 12l10 4q29 -14 70 -22t73 -8q80 0 166 44t158 112.5t119 152.5t47 166q0 63 -42 95t-101 32q-35 0 -72 -9.5t-72 -19.5l-14 6l-2 19l8 10q55 23 136 61.5t156 93t127 120t52 138.5q0 39 -21.5 56.5t-58.5 17.5q-41 0 -81 -18.5t-76.5 -45t-68.5 -59
t-56 -59.5h-11l-14 12v10q35 43 76 83t88 72t99 51.5t110 19.5q61 0 108 -28.5t47 -98.5q0 -78 -48 -139.5t-118.5 -109.5t-149.5 -83t-138 -55q45 0 94 -9.5t89 -31t66.5 -57t26.5 -91.5q0 -94 -61.5 -185t-153.5 -162t-197.5 -114t-193.5 -43q-47 0 -98.5 10.5t-92.5 39.5
z" />
    <glyph glyph-name="four" unicode="4" horiz-adv-x="950" 
d="M162 373v16q2 4 3 7t5 7q68 86 157 171t162 169q72 82 141.5 164t135.5 170q25 33 46.5 49.5t44 23.5t51 10t69.5 11l14 -6l2 -14q2 -16 -49 -72.5t-130 -133.5t-172 -163t-177 -161.5t-146.5 -131t-78.5 -69.5l444 8l133 258q14 29 51 33t66 6l12 -6l2 -12
q0 -4 -19.5 -44t-44 -87.5t-46 -90.5t-27.5 -51h49l12 -8l-10 -23l-14 -10l-60 -2q-10 -18 -37.5 -75.5t-59.5 -121t-59.5 -116.5t-35.5 -62q-4 -4 -22.5 -9t-41 -10t-42 -8t-25.5 -3l-10 2v8q0 4 14 31.5t34.5 68.5t46 88t48.5 89t40 73t21 39z" />
    <glyph glyph-name="five" unicode="5" horiz-adv-x="911" 
d="M-25 -2v14l13 15l8 4q29 -10 62.5 -14.5t64.5 -4.5q86 0 178 49.5t169 125t127 167.5t50 178q0 63 -34.5 97.5t-98.5 34.5q-37 0 -71.5 -12.5t-68.5 -30t-66 -37t-64 -35.5l-13 4v12q4 14 29 60.5t58.5 108t73.5 129t75 127t60.5 99t31.5 46.5q47 18 109.5 15t127 -7
t126 1t108.5 40l8 -4q-29 -74 -87 -111t-129.5 -50t-149.5 -10t-142 7l-225 -391q57 39 131 65.5t144 26.5q86 0 145 -43t59 -135q0 -70 -30.5 -139.5t-83 -133t-121 -117t-142 -92.5t-147.5 -61.5t-139 -22.5q-29 0 -75 4.5t-71 20.5z" />
    <glyph glyph-name="six" unicode="6" horiz-adv-x="862" 
d="M76 197q0 92 38 189t101.5 192.5t145 186.5t168.5 172t173 148.5t158 116.5l12 2l15 -22q-4 -4 -5 -8.5t-5 -8.5q-29 -31 -68 -60.5t-72 -57.5q-145 -133 -264 -289q-43 -55 -91 -130t-89 -157t-68.5 -165t-27.5 -154q0 -53 28.5 -90t83.5 -37q72 0 141.5 57t124 138
t87 170t32.5 155q0 35 -15 58.5t-54 23.5q-51 0 -98.5 -35t-86.5 -86t-67.5 -106.5t-44.5 -98.5l-9 -10l-20 -2l-4 12q14 59 50 128t86 127t112.5 96t130.5 38q72 0 108.5 -47t36.5 -115q0 -86 -48 -183t-124 -179t-169 -135.5t-181 -53.5q-102 0 -161.5 57.5t-59.5 162.5z
" />
    <glyph glyph-name="seven" unicode="7" horiz-adv-x="999" 
d="M20 4q4 14 45 62.5t107 116t148.5 151.5t171 170t175.5 170t159.5 153.5t125 118.5t70.5 68q-82 2 -163 5t-163 3q-68 0 -105.5 -22.5t-61 -50t-39 -50t-37.5 -25.5l-7 5v12q41 82 74 133t75 81t99.5 41t149.5 11q72 0 145.5 -2t145.5 -12q6 4 19 12t22 8l8 -12l-4 -14
q-96 -111 -197.5 -215.5t-204.5 -210.5q-123 -129 -235.5 -262.5t-223.5 -272.5q-6 -6 -26.5 -32.5t-43 -55.5t-43 -52.5t-24.5 -25.5q-27 -12 -71.5 -14t-75.5 -6l-12 6z" />
    <glyph glyph-name="eight" unicode="8" horiz-adv-x="860" 
d="M29 176q0 72 45 145.5t109.5 141t137 124t125.5 97.5q-35 80 -34 164q0 68 28.5 128t76.5 106t110.5 73t128.5 27q78 0 133 -37t55 -121q0 -63 -31.5 -125.5t-79 -120t-100.5 -107.5t-98 -89q29 -61 34 -111.5t5 -118.5q0 -78 -37 -145.5t-95.5 -118.5t-132 -81
t-147.5 -30q-45 0 -87 12.5t-74.5 38t-52 62.5t-19.5 86zM123 170q0 -68 36 -109t107 -41q57 0 107.5 27t88.5 69t59.5 96.5t21.5 109.5q0 76 -29 163.5t-57 159.5q-53 -41 -112.5 -92t-109 -111.5t-81 -129t-31.5 -142.5zM545 915q0 -35 7 -72.5t18.5 -75.5t24.5 -75
t26 -67q41 33 85 79t80.5 98t60 109.5t23.5 114.5q0 53 -29.5 84t-82.5 31q-43 0 -82 -19.5t-68.5 -51.5t-46 -72t-16.5 -83z" />
    <glyph glyph-name="nine" unicode="9" horiz-adv-x="890" 
d="M119 -27l8 13q229 162 392 373.5t235 490.5q10 35 15 73t5 74q0 57 -23.5 99.5t-88.5 42.5q-74 0 -145 -49.5t-126 -123t-89 -156.5t-34 -151q0 -49 24.5 -81.5t78.5 -32.5q53 0 97 28.5t79 71.5t60.5 92t43.5 92l8 7l23 -2l2 -11q-23 -55 -59.5 -123.5t-88 -130
t-111.5 -102.5t-128 -41q-72 0 -108.5 46t-36.5 114q0 86 52 190.5t132 194.5t176 150.5t184 60.5q53 0 91 -21.5t62.5 -56.5t36 -79t11.5 -91q0 -143 -77 -286.5t-191.5 -273.5t-245.5 -238.5t-242 -180.5h-12z" />
    <glyph glyph-name="equal" unicode="=" horiz-adv-x="937" 
d="M301 457q0 16 9 27.5t26 11.5h301h43t67.5 -4.5t62.5 -12.5t28 -24q0 -14 -12.5 -18.5t-22.5 -4.5q-78 0 -155 -4t-154 -12q-41 -4 -79 -11.5t-79 -7.5q-18 0 -26.5 22.5t-8.5 37.5zM301 662q0 16 9 27t26 11h301h43t67.5 -4t62.5 -12.5t28 -24.5q0 -14 -12.5 -18
t-22.5 -4q-78 0 -155 -4t-154 -12q-41 -4 -79 -11.5t-79 -7.5q-18 0 -26.5 22.5t-8.5 37.5z" />
    <glyph glyph-name="question" unicode="?" horiz-adv-x="782" 
d="M246 55q4 35 33.5 59.5t64.5 24.5t55.5 -24.5t14.5 -59.5t-35 -59.5t-64 -24.5t-55 24.5t-14 59.5zM371 342q18 76 63 156t103.5 158.5t123 155.5t121.5 149q68 86 72 147t-33 94t-104.5 35t-141.5 -35q-47 -23 -83.5 -63.5t-30.5 -77.5q6 25 26.5 42t44.5 32
q45 25 77 14.5t45.5 -37.5t4 -63.5t-44.5 -63.5q-41 -31 -81.5 -33t-69.5 19.5t-38 62.5t13 94q20 45 64.5 78t85.5 58q72 41 142.5 55t127.5 5t96 -42t46.5 -86t-22.5 -125t-110 -162q-66 -76 -131 -137t-124.5 -125.5t-111.5 -139.5t-91 -179q-8 -18 -25.5 -12t-13.5 26z
" />
    <glyph glyph-name="at" unicode="@" horiz-adv-x="1957" 
d="M156 293q-12 147 25.5 286.5t112.5 261.5t181.5 223t232.5 174t265 113t282 40q117 0 233 -27t211 -85t157.5 -150.5t72.5 -223.5q8 -104 -17.5 -203.5t-74.5 -190.5t-117.5 -170t-144.5 -140q-29 -23 -70 -42.5t-87 -34.5t-92 -23.5t-83 -8.5q-33 -2 -73 9.5t-69.5 46
t-38.5 97t19 165.5q-31 -51 -80 -119t-106 -123q-74 -72 -137.5 -85t-107.5 18.5t-63.5 101t-6 164t63.5 206t149 228.5q57 70 137 120t164 69.5t162.5 5t134.5 -75.5q27 -29 15.5 -54.5t-42.5 -19.5q-23 72 -86.5 88t-134.5 -25q-43 -25 -89 -63.5t-91 -86.5t-86 -103.5
t-76 -112.5q-8 -14 -23.5 -43t-33 -66t-31 -77t-19.5 -76q-10 -68 9.5 -98.5t54.5 -30.5t82 29.5t92 82.5q70 82 125 174t104 187q43 84 79 128t97 40q25 -2 52.5 -9.5t56.5 -3.5q-20 -20 -56 -75.5t-73 -126t-67.5 -146.5t-43.5 -133q-12 -66 0.5 -101.5t43 -50t71.5 -10.5
t86 19.5t86 38t72 47.5q68 55 123 131t93 163t55 180t11 185q-10 123 -62 208t-133 138t-183.5 77t-208.5 24q-139 0 -270.5 -41t-247 -114t-210 -174t-160 -221t-97 -255t-19.5 -275q10 -137 72.5 -236.5t157 -164t212 -95t240.5 -30.5q174 0 335 55.5t298 147.5q8 8 18 7
t14.5 -8t3.5 -16.5t-14 -15.5q-147 -98 -315 -156.5t-354 -58.5q-141 0 -274.5 33.5t-239 105.5t-174 184.5t-80.5 272.5z" />
    <glyph glyph-name="A" unicode="A" horiz-adv-x="1458" 
d="M38 230q1 110 39 243t116 272q39 70 82.5 135.5t97.5 125.5q-61 29 -113.5 63.5t-91.5 77.5q-23 25 -34 59.5t-13 68.5t5 62.5t24 40.5q18 25 35.5 11.5t0.5 -50.5q-12 -27 -12 -51q0 -16 6 -32q14 -36 49 -78q66 -76 181 -129q96 106 208.5 203.5t238.5 171t264.5 116.5
t287.5 43q166 0 259 -72.5t93 -187.5q0 -55 -32.5 -120.5t-107.5 -124t-196.5 -102.5t-300.5 -61q-116 -11 -221 -11q-53 0 -103 3q-150 8 -294 56q-29 -39 -68 -99.5t-81 -130t-81.5 -144.5t-66.5 -143q-66 -166 -66 -274q1 -20 3 -38q14 -116 90 -152q36 -17 82 -18
q53 0 119 23q124 42 265 158q80 68 158 149t148.5 166t130 170t100.5 161q47 89 88 109q20 10 36 10q17 0 27 -10q17 -17 17 -52q0 -8 -1 -18q-5 -48 -50 -97q-43 -49 -85 -112.5t-78 -135t-63.5 -148.5t-42.5 -153q-13 -69 -13 -117q0 -43 10 -71q22 -60 69 -64h9
q44 0 102 39q64 43 125 119q47 61 95 137t83 154q14 29 32.5 29t2.5 -37q-14 -31 -35 -72t-46.5 -85t-53 -89t-56.5 -82q-27 -35 -60.5 -66.5t-72.5 -56t-82 -39t-86 -14.5q-57 0 -92 30.5t-51.5 79t-18.5 107.5v19q0 49 8 99q10 58 29 108t41 81q-41 -49 -100.5 -111.5
t-128 -125t-146.5 -117.5t-156.5 -90t-158.5 -43q-17 -2 -33 -2q-62 0 -119 24q-74 31 -110 111q-36 78 -36 185v6zM539 1004q119 -40 255 -48q45 -3 97 -3q104 0 233 12q127 10 229.5 42.5t174 83t110.5 116t39 141.5q0 92 -74.5 137t-187.5 45q-143 0 -266 -44
t-229.5 -117t-200.5 -168t-180 -197z" />
    <glyph glyph-name="B" unicode="B" horiz-adv-x="2131" 
d="M30 82q-8 25 -9 51q-1 29 11 59q20 56 76 94t144 46q14 1 29 1q77 0 174 -34q57 -23 127.5 -63.5t169.5 -88.5q102 98 186 244t170 309.5t184.5 332.5t229.5 315l116 133q-153 26 -330 26q-22 -1 -44 -1q-202 -4 -410 -48q-141 -31 -250.5 -88t-185.5 -128t-116 -147.5
t-43 -144.5v-11q0 -61 33 -111q36 -54 111 -76q50 -16 94 -16q36 0 67 10q71 24 119 67q47 43 71 91q20 41 21 64q0 4 -1 7q0 4 7 8t14.5 4t14.5 -6t7 -23v-2q-12 -76 -56 -134t-105.5 -93t-133.5 -43q-18 -2 -35 -2q-53 0 -104 18q-104 37 -158.5 107t-58.5 154v14
q0 77 39 162q43 92 133 174t226 143.5t317 87.5q185 27 363 26h58q206 -5 386 -44q27 23 56.5 41t55.5 28q49 20 53.5 6t-32.5 -36q-20 -14 -38 -30.5t-22 -25.5q131 -35 233.5 -85t162 -114.5t68.5 -143.5q1 -12 1 -24q0 -68 -43 -143q-33 -55 -87 -95t-118.5 -65.5
t-131 -38t-124.5 -14.5q51 -16 111.5 -41.5t116 -61.5t99.5 -83t60 -104q15 -53 16 -103q1 -37 -9 -72q-20 -81 -75.5 -149t-137.5 -118t-177 -82q-96 -32 -196 -44q-51 -6 -100 -6q-47 0 -93 6q-195 25 -322.5 62t-221.5 80q-119 -88 -250 -125q-88 -25 -181 -25
q-45 0 -92 6q-104 12 -163 56.5t-77 99.5zM144 161q-2 -12 -2 -24q0 -28 12 -55q18 -39 59 -66.5t109 -31.5q12 0 24 -1q99 0 184 31q95 34 177 95q-72 35 -141.5 69.5t-162.5 67.5q-61 21 -108 21q-13 1 -25 -1q-55 -8 -86.5 -36.5t-39.5 -68.5zM838 106q96 -41 217 -73.5
t280 -48.5q36 -3 70 -3q93 -1 177 23q114 32 198 92t134 138.5t56 158.5q1 10 1 20q0 69 -37 133q-42 72 -140 120q-59 29 -123.5 49t-119 37.5t-92.5 32t-46 30.5q-1 27 23 34q21 6 55 6h10q41 -1 95.5 -6t113.5 -5q63 0 131 29.5t123 75.5t92 105.5t40 119.5v9
q0 55 -35 109q-38 58 -132 103q-41 20 -90 35.5t-102 27.5q-102 -141 -206 -317t-206 -352.5t-204.5 -337t-205.5 -271.5q-20 -20 -38.5 -37.5t-38.5 -36.5z" />
    <glyph glyph-name="C" unicode="C" horiz-adv-x="1454" 
d="M122 448q3 126 34.5 251.5t87 240.5t127.5 205q-12 47 -21 105q-8 58 -11 120q-1 23 -1 47q0 39 3 77q5 62 21 120q2 12 11.5 20t16.5 8t12.5 -9t0.5 -29q-11 -65 -11 -133q0 -34 3 -69q8 -104 25 -188q166 216 387 310q169 72 352 72q56 0 113 -7q150 -16 250 -71.5
t154 -131.5q53 -78 63 -170q3 -23 3 -46q0 -69 -22 -137q-30 -91 -97 -173t-167 -139t-231 -82q-68 -13 -144 -13q-70 0 -145 11q-160 23 -294 102.5t-214 245.5q-18 -25 -53 -103.5t-65 -185.5q-32 -106 -48 -230q-7 -55 -7 -108q-1 -66 11 -128q20 -112 86 -202.5
t199 -131.5q116 -34 241 -34q53 0 108 6q183 21 337 114q68 39 116 84t87 96t69.5 109.5t63.5 123.5q12 27 26 19t-2 -39q-33 -68 -64.5 -125t-68.5 -109.5t-84 -99.5t-112 -92q-78 -53 -171 -92t-195 -55q-58 -9 -118 -10q-46 0 -92 6q-110 12 -221 59q-129 55 -206 146
t-111 205q-32 105 -32 220v20zM469 1051q70 -176 200 -261t298 -104q55 -6 106 -6q119 0 215 33q137 47 223 132t119 191q19 60 19 118q1 44 -11 87q-26 98 -112 172.5t-236 97.5q-44 6 -87 6q-71 0 -141 -16q-114 -26 -220.5 -87.5t-201.5 -154t-171 -208.5z" />
    <glyph glyph-name="D" unicode="D" horiz-adv-x="2076" 
d="M16 80q-8 25 -9 51q-1 31 11 61q20 56 76 93t144 45q15 1 31 1q77 0 171 -32q29 -10 72 -30.5t88 -43t86 -44t66 -34.5q113 109 204 261.5t178 318.5t181 331t215 300q-152 92 -332 124q-79 14 -161 13q-104 0 -212 -22q-141 -31 -249.5 -89.5t-182.5 -131.5
q-75 -72 -113 -150q-40 -80 -39 -152q-1 -68 35 -122t113 -76q52 -17 96 -17q33 -1 63 9q68 22 115.5 64t71 91t25.5 76q2 16 23.5 13t17.5 -32q-10 -76 -54.5 -134t-105.5 -93t-133 -43q-18 -2 -36 -2q-53 0 -103 18q-90 31 -146.5 97.5t-72.5 149.5q-5 28 -5 56
q0 57 21 119q31 92 117 175t229 148.5t354 96.5q89 14 177 13q101 0 199 -17q186 -33 345 -119l51 60q12 12 36 29.5t50.5 35t50 31.5t35.5 18q49 20 53.5 6t-32.5 -36q-20 -14 -37.5 -31.5t-21.5 -24.5q-23 -33 -47.5 -67.5t-49.5 -71.5q104 -70 188.5 -161t140.5 -203
t80 -242q16 -83 16 -171q0 -51 -5 -104q-14 -143 -85 -254.5t-178 -185.5q-106 -73 -239 -105q-88 -21 -178 -21q-46 0 -92 5q-100 12 -181 28.5t-147.5 35t-122 39t-104.5 43.5q-113 -92 -239 -129q-85 -25 -179 -25q-46 0 -94 6q-104 12 -163 55.5t-77 98.5zM142 158
q-2 -13 -2 -25q0 -27 12 -53q16 -37 54 -65.5t101 -30.5q12 0 24 -1q97 -1 184 29q97 32 183 94q-74 35 -145.5 71t-163.5 69q-55 20 -97 20q-15 0 -29 -2q-52 -10 -82.5 -37.5t-38.5 -68.5zM817 111q96 -43 217 -77t287 -50q33 -3 65 -3q96 -1 180 27q112 36 197.5 107
t138 167.5t64.5 202.5q5 50 5 99q0 73 -11 143q-18 117 -63.5 219.5t-115 190.5t-155.5 155q-90 -141 -183 -297.5t-187.5 -306t-185.5 -282t-175 -222.5q-20 -23 -38.5 -40t-39.5 -33z" />
    <glyph glyph-name="E" unicode="E" horiz-adv-x="1669" 
d="M45 282v14q-1 100 51 198q56 104 169.5 192t281.5 139q109 31 207 35q-43 14 -88 40t-82 58q-36 33 -58 73q-18 34 -19 71q0 7 1 14q8 88 59 164t130 137.5t178.5 107.5t203 75.5t203.5 39.5q54 6 102 7q42 0 80 -5q119 -14 192 -51q74 -37 102 -85q21 -36 21 -76
q-1 -14 -3 -28q-10 -56 -54.5 -108.5t-121 -95.5t-179.5 -65q-43 -10 -62.5 -7.5t-18.5 11t20.5 18.5t54.5 14q47 4 94 35t83 75t54 95q11 31 12 61q0 17 -4 35q-12 46 -58 79.5t-140 43.5q-36 4 -73 4q-87 -1 -180 -21q-132 -28 -245.5 -86t-194.5 -141t-99 -182
q-5 -26 -5 -49q-1 -47 19 -79q28 -48 78.5 -76.5t113 -43t114.5 -28.5q52 -15 85 -33q27 -15 27 -41q0 -7 -2 -14q-10 -31 -58 -34q-29 -2 -68 -2q-26 0 -56 1q-37 1 -78.5 1t-87.5 -1q-92 -2 -191 -29q-106 -29 -188 -100.5t-128 -161.5q-47 -90 -51 -186v-16
q0 -87 46 -160q50 -80 156 -131.5t282 -51.5q119 0 233.5 25t217 63.5t191.5 89t154 101.5q57 45 97.5 92t57.5 87q12 27 12 50q0 12 -3 20q-8 30 -51 40q-35 8 -42 18t3 16.5t33.5 5t48.5 -13.5q54 -28 76 -70q15 -28 16 -61q0 -15 -4 -31q-10 -50 -51 -102.5t-109 -105.5
q-76 -59 -177 -109.5t-217 -85.5t-241.5 -54.5t-252.5 -19.5q-207 0 -342.5 55.5t-204 143.5t-72.5 196z" />
    <glyph glyph-name="F" unicode="F" horiz-adv-x="2146" 
d="M110 226q-9 48 -8 98q0 104 37 217q14 43 41 79.5t57.5 63.5t61.5 45.5t53 24.5q25 8 30 6t-2 -9.5t-25.5 -20.5t-41.5 -30q-18 -14 -41.5 -33.5t-46 -47t-42 -66.5t-27.5 -90q-10 -55 -10 -105q0 -88 31 -162q48 -116 138.5 -196t208 -123t230.5 -47q19 -1 38 -1
q148 -1 278 55q146 62 268 174t219.5 261.5t171.5 317.5q-29 0 -89 3q-16 1 -34 1q-44 0 -94 -6q-68 -8 -130.5 -31.5t-99.5 -75.5q-18 -25 -29.5 -11.5t-3.5 30.5q35 78 91 119t124 55q50 10 104 10q20 0 40 -1q76 -5 149 -17q37 88 82 177t88 162.5t78 127t49 69.5
q-131 66 -268 119t-289 76q-64 9 -123 9q-69 -1 -131 -13q-115 -24 -201 -74.5t-141 -119t-79 -136.5q-17 -48 -18 -92q0 -18 3 -34q10 -58 57 -87q71 -44 141 -45q7 0 14 1q77 5 138.5 35t98 69.5t36.5 62.5q0 16 9.5 30.5t18.5 18.5t12 -5t-5 -36q-23 -74 -78 -125
t-123 -75q-56 -19 -118 -19q-13 0 -26 1q-75 5 -136 40q-86 49 -115 130q-17 47 -17 98q0 36 8 74q20 91 86 178t170 146q106 58 246 76q38 5 78 4q108 0 230 -34q170 -47 311.5 -113t237.5 -125l23.5 23.5t37 28t49 17.5t62.5 -5q20 -6 28.5 -21.5t8.5 -28t-10.5 -15.5
t-26.5 15q-16 7 -32 7q-18 0 -36 -9q-33 -16 -55 -36q35 -18 92 -42t126 -46.5t140.5 -40t135.5 -19.5h14q55 0 96 14q47 16 68 56q23 49 35 38.5t2 -49.5q-4 -31 -26 -57.5t-57 -43.5q-34 -16 -80 -24q-21 -3 -43 -4q-27 0 -55 5q-90 14 -169.5 41.5t-144 55t-107.5 50.5
t-58 29q-49 -55 -90 -127t-73.5 -143.5t-60.5 -140.5t-48 -118q47 -6 101 -9t106.5 -4t99.5 -1t78 2q53 4 52 -12.5t-48 -28.5q-27 -6 -80 -10q-52 -4 -114 -6q-31 -1 -61.5 -1t-60.5 1q-60 2 -98 6q-35 -96 -79 -199.5t-102 -203t-135 -189.5t-179.5 -157.5t-232.5 -107.5
t-296 -40q-178 0 -321.5 63.5t-232 173t-114.5 255.5z" />
    <glyph glyph-name="G" unicode="G" horiz-adv-x="1431" 
d="M-92 -562q18 54 79.5 109.5t152.5 103.5t208 85t244 55q39 6 94 11t114.5 10.5t118 8.5t107.5 3q37 63 68.5 123.5t56.5 121t45.5 124t36.5 135.5l8 34q-31 -29 -82 -69.5t-117.5 -81.5t-144.5 -79t-162 -59.5t-171 -24.5h-16q-79 0 -155 26q-96 33 -169.5 120
t-107.5 212q-23 87 -23 188q0 47 5 96q15 158 99 332q-59 61 -94 135t-41 151v25q0 65 25 132q30 79 101 151q23 23 37.5 19.5t-10.5 -36.5q-51 -63 -73 -131q-18 -56 -18 -113q0 -10 1 -21q4 -66 30.5 -130.5t73.5 -120.5q10 20 21.5 40t23.5 40q82 133 196 235.5t243 168
t264 92.5q79 16 154 16q53 0 104 -8q158 -25 252 -97.5t125 -166.5q15 -46 15 -95q0 -50 -17 -104q-31 -104 -125 -192t-250 -146.5t-373 -60.5h-25q-62 0 -125 8q-75 10 -144.5 28.5t-132 45t-111.5 59.5q-68 -145 -88 -278q-11 -66 -11 -126.5t11 -114.5
q20 -108 78.5 -182.5t148.5 -103.5q64 -21 134 -21q40 0 81 6q115 19 215 64.5t174 105.5t96 112q45 104 90 146t81 43h2q35 0 56 -29q16 -23 16 -51q0 -8 -1 -17q-23 -170 -94.5 -331t-184.5 -345q137 -2 247 -16t202 -37q23 -6 34 -14.5t9 -16.5t-16.5 -10t-42.5 4
q-35 8 -88.5 16t-116 12.5t-129 6.5t-127.5 2q-66 -94 -153 -175t-184 -145.5t-199.5 -112t-197 -73t-176.5 -29.5q-13 -1 -26 -1q-65 0 -113 17q-96 35 -128 84q-21 31 -21 65q0 18 6 37zM12 -644q17 -34 92 -50q28 -6 65 -6q23 0 48 2q68 6 146.5 28.5t163.5 62.5t169 94
t161 125t136 157q-98 -4 -194.5 -11.5t-182.5 -21.5q-90 -14 -184 -47t-176 -75t-144.5 -90t-89.5 -91q-16 -27 -16 -50q0 -14 6 -27zM350 999q96 -72 242 -109q101 -27 210 -27q46 0 93 5q172 18 300 73.5t209 131.5t114 162q20 54 20 104q0 29 -8 58q-19 76 -89.5 133.5
t-195.5 75.5q-33 4 -67 4q-73 0 -153 -20q-116 -31 -227.5 -98t-212 -164t-171.5 -216q-16 -29 -32.5 -56.5t-31.5 -56.5z" />
    <glyph glyph-name="H" unicode="H" horiz-adv-x="2828" 
d="M8 379q12 49 44 96t70 83t74.5 58.5t61.5 22.5q33 0 27 -11.5t-23 -17.5q-25 -10 -57.5 -38.5t-63 -70.5t-55.5 -96.5t-33 -117.5q-5 -37 -5 -70q0 -69 20 -126q28 -85 84.5 -144.5t135.5 -97t164 -55.5q80 -17 162 -16h9q86 1 157 17q215 49 376 145.5t277.5 219.5
t194.5 262t129 272q-33 0 -63.5 -9t-59.5 -23q-8 -4 -22.5 -8.5t-25.5 -4.5t-15 7.5t8 27.5q14 23 50 48.5t77 29.5h80q39 96 84 199.5t88 195.5t76.5 164t50.5 104q-100 -12 -205.5 -19t-208 -21.5t-198 -42t-177.5 -78t-144 -129t-99 -197.5q-19 -60 -20 -115
q-1 -21 3 -41q10 -72 47 -122t99 -68q23 -7 48 -6q42 0 91 18q57 20 96 74.5t60.5 114t27.5 110.5q2 19 2 33q0 23 -6 33q-8 12 -7 20t7 10t13.5 -1t13.5 -15q23 -50 23 -102q1 -13 -1 -27q-8 -66 -39.5 -123t-82 -101t-105.5 -65q-57 -22 -111 -22q-33 1 -66 9
q-85 22 -145.5 81t-86.5 148q-13 46 -13 95q0 46 12 95q33 129 107 214t173 138t219 80t242 39t240.5 17t219.5 16q6 8 21 32.5t37.5 51t48.5 49t50 30.5q22 6 41 6q21 0 40 -7q36 -13 36 -56q0 -37 -26.5 -64.5t-63.5 -47t-79 -29.5t-73 -10q-18 -39 -43.5 -96.5
t-51.5 -124t-52.5 -137.5t-50 -132t-41 -108.5t-25.5 -69.5q102 0 203.5 -5t193 -12.5t168 -12.5t129.5 -5q8 23 33 86.5t60.5 148.5t81 180t92.5 177t93 141.5t87 73.5q31 10 59.5 17.5t47 9.5t18.5 -4.5t-29 -20.5q-14 -8 -59 -67.5t-105.5 -164t-129 -251t-130.5 -324.5
h38t47.5 2t45 5t33.5 7q29 10 36 2t-20 -26q-41 -29 -97 -40t-101 -15q-10 -31 -27.5 -83.5t-37 -117t-37 -133t-25.5 -130.5q-6 -45 -6 -82q0 -14 1 -28q3 -49 25 -74q20 -24 50 -24q1 0 1 1q29 0 64 23q39 29 75 72t67.5 93t60 103.5t53.5 102.5q16 35 31.5 29t-0.5 -43
q-41 -84 -72 -142.5t-58.5 -101.5t-56 -76t-63.5 -65q-54 -52 -116 -68q-22 -6 -43 -6q-38 0 -73 18q-48 25 -64 78q-14 44 -13 99q1 12 1 24q4 70 22 147.5t41.5 151.5t46 135.5t34.5 96.5q-35 0 -121 3t-190.5 7l-209 8t-173.5 8q-59 -178 -158.5 -352t-235 -316.5
t-303.5 -240.5t-366 -123q-66 -9 -131 -9q-107 0 -209 24q-164 38 -282 131.5t-169 237.5q-26 73 -26 160q0 82 24 177zM2183 1481q66 10 94.5 26.5t34.5 32.5t-3 27.5t-17 11.5q-8 4 -21.5 -6t-30 -25.5t-32 -34t-25.5 -32.5z" />
    <glyph glyph-name="I" unicode="I" horiz-adv-x="1867" 
d="M-24 38q-14 50 -14 106q0 104 46 229q18 51 56 98t79 85t81 60.5t65 24.5q33 2 24.5 -9t-22.5 -20q-27 -12 -62.5 -40.5t-71.5 -71.5t-67 -98.5t-47 -118.5q-15 -61 -15 -114q0 -45 10 -85q22 -88 79 -151.5t139 -105.5q82 -43 175 -63q89 -20 180 -19h9q96 1 177 22
q150 37 276.5 108.5t233 163.5t191.5 196.5t150.5 209t111.5 200.5t75 170q45 121 93 228.5t90 194.5t75 148.5t49 90.5q-139 -31 -297.5 -74t-302 -116t-252 -184.5t-145.5 -277.5q-10 -46 -10 -86q0 -25 4 -48q10 -60 42.5 -97t84.5 -47q15 -3 32 -3q40 0 86 17
q80 33 122 88.5t58 111.5q12 42 11 78q0 12 -1 23q-5 45 -18 58q-4 4 0.5 12t12.5 14t16 6t14 -14q26 -48 26 -101q0 -11 -1 -21q-6 -64 -38 -123.5t-84 -106.5t-116 -72q-61 -23 -119 -23q-19 1 -39 3q-76 10 -132 54t-82 116q-15 40 -15 85q0 36 9 76q27 121 96.5 215.5
t166.5 168t215 125.5t238.5 91t237.5 63.5t213 41.5q6 12 22.5 36.5t38 51.5t47 49.5t50.5 30.5q26 8 48 8q17 0 33 -5q34 -11 35 -52q0 -31 -13 -53.5t-35.5 -40t-51.5 -28.5t-57 -22q-18 0 -45 -9t-41 -9q-63 -115 -106.5 -225.5t-78 -218t-67.5 -214t-75 -211t-97.5 -208
t-136.5 -207.5q-170 -217 -378 -341t-431 -161q-123 -21 -234 -21q-86 0 -166 12q-184 28 -303 116t-157 230zM2241 1538q68 14 96 31.5t34.5 33t-3 26.5t-17.5 11q-8 2 -21.5 -7t-29.5 -25.5t-31.5 -36t-27.5 -33.5z" />
    <glyph glyph-name="J" unicode="J" horiz-adv-x="1978" 
d="M-124 -380q-9 41 -9 86q0 113 57 251q20 49 59.5 96t82.5 83t83.5 58.5t65.5 22.5q33 2 23.5 -9t-25.5 -20q-27 -10 -63.5 -38.5t-74.5 -69.5t-70 -95.5t-50 -117.5q-21 -71 -21 -133q0 -36 8 -69q19 -89 74.5 -155.5t137.5 -111.5t175 -67.5t189 -25.5h27q81 0 151 15
q180 39 330 135t273.5 225.5t224 280t181.5 301t142.5 290.5t110.5 247q53 119 105.5 221t95.5 182t76.5 136.5t50.5 82.5q-82 -14 -181.5 -40.5t-202 -68.5t-199.5 -97.5t-177 -126t-135.5 -155.5t-71.5 -183q-5 -34 -5 -65q0 -34 6 -65q11 -57 42 -92.5t79 -45.5
q14 -4 30 -4q37 0 83 18q82 29 126 83t62 110q15 50 15 93v10q-2 46 -14 58q-12 8 -11 17.5t8 14.5t20.5 2t25.5 -18q18 -43 18 -88q0 -18 -2 -36q-10 -64 -44 -122.5t-88 -104.5t-118 -69q-57 -20 -110 -20q-23 0 -46 4q-73 12 -125 55t-78 115q-16 46 -16 99q0 30 5 63
q18 119 83.5 214t161 171t212 131t236.5 95t235.5 64.5t209.5 37.5q6 12 23.5 35.5t41 50t50.5 48t51 29.5q24 6 44 6t37 -6q34 -12 34 -53q0 -31 -15.5 -53.5t-39 -38.5t-52 -27.5t-59.5 -19.5q-18 0 -46 -8t-42 -8q-100 -170 -168 -354.5t-136.5 -379t-154.5 -400.5
t-223 -419q-90 -139 -211 -248.5t-251 -188.5t-256 -125t-226 -60q-104 -15 -199 -15q-106 0 -202 18q-181 35 -296.5 126.5t-147.5 235.5zM2384 1481q68 12 98.5 28.5t37.5 31.5t-1 26.5t-16 11.5q-8 4 -23.5 -6t-32 -25.5t-34 -34t-29.5 -32.5z" />
    <glyph glyph-name="K" unicode="K" horiz-adv-x="2342" 
d="M-8 142q-6 37 -6 78q0 75 22 159q14 55 46 99t67 76t68.5 50.5t54.5 20.5q25 4 25.5 -9.5t-11.5 -19.5q-14 -6 -44 -29.5t-62.5 -62.5t-61.5 -93.5t-37 -123.5q-5 -37 -5 -72q0 -68 18 -125q28 -86 84.5 -148.5t133 -102.5t161.5 -60.5t170 -21.5h9q80 0 148 16
q219 49 381 158.5t280.5 246.5t199.5 287.5t141 282.5q10 23 31.5 71.5t50 112t61.5 135.5t64.5 140.5t58 126t45.5 91.5q-68 -8 -142.5 -14t-151.5 -14t-152.5 -20.5t-147.5 -33.5q-152 -43 -249 -121.5t-148.5 -172t-57.5 -185.5q-1 -15 -1 -28q0 -74 27 -130
q32 -66 98 -96q30 -14 67 -14q43 0 94 18t88 62.5t59 99.5q21 56 26 114q2 22 2 43q0 34 -5 64q-4 16 11.5 12.5t25.5 -26.5q15 -41 15 -87q0 -14 -1 -28q-6 -62 -33.5 -121t-72.5 -104t-101 -65q-65 -24 -124 -24q-44 0 -84 14q-93 32 -148 108t-65 182q-1 16 -1 31
q-1 91 45 181q54 106 176.5 197t331.5 138q84 18 170 29.5t170 17.5t162 11t146 12q6 8 21 32.5t37.5 51t48 49t50.5 30.5q22 6 41 6q29 0 50 -15q29 -21 29 -53q0 -6 -1 -12q-6 -40 -63.5 -81t-180.5 -53q-78 -139 -139 -314.5t-128 -361t-148.5 -366.5t-199.5 -331.5
t-283 -256t-396 -140.5q-72 -10 -144 -10q-46 0 -90 4q-116 10 -220.5 48t-191.5 99.5t-141.5 147t-72.5 193.5zM1819 514q2 53 16 59h4q38 0 124 34q91 36 215 107.5t270.5 172t293 227.5t283.5 273.5t244 310.5q18 27 32.5 34t23.5 0.5t8 -24t-13 -37.5
q-82 -135 -190.5 -267t-230.5 -251t-252 -222.5t-255 -185t-237.5 -137t-200.5 -78.5q-10 4 -6 -41t19 -117.5t43 -162.5t67 -178q66 -150 155.5 -235t210.5 -85q59 0 123 13.5t121 39t104.5 66.5t75.5 96q6 14 15.5 22.5t15.5 6.5t6 -13.5t-10 -31.5q-29 -55 -79 -107.5
t-113.5 -92.5t-133 -63.5t-135.5 -23.5q-84 0 -158.5 30t-138 81t-114 121.5t-87.5 150.5q-43 94 -69.5 192.5t-37.5 180.5q-9 69 -9 118v17zM2183 1481q59 8 90 24q33 16 45.5 36t8 32t-21.5 13t-42 -19q-20 -16 -41.5 -42t-38.5 -44z" />
    <glyph glyph-name="L" unicode="L" horiz-adv-x="1458" 
d="M-6 8q18 64 89 126.5t208 103.5q55 16 121 25t134 13q30 2 59 1q38 -1 77 -3q68 -4 123 -14q59 92 109.5 186.5t105.5 208.5h-24q-132 0 -235 40q-112 44 -178.5 118t-84.5 165q-5 27 -5 54q0 63 29 125q41 88 144.5 162t279.5 115q33 8 50.5 5t18.5 -10.5t-15.5 -16.5
t-49.5 -13q-104 -12 -184 -73.5t-124 -145.5t-47 -176v-11q0 -85 43 -153q46 -72 146 -113q66 -27 161 -27q48 0 104 7q10 20 37.5 90.5t58.5 148.5q37 90 78 199q80 201 165 326.5t165.5 192.5t152.5 83q36 8 68 8t59 -8q55 -16 89 -56t38 -87q2 -22 2 -45q0 -80 -22 -163
q-28 -106 -87 -204t-142 -186t-181 -158t-207 -118t-217 -66q-45 -90 -85 -172t-95 -181q-10 -18 -21.5 -34.5t-21.5 -34.5q76 -18 163 -48t176 -68t175 -86t157 -103q74 -57 119 -127t67 -138q21 -64 20 -119v-5q-1 -58 -19 -91q-23 -41 -51 -55q-33 -18 -43.5 -15t-9.5 15
t10.5 30.5t15.5 30.5q11 27 17 76q2 19 3 40q1 31 -5 65q-8 56 -36 115t-79 104q-74 66 -163 111.5t-185.5 78.5t-195.5 55.5t-198 41.5q-80 -113 -171 -200t-191 -134q-107 -50 -199 -52q-4 0 -7 -1q-87 0 -149 33q-64 34 -96 92q-20 37 -20 75q0 22 6 45zM41 -15
q-8 -20 -8 -40q1 -24 13 -46q22 -41 75 -61q43 -16 102 -16q14 0 30 1q79 5 173 50q170 82 315 289q-92 21 -192 21q-11 -1 -21 -1q-112 -2 -213 -28q-123 -31 -189.5 -77t-84.5 -92zM1135 719q137 31 271 112.5t238.5 195.5t168 252.5t63.5 279.5q0 51 -44 69q-13 5 -28 6
q-38 0 -91 -32q-75 -46 -177 -169.5t-221 -357.5q-29 -53 -60 -112q-27 -51 -58.5 -115t-61.5 -129z" />
    <glyph glyph-name="M" unicode="M" horiz-adv-x="2721" 
d="M36 704q5 104 56 228q55 129 145.5 242.5t199 206t228 158t235.5 97.5q100 27 190 27q14 0 28 -1q102 -5 176 -54q74 -48 112 -146q28 -71 27 -173q0 -37 -3 -79q-10 -98 -39 -201.5t-68 -205.5q-13 -39 -13 -55q0 -8 3 -10q10 -6 37 42q45 80 81.5 143.5t74.5 120
t80 111.5t97 121q59 72 143.5 118t160 46t123.5 -54q38 -43 39 -134q0 -24 -3 -52q-18 -197 -77.5 -385t-122.5 -381q31 49 74.5 112.5t96 136.5t112 151.5t122.5 156.5q119 147 221 237q102 91 182 128q63 29 111 30q11 0 23 -2q54 -10 76 -61q12 -30 13 -72q-1 -30 -7 -67
q-16 -88 -74 -205q-45 -88 -101.5 -212t-105.5 -256t-80 -262q-26 -110 -26 -200q1 -15 1 -31q6 -102 58 -164q48 -56 151 -56q10 0 21 1q29 2 39 -4t4 -13t-25.5 -13.5t-50.5 -1.5q-31 2 -90 15t-114.5 53t-92.5 116q-27 56 -27 142q0 30 3 63q8 92 41.5 196.5t80 215
t99.5 225t102 229.5q54 125 54 191q0 9 -1 17q-7 56 -52 56q-8 0 -18 -2q-62 -12 -170 -103t-245 -263q-33 -39 -81 -108t-103.5 -152t-112.5 -173t-107.5 -174t-89 -154.5t-57.5 -115.5q-30 -67 -68 -91q-33 -20 -60 -21q-5 0 -9 1q-31 4 -47.5 25.5t-1.5 44.5
q12 25 65.5 119t120 247.5t129 361.5t92.5 462q4 34 4 61q0 53 -15 86q-24 49 -68 53h-7q-42 0 -96 -36q-59 -39 -121 -115q-90 -111 -159.5 -208t-128 -191.5t-110.5 -189.5t-104.5 -204.5t-109.5 -236.5t-127 -283q-12 -29 -43 -43t-61.5 -16t-51 10t-12.5 37
q43 68 94 167t102.5 216t100.5 244t90 248.5t70.5 231t42.5 193.5q8 65 8 118q1 74 -15 126q-28 90 -90 129q-54 34 -129 34q-11 0 -23 -1q-89 -6 -189.5 -47t-204 -111.5t-194.5 -159t-163.5 -188.5t-109.5 -203q-55 -148 -55 -263q0 -24 2 -46q14 -131 76 -209
q63 -79 158 -101q36 -9 73 -8q61 0 125 23q66 25 123 79t99 120.5t64 136.5q16 52 15 95q1 15 -1 29q-8 54 -48 85q-29 23 -81 23q-19 0 -40 -3q-14 -2 -27.5 3.5t-17.5 12.5t7 15t48 12q24 3 46 4q55 -1 93 -23q54 -30 74 -86q13 -36 12 -81q0 -24 -3 -50
q-11 -75 -55 -150.5t-122 -145.5t-188 -115q-68 -28 -140 -28h-16q-80 4 -150.5 36.5t-127 94t-84.5 145.5q-24 71 -25 158q0 14 1 30z" />
    <glyph glyph-name="N" unicode="N" horiz-adv-x="2127" 
d="M-6 647v15q0 120 61 268q37 88 96.5 170t133 155.5t158.5 135t173 110.5q84 47 180.5 78t190.5 41q37 4 72 4q55 0 106 -10q84 -16 144.5 -62.5t90.5 -130.5q20 -56 20 -130q0 -37 -5 -79q-14 -119 -65.5 -239.5t-104.5 -237.5q-41 -86 -49 -109.5t0 -11t26.5 44
t32.5 54.5q55 86 124 181t147 187q57 70 118.5 135.5t123 121t123 99.5t120.5 70q71 33 147 47q39 8 75 8q33 0 63 -6q62 -14 100 -59q37 -43 38 -121q0 -4 -1 -8q-2 -92 -46 -202.5t-112.5 -241.5t-150.5 -279.5t-158 -314.5q-70 -154 -94 -274q-13 -68 -12 -122
q0 -40 6 -73q18 -75 74 -99q21 -9 46 -9q43 0 99 26q37 18 59 18q8 1 14 -3q20 -10 12.5 -32t-41.5 -42q-31 -19 -79 -19h-10q-210 9 -272 145q-26 57 -26 135q0 106 48 250q18 53 58 142.5t91.5 195t106.5 221t102 221t81 193.5t42 142q3 17 3 31q0 31 -12 51
q-17 28 -53 35q-14 3 -30 3q-25 0 -55 -7q-49 -11 -103 -38q-115 -53 -229.5 -147t-224.5 -225q-109 -131 -202 -284t-173 -304.5t-144.5 -290.5t-113.5 -244q-12 -29 -43 -43t-61.5 -15t-51 10t-14.5 36q25 37 66.5 111.5t91 174t102.5 217.5t102.5 240.5t90 245.5
t65.5 232q22 96 22 169q0 29 -4 54q-12 88 -54 137t-110 63q-34 7 -71 7.5t-77 -7.5q-81 -14 -171 -52t-178 -93q-152 -94 -258.5 -214t-170.5 -245q-62 -124 -84 -244q-11 -61 -11 -116q-1 -52 9 -98q20 -94 82 -150.5t165 -56.5q106 0 197 46t158 115.5t103.5 148.5
t36.5 143.5t-42 103.5q-32 29 -90 29q-20 0 -42 -3q-16 -2 -21 2.5t-4 10.5t7 12t14 8q53 13 95 12q53 0 87 -20q62 -37 71 -109q2 -14 2 -29q0 -61 -31 -137q-38 -94 -114.5 -177t-187 -139t-245.5 -56q-98 0 -182.5 47t-134.5 136t-54 214z" />
    <glyph glyph-name="O" unicode="O" horiz-adv-x="1486" 
d="M104 936q-3 30 -3 58q1 113 45 207q56 118 158 201t236 130t275 53q19 1 39 1q120 0 238 -32q136 -38 242 -123t168 -221q54 -118 53 -277q0 -23 -1 -48q84 55 156 118.5t111 139.5q6 10 15 15t16.5 3t9 -12.5t-10.5 -28.5q-57 -90 -131.5 -168t-173.5 -139
q-4 -53 -16 -106.5t-31 -112.5q-31 -96 -89 -195.5t-136 -187.5t-172 -161t-198 -118q-102 -45 -212 -55q-24 -2 -49 -2q-85 0 -170 27q-88 29 -151.5 103.5t-93.5 178.5q-25 87 -26 192q0 20 1 41q6 128 59 261q-66 45 -107.5 108.5t-50.5 149.5zM217 918q12 -96 82 -156
q29 59 76 135t108.5 150.5t134 141t150.5 106.5q78 39 158 47q12 1 24 1q68 0 133 -36q23 -12 13.5 -23.5t-29.5 -5.5q-30 9 -61 9q-35 1 -71 -11q-69 -22 -135.5 -71.5t-129 -117t-114.5 -139t-92 -140.5t-61 -116q90 -45 215 -56q47 -4 95 -5q83 1 169 13
q138 18 280.5 62.5t267.5 112.5q5 56 5 108q0 135 -34 237q-47 142 -135 230t-206 124q-99 31 -202 30q-20 0 -39 -1q-123 -7 -240.5 -55t-204.5 -130t-132 -194q-31 -78 -31 -168q0 -40 6 -82zM314 234q12 -90 52 -160t113 -107q86 -43 174 -43h7q92 2 181 40t171 104.5
t151.5 151.5t126 183.5t90.5 198.5q12 35 22.5 73t14.5 73q-127 -68 -268 -112t-279 -60q-85 -10 -166 -11q-52 1 -102 5q-129 10 -229 51q-37 -97 -53 -197q-10 -59 -10 -114q-1 -39 4 -76z" />
    <glyph glyph-name="P" unicode="P" horiz-adv-x="1822" 
d="M-44 79q-8 24 -8 49q0 30 12 62q20 56 75 92t142 46q17 2 35 3q75 0 169 -32q33 -12 26.5 -24.5t-32.5 -2.5q-65 25 -117 25q-14 0 -26 -2q-60 -8 -98 -39t-51 -76q-6 -22 -6.5 -44t6.5 -44q13 -43 53 -73.5t112 -34.5q13 -1 25 0q123 0 227 53q114 59 219 160
q100 98 184 243.5t171 309t186.5 331.5t230.5 316q29 31 54.5 59.5t53.5 54.5q-88 13 -180 17q-55 3 -109 2q-36 0 -71 -1q-88 -3 -169 -11.5t-144 -20.5q-96 -18 -216 -57t-228.5 -101.5t-189.5 -149.5t-99 -202q-3 -20 -3 -40q0 -31 8 -60q13 -47 40.5 -82t67.5 -55.5
t87 -22.5h9q44 -1 88 17q48 20 88 53.5t72 80t50 97.5q4 23 16.5 21.5t12.5 -23.5q0 -70 -30.5 -124t-80.5 -91q-49 -38 -109 -56q-54 -17 -108 -16h-12q-61 2 -117.5 22.5t-98.5 60.5q-43 41 -67 99q-21 50 -21 114q0 11 1 22q4 92 47 165.5t111.5 133t154.5 103.5
t177.5 75.5t179.5 52t162 31.5q172 25 364 29q21 0 42 1q169 0 331 -32q35 27 70.5 48t82.5 38q49 20 53.5 5.5t-32.5 -36.5q-16 -10 -41 -29.5t-51 -46.5q131 -35 237 -98q130 -76 178 -165q39 -71 38 -142q0 -18 -2 -37q-12 -90 -73 -177t-149 -159t-194.5 -126
t-206.5 -79q-127 -31 -252 -43q-83 -8 -148 -8q-32 0 -59 2q-68 -100 -143.5 -193.5t-163.5 -179.5q-131 -123 -284 -177q-112 -39 -230 -39q-44 0 -88 5q-104 12 -164 55.5t-77 97.5zM1135 553q16 -1 33 -1q65 0 139 12q94 16 192 44q111 33 208 90.5t172 128t122 148.5
q47 79 57 155q2 19 2 37q0 57 -22 110q-30 71 -111 124q-47 31 -105.5 53.5t-123.5 38.5q-78 -111 -147.5 -228.5t-137 -237.5t-136.5 -239.5t-142 -234.5z" />
    <glyph glyph-name="Q" unicode="Q" horiz-adv-x="1540" 
d="M59 -270q2 20 15.5 45.5t36 47t52.5 37t64 15.5q90 0 168 -34t153 -87t153.5 -118.5t174 -129t214 -118t272.5 -82.5q60 -12 107 -12q41 0 71 8q68 20 96 63q23 34 23 77q0 12 -2 24q-8 59 -49 114t-113 99.5t-170 60.5q-16 2 -24.5 9t-9.5 14.5t6.5 12.5t21.5 3
q119 -18 205 -65.5t134 -107t57 -124.5q2 -13 2 -26q0 -49 -27 -90q-35 -52 -116 -87t-212 -35q-180 0 -312 42t-231.5 105.5t-174.5 137.5t-140.5 137.5t-131 105.5t-145.5 42q-18 0 -41.5 -7.5t-43 -19.5t-34 -29.5t-16.5 -40.5q-4 -31 -19.5 -24.5t-13.5 37.5zM172 1144
q10 111 71.5 203.5t164 156t231.5 85.5q133 23 246 23q80 0 149 -12q168 -27 282 -103t177 -190.5t79 -250.5q5 -48 5 -97q0 -91 -19 -187q-28 -147 -97.5 -288.5t-177 -268.5t-249.5 -219q-100 -66 -218 -100q-89 -25 -173 -25q-28 0 -55 3q-111 11 -203 74.5t-143 192.5
q-47 116 -47 245q0 27 2 54q12 158 72.5 306.5t156.5 275.5t209 210t231 108q35 7 69 7q78 0 148 -40q23 -12 13.5 -23.5t-29.5 -5.5q-30 9 -63 9q-53 0 -112 -25q-95 -41 -187.5 -127t-174 -205t-137 -251t-75.5 -265q-8 -51 -8 -99q0 -78 20 -149q37 -127 112.5 -186.5
t171.5 -66.5q15 -1 29 -1q84 0 177 35q108 41 210 119q180 135 284.5 306t137.5 345q16 82 16 162q0 89 -20 175q-37 163 -139.5 281.5t-269.5 178.5q-112 40 -251 40q-67 0 -141 -10q-121 -16 -206 -69.5t-133 -135.5t-58 -187q-3 -28 -3 -56q0 -80 21 -168
q8 -35 -10 -44.5t-39 31.5q-48 100 -48 195q0 17 1 34z" />
    <glyph glyph-name="R" unicode="R" horiz-adv-x="2097" 
d="M48 82q-10 27 -9 54q1 30 11 58q20 56 77 93t147 45q15 1 31 2q79 0 178 -35q29 -10 22 -22.5t-34 -2.5q-65 25 -117 25q-14 0 -26 -2q-60 -8 -96 -39q-38 -31 -50 -77q-6 -22 -6 -43q0 -23 8 -45q14 -42 54.5 -73.5t111.5 -35.5q12 -1 24 -1q121 0 224 55
q113 60 210 164.5t183 241t168 281.5q61 109 121.5 218.5t120 210.5t120 191.5t124.5 159.5q-111 10 -229 10q-66 0 -134 -3q-190 -9 -399 -54q-131 -27 -233.5 -75t-175.5 -108.5t-117 -129t-58 -133.5q-7 -34 -6 -64q0 -32 7 -59q15 -53 49 -89t83 -54q42 -16 88 -17
q8 0 16 1q54 3 107 26.5t98 70.5q39 41 57.5 77t20.5 57q2 18 6 23t9.5 2t8.5 -12t3 -18q-14 -98 -80 -165q-51 -55 -115.5 -84t-130.5 -33q-11 -1 -22 -1q-54 -1 -106 17q-62 20 -108 62t-72 108q-19 49 -19 109q0 21 2 43q8 82 56 166t138 157.5t220 129t300 79.5
q215 31 407 33h29q177 0 345 -23q33 37 52 48.5t26.5 6.5t6.5 -22.5t-10 -42.5q55 -10 105.5 -18t97.5 -21q139 -41 213 -103q73 -60 89 -130q4 -20 5 -41q0 -49 -27 -103q-38 -74 -123 -140t-213 -118.5t-290 -78.5q-59 -10 -106.5 -13.5t-81.5 -5.5q4 -23 18 -87
t42 -151.5t69 -185.5t98 -186q39 -59 78 -99q39 -39 82 -55q22 -8 44.5 -8t45.5 8q47 16 102 70q37 37 69 83t57.5 90t44 80t26.5 52q14 27 31.5 30t3.5 -30q-10 -23 -32 -69t-50.5 -100t-61.5 -106.5t-65 -89.5q-95 -103 -213 -103h-2q-119 1 -219 105q-70 74 -122.5 177.5
t-88 209t-57 198.5t-29.5 143q-74 -145 -155 -288t-206 -280q-135 -148 -300 -212q-123 -48 -254 -48q-45 0 -91 6q-109 12 -170 56.5t-81 99.5zM1348 825q59 10 121.5 13.5t136.5 13.5q106 14 200.5 55t165 97.5t112.5 123t44 128.5v6q0 59 -42 109q-44 52 -144 83
q-45 12 -95.5 20.5t-105.5 18.5q-96 -170 -200.5 -329.5t-192.5 -338.5z" />
    <glyph glyph-name="S" unicode="S" horiz-adv-x="1845" 
d="M-4 332q-1 10 -1 20q-1 66 23 138q26 84 73.5 163.5t113 145t141.5 100.5q10 4 24.5 7t21.5 1t3 -11t-28 -28q-41 -33 -77 -70.5t-65 -82.5q-55 -86 -83.5 -185.5t-30.5 -197.5q0 -4 -1 -9q0 -121 55 -208q56 -90 148.5 -146.5t212.5 -80.5q103 -21 210 -22q18 0 36 1
q127 4 252 33.5t227 83.5q129 68 219 163q88 95 124 196q22 62 22 123q0 38 -8 76q-22 98 -115 175q-47 39 -118.5 72.5t-149.5 66.5t-154 66.5t-133 72.5q-114 76 -142 166q-12 40 -13 80q0 49 19 96q34 86 119 158t197 113q76 27 168 42t182 17h26q76 0 146 -10
q80 -12 136 -39q55 -27 90 -70t46 -90q4 -19 4 -38q0 -29 -10 -58q-16 -49 -63 -88q-51 -41 -137 -66q-20 -6 -30.5 -1t-10.5 13.5t13.5 16.5t37.5 12q63 8 96 50q30 38 30 87v8q-3 54 -43 107q-41 53 -119 84q-74 29 -184 29h-15q-121 -2 -285 -62q-92 -33 -160 -89
q-66 -55 -90 -123q-10 -30 -11 -61q1 -39 17 -79q30 -72 133 -135q47 -29 107.5 -56.5t125 -57t129 -61.5t122.5 -67q104 -63 153.5 -137t56.5 -152q1 -14 1 -27q0 -64 -26 -128q-32 -78 -89 -150.5t-135 -138t-164 -117.5q-117 -70 -260 -109q-142 -40 -292 -48
q-37 -2 -74 -3q-112 0 -220 20q-144 26 -257 88.5t-186 163.5t-81 247z" />
    <glyph glyph-name="T" unicode="T" horiz-adv-x="1880" 
d="M66 320q-4 33 -4 69q0 103 38 225q23 72 67 122t87 76q41 25 70 25h2q30 -1 26 -34q-12 -16 -41.5 -34.5t-63.5 -49.5t-63.5 -78t-42.5 -121q-9 -54 -9 -104q0 -46 8 -89q16 -89 59 -161t106.5 -125t139 -90t156.5 -55q73 -16 145 -16q8 0 16 1q121 2 222 26.5t187 65.5
t157 96.5t130 118.5q61 68 124 167.5t123 213t114.5 230t101.5 217t82 175.5t57 103q-162 51 -309 78t-311 35q-19 1 -38 1q-124 0 -225 -35q-116 -40 -198 -105.5t-129 -148.5t-53 -159q-1 -11 -1 -23q0 -63 30 -117q34 -62 114 -87q52 -17 98 -18q37 0 70 12q74 25 125 71
t75.5 95t22.5 72v4q16 14 28.5 9t12.5 -26q-10 -82 -55 -143t-109.5 -98t-140.5 -45q-19 -2 -38 -3q-56 0 -109 19q-104 37 -161 117t-65 178q-1 16 -1 31q0 84 35 170q42 102 132 182t232 124q102 32 230 32q50 0 103 -5q92 -8 189.5 -31.5t187.5 -51t166 -54t125 -41.5
q6 8 24.5 28.5t41 42t46 38t40.5 16.5h-2q25 8 39 -3t17 -26.5t-7.5 -26.5t-34.5 -3q-6 6 -20.5 -3.5t-30 -22.5t-30.5 -29.5t-26 -26.5q43 -14 111 -33.5t142.5 -37t149.5 -31t135 -14.5h8q54 1 90 13q38 14 38 48q0 31 23 30q10 0 15 -17.5t5 -25.5q-1 -59 -67 -89
q-46 -21 -108 -21q-27 0 -56 4q-115 14 -203 33.5t-152.5 39t-104.5 36t-56 22.5q-92 -147 -149.5 -302t-112 -307.5t-122 -299t-180.5 -275.5q-82 -92 -198.5 -154.5t-250.5 -93.5q-133 -32 -275 -34h-13q-135 0 -258 31q-129 32 -236.5 95.5t-174 159.5t-84.5 226z" />
    <glyph glyph-name="U" unicode="U" horiz-adv-x="1929" 
d="M-5 676q-4 35 -4 71q1 76 19 160q28 123 102 249t201 246t314 222q176 98 353 124q54 8 103 7q115 0 211 -41q76 -33 120 -86q44 -52 62 -120q15 -56 16 -120q0 -14 -1 -28q-4 -80 -23 -164q-18 -80 -54 -172t-80 -188.5t-88 -193.5t-78 -192q-32 -94 -52 -182
q-14 -62 -15 -118q0 -23 3 -44q8 -80 49 -112q27 -21 62 -21q19 -1 41 5q62 18 141.5 85.5t163.5 190.5q51 74 99 162t92 175t83 166t70 136q35 59 65.5 83.5t48.5 24.5q38 -19 38 -57q-1 -34 -17 -74q-18 -43 -46 -91t-48 -95q-20 -43 -57.5 -132t-65.5 -200
q-23 -84 -37 -167q-13 -77 -13 -141v-10q1 -68 18 -108q16 -39 56 -39q2 0 4 -1q37 2 48.5 -5.5t5 -17.5t-24.5 -18.5t-43 -4.5q-72 12 -104.5 73.5t-40.5 143.5q-4 37 -4 75q0 47 6 95q10 88 22 154q-23 -39 -54.5 -87t-70.5 -97q-102 -131 -203.5 -199t-184.5 -76
q-12 -1 -24 -1q-68 0 -117 40q-58 47 -75 145q-4 26 -4 55q1 48 11 102q16 87 49.5 184.5t78.5 200t88 201.5t81 190t57 165q18 74 27 144q7 53 7 100q0 16 -1 30q-3 60 -21.5 104t-54.5 67q-63 39 -145 48q-31 3 -63 3q-53 0 -109 -8q-91 -14 -184 -49t-181 -87
q-154 -90 -261.5 -196.5t-173.5 -219.5q-66 -112 -92 -222q-21 -87 -20 -167q0 -21 1 -41q7 -98 46 -176.5t103.5 -126t152.5 -57.5q17 -2 35 -2q74 0 159 33q70 27 132.5 87t106.5 135t66 151q14 48 13 90q-1 24 -5 46q-12 58 -61 88q-28 17 -71 17q-33 0 -76 -10
q-41 -10 -49 -6t-2 12t20.5 17.5t20.5 11.5q71 31 125 31q25 -1 45 -7q66 -20 92 -80q20 -44 21 -104q0 -22 -3 -45q-10 -88 -56 -179t-127 -173t-194 -129q-101 -43 -189 -43q-13 0 -25 1q-99 7 -176 57t-125 134.5t-61 192.5z" />
    <glyph glyph-name="V" unicode="V" horiz-adv-x="1996" 
d="M-18 730q-1 15 -1 29q0 126 64 273q55 127 146.5 235.5t203 194.5t237.5 147.5t250 92.5q111 28 215 28h23q114 -4 205 -42q113 -48 157 -146q40 -89 40 -199v-20q-4 -121 -45 -254t-101 -254q-49 -100 -92 -206.5t-76.5 -210t-57.5 -195.5t-36 -162q-7 -45 -7 -77
q0 -30 6 -49q13 -40 46 -45q6 -1 12 -1q29 -1 69 19q48 24 101.5 63t107.5 88t101 95t82 83t47 53q82 96 155 204t123 218q49 110 73 216q15 67 15 128q0 37 -5 72q-6 39 -16.5 59.5t-22.5 29.5t-26.5 10t-32.5 5q-27 6 -40.5 18.5t-13.5 23t15.5 16.5t46.5 -2
q37 -10 84 -42t78 -90q32 -58 38 -142q1 -11 1 -22q0 -77 -37 -175q-49 -129 -126 -256t-169.5 -241t-193.5 -210t-199.5 -162.5t-186.5 -99.5q-65 -24 -117 -24q-19 0 -37 3q-99 18 -99 174q0 251 255 859q27 63 55.5 139t52 154.5t39 155.5t16.5 143v8q0 62 -16 109
q-16 50 -55 75q-83 51 -191 54h-18q-100 0 -206 -32q-116 -34 -235.5 -101.5t-223 -158t-184 -198t-121.5 -221.5q-54 -146 -54 -259v-21q6 -120 53.5 -199.5t125 -118.5t163.5 -39t171 42t151.5 109.5t108.5 152.5t42 169q0 41 -10 78t-31.5 61.5t-57.5 31.5q-12 2 -26 2
q-27 0 -61 -9q-23 -6 -33 -5t-10 6t9.5 13t23.5 14q58 27 107 27h12q53 -4 90 -31.5t57.5 -77t20.5 -106.5q0 -98 -57.5 -192.5t-144.5 -170t-192.5 -122t-201.5 -46.5q-106 0 -202.5 56.5t-157 158t-68.5 239.5z" />
    <glyph glyph-name="W" unicode="W" horiz-adv-x="2752" 
d="M-33 708q8 114 66 244q55 127 143 236.5t195.5 197t228.5 148.5t241 93q113 30 219 30h14q112 -2 202 -41q111 -48 155 -140q41 -85 41 -191v-17q-4 -116 -42.5 -243.5t-94.5 -250.5q-45 -102 -91 -218t-87 -228.5t-71.5 -214t-45.5 -174.5q-8 -41 -8 -69q0 -9 1 -16
q3 -32 18.5 -44.5t40 -8.5t55.5 23q61 37 125.5 107.5t129 159.5t126 189.5t120 197.5t110.5 184.5t97 148.5q39 55 74 75.5t55.5 9.5t23.5 -51v-11q0 -38 -17 -93q-20 -57 -51 -128.5t-63 -146.5t-57.5 -150.5t-33.5 -139.5q-5 -44 -5 -80q-1 -86 29 -130q42 -62 123 -63h3
q80 0 180 51q102 52 202.5 134t184.5 185.5t127 205.5q62 152 84 290q10 64 11 121q1 66 -13 120q-24 102 -96 156q-54 42 -137 42q-26 0 -56 -4q-48 -12 -72 -12q-9 0 -15 2q-18 8 -4 24q15 14 50 28q23 9 46 9q12 0 23 -2q13 1 26 1q83 0 159 -45q88 -52 139 -156.5
t53 -254.5q0 -5 1 -10q0 -147 -72 -327q-51 -133 -148.5 -247t-213.5 -197q-117 -83 -237 -127q-105 -38 -195 -38h-27q-102 6 -170 71t-78 200q-1 18 -1 36q0 57 10 117q13 78 32 140q-29 -47 -74 -115t-99.5 -140.5t-117 -146t-127 -132t-128 -96.5t-118.5 -40
q-31 -2 -58.5 7t-48 34t-30.5 67q-7 30 -7 71q0 16 1 34q10 129 79.5 329.5t186.5 477.5q27 63 54.5 139t52 155t41 155.5t18.5 142.5v15q0 59 -14 103q-16 50 -56 74q-84 52 -188 54h-14q-98 0 -204 -35q-112 -37 -223.5 -106.5t-211 -162t-176.5 -201t-120 -222.5
q-61 -164 -62 -284q1 -21 3 -40q12 -131 76 -204t164 -88q29 -4 58 -4q71 0 144 26q72 27 132.5 86t102.5 133q43 73 61 149q11 45 11 85q1 28 -5 52q-12 60 -60 92q-33 22 -86 21q-24 0 -51 -4q-47 -8 -43 7.5t39 25.5q68 21 120 21q35 1 65 -9q72 -24 100 -84
q22 -44 23 -103q0 -20 -3 -42q-10 -86 -59.5 -174t-137.5 -170t-213 -136q-70 -29 -144 -29h-20q-84 4 -157.5 40.5t-131 102t-85.5 156.5q-22 71 -23 156q0 24 2 49z" />
    <glyph glyph-name="X" unicode="X" horiz-adv-x="1652" 
d="M-248 -425q2 30 37 79q121 168 265.5 324.5t302 301t325.5 276.5t336 253q1 49 1 97q0 96 -3 186q-4 136 -27 231q-18 78 -60 118q-43 40 -101 51q-26 5 -53 5q-35 0 -71 -8q-66 -14 -135 -45q-43 -20 -84 -51t-79.5 -67t-76.5 -75t-75 -75q-4 -4 -15.5 -2t-20.5 9
t-11 21.5t14 36.5q8 10 55.5 53t120 94.5t162.5 102.5q89 51 183 79q77 24 151 24q15 0 30 -1q87 -6 152 -67q27 -25 44.5 -83.5t27.5 -139t14 -181t4 -207.5q154 106 291 197.5t255 172.5t215 154.5t171 145.5q57 57 107 86q48 28 71 28h1q24 -1 10.5 -32t-76.5 -94
q-57 -55 -159.5 -129t-239 -166t-300 -201.5t-344.5 -238.5q-2 -106 -3 -214v-53q0 -79 2 -150q3 -95 9.5 -173t18.5 -125q36 -131 104 -162q28 -13 58 -13q44 0 92 27q82 45 165 154t148 258q6 12 15.5 19.5t17.5 7.5t9 -9.5t-7 -27.5q-113 -236 -235.5 -369t-230.5 -172
q-47 -17 -89 -17q-55 -1 -102 29q-82 52 -111 187q-8 37 -11 106.5t-3 161.5t2 201.5t4 226.5q-162 -117 -318.5 -241.5t-301 -259t-271.5 -277.5t-225 -299q-41 -66 -77 -92.5t-56.5 -21.5t-18.5 35z" />
    <glyph glyph-name="Y" unicode="Y" horiz-adv-x="1964" 
d="M43 774q12 111 76 240q59 125 153.5 233.5t207 196.5t236.5 151.5t246.5 96t235.5 32.5t203 -41q113 -51 158 -142q39 -80 39 -175v-28q-7 -111 -53 -235t-115 -241q-51 -88 -102.5 -182t-94.5 -186.5t-76 -177.5t-47 -154q-10 -44 -10 -79q0 -38 12 -65q21 -51 66 -66
q21 -7 46 -7q28 0 60 9q62 17 121 60q94 68 180 188t154.5 253t118 259t73.5 206q2 12 15.5 28.5t31 26.5t34 11t27.5 -17.5t10 -61.5t-17 -119q-27 -119 -66 -260t-87 -283.5t-101.5 -274.5t-110.5 -232q76 0 147.5 2t133 8t110.5 16.5t78 26.5q33 18 58.5 33.5t42 32
t24.5 37t8 49.5q-4 23 4.5 31t20.5 -33q3 -11 3 -24q0 -34 -23 -81q-33 -63 -128 -104q-41 -16 -96 -25.5t-120.5 -13.5t-140.5 -6t-153 -2q-104 -156 -256.5 -266.5t-310.5 -170.5q-133 -51 -250 -59q-31 -2 -59 -2q-80 0 -143 17q-85 22 -133 67q-47 44 -47 100
q0 59 59 120q59 60 188 114q104 43 214 68.5t221.5 40t225 18.5t224.5 4q80 199 152.5 392.5t127.5 399.5q-29 -63 -70.5 -140t-95 -153.5t-116 -145.5t-133.5 -118q-78 -53 -167 -71q-41 -9 -79 -9q-43 0 -82 11q-72 22 -114 88q-30 48 -30 121q0 29 5 63q10 76 42.5 163
t75.5 175t90.5 171t90.5 153q68 111 121 233.5t77 230.5q18 76 18 141q0 28 -4 54q-10 86 -69 123q-82 53 -189 56h-16q-99 0 -206 -32q-115 -36 -233 -104t-221.5 -159t-187.5 -198.5t-131 -219.5q-53 -127 -64 -227q-4 -40 -4 -76q0 -55 10 -102q17 -77 61 -127
t102.5 -75.5t125.5 -26.5h5q64 0 129 23q72 27 136.5 86.5t112.5 134t73 151.5q22 64 22 117q0 11 -1 21q-5 60 -48 92q-29 22 -78 22q-24 0 -53 -5q-27 -6 -36 -3t-6 9t13 12t25 10q57 15 101 15q40 0 69 -12q61 -27 80 -88q10 -30 10 -66q0 -37 -10 -81
q-21 -85 -75.5 -172t-141.5 -165t-201 -125q-74 -31 -148 -31h-17q-83 4 -156 41t-127 102.5t-78 156.5q-17 60 -17 130q0 35 4 72zM555 -672q8 -35 53 -56.5t114 -27.5q24 -2 49 -2q48 0 103 8q82 11 164 41q137 51 273.5 149t228.5 245q-104 0 -209.5 -7.5t-210 -26
t-204 -51t-191.5 -85.5q-100 -57 -139 -105q-32 -39 -32 -70q0 -6 1 -12z" />
    <glyph glyph-name="Z" unicode="Z" horiz-adv-x="1386" 
d="M28 154q12 48 47.5 81t94.5 47q22 5 47 4q43 0 98 -14q47 -12 117 -45.5t176 -101.5q152 178 287 336q57 68 116.5 137.5t114 134t99.5 118.5t75 91q43 51 95.5 106.5t109 112t115.5 110.5t117 101q-90 25 -201 46q-110 22 -226 32q-89 8 -175 8q-25 0 -51 -1
q-110 -3 -203 -27q-66 -16 -129.5 -55.5t-98.5 -90.5q-28 -40 -27 -84q0 -12 2 -24q10 -56 89 -109q27 -18 29 -27.5t-7.5 -12.5t-24 -2t-22.5 3q-12 4 -35.5 19.5t-46.5 42.5q-43 48 -53 122q-2 15 -2 30q0 59 31 119q39 75 139 133t279 73q32 3 65 3q63 0 129 -10
q100 -16 200.5 -41.5t196 -57t181.5 -58.5q63 49 121.5 85t105.5 52q43 16 80 16q17 0 33 -4q50 -10 72 -40q16 -21 16 -49q0 -11 -2 -23q-8 -43 -60 -86q-41 -36 -112 -36q-10 0 -22 1q-87 6 -198 35q-55 -51 -121.5 -131t-136 -171t-137 -181.5t-125.5 -161.5
q-88 -109 -178 -201t-174 -169t-158.5 -138.5t-130.5 -106.5q160 -70 307 -127q63 -25 129 -50.5t129.5 -47t119 -37.5t96.5 -25q57 -12 149 -15h27q78 0 153 14q88 18 157 64t81 134q4 25 13 39t18.5 13t14.5 -20.5t1 -62.5q-4 -29 -22.5 -78t-71 -97t-145.5 -84t-242 -38
h-12q-52 0 -117 14q-72 16 -150 44t-160 63t-157 72q-178 86 -369 197q-134 -96 -236 -127q-67 -20 -122 -20q-28 0 -52 5q-63 14 -103 52q-41 38 -55 84q-8 26 -8 52q1 21 6 42zM164 20q43 -36 126 -36h17q35 2 73 11t72.5 23.5t64 32t52.5 35.5q-12 10 -22 18t-20.5 15.5
t-18.5 13.5q-125 70 -209 80q-20 2 -38 2q-64 1 -100 -27q-45 -35 -45 -81q0 -47 48 -87zM1841 1384q87 -25 155 -32q15 -2 29 -2q48 0 80 20q23 14 32 39t6 49.5t-18.5 42t-41.5 17.5q-47 0 -108.5 -37t-133.5 -97z" />
    <glyph glyph-name="backslash" unicode="\" horiz-adv-x="1775" 
d="M41 1544q16 45 60 59.5t87 14.5q86 0 175.5 -48t179.5 -128t177 -182.5t167 -208.5q106 -143 205.5 -282.5t202 -276t212 -269.5t234.5 -262q6 -8 11 -14t7 -17l-14 -12q-70 20 -161 102t-195.5 201t-218 264.5t-229.5 294t-229.5 288.5t-217 249.5t-193.5 175.5t-160 66
q-23 0 -43 -11.5t-43 -17.5z" />
    <glyph glyph-name="a" unicode="a" horiz-adv-x="716" 
d="M53 226q10 74 50 163.5t118 181.5q45 55 109 95q66 39 132 55q38 9 74 9q28 0 54 -5q62 -12 106 -59q23 -23 13.5 -43.5t-35.5 -16.5q-16 58 -66 70q-15 4 -30 3q-37 0 -78 -22q-70 -39 -143.5 -119.5t-129.5 -172.5q-6 -10 -18 -33t-25.5 -52.5t-25 -61.5t-15.5 -60
q-3 -18 -3 -33q0 -29 10 -45q16 -25 43.5 -25t64.5 23.5t74 66.5q53 66 97 138.5t85 148.5q34 66 62 100q25 31 67 31h10q20 -2 42 -7t44 -1q-16 -16 -43.5 -60t-57.5 -100.5t-54.5 -116t-34.5 -106.5q-9 -44 -9 -72q0 -51 29 -51h3q32 0 69 39q39 41 77 98.5t68.5 115.5
t47.5 91q14 27 28 21t0 -37q-23 -47 -56.5 -110.5t-74.5 -123t-87 -101.5t-91 -46q-25 -2 -53.5 9t-47 41t-21.5 82v12q0 49 20 120q-25 -41 -64 -95t-84 -97q-59 -58 -109 -68q-15 -3 -29 -3q-33 1 -57 19q-34 26 -50 80q-9 34 -9 75q0 26 4 55z" />
    <glyph glyph-name="b" unicode="b" horiz-adv-x="706" 
d="M-52 81q-7 11 3 25q35 45 80 124t95 174.5t104.5 202t107.5 209t103.5 193t95.5 156.5q71 101 136 101h1h10q20 -2 42 -7.5t44 -1.5q-29 -29 -83 -101.5t-118.5 -167.5t-131 -203.5t-118.5 -211.5q-39 -78 -71 -165q-32 -86 -46 -163q-7 -40 -7 -74q-1 -31 5 -57
q12 -54 66 -65l14 -2q65 0 162 119q43 51 85 121.5t69 132.5q20 51 28 98q5 25 5 47q1 20 -3 37q-8 36 -34 56q-21 16 -58 17q-8 0 -16 -1q-23 -2 -34 6t-9 17.5t19.5 16.5t52.5 1q55 -8 92 -36t56.5 -68t22.5 -88q1 -11 1 -22q0 -37 -8 -75q-14 -66 -44 -131.5t-73 -122.5
t-98.5 -99t-118.5 -59q-66 -19 -116 -19q-17 1 -33 3q-60 8 -94 39t-44 79q-4 20 -4 41q0 30 8 62q12 47 36 104.5t54 120.5q-35 -68 -67.5 -127t-60 -107t-51 -82t-38.5 -48q-12 -10 -19 1z" />
    <glyph glyph-name="c" unicode="c" horiz-adv-x="532" 
d="M73 200q3 60 22.5 123.5t51 125t68.5 110.5q57 78 129 120t145 42q78 0 114 -39q29 -32 29 -80q0 -11 -1 -22q-4 -25 -19.5 -51.5t-36 -45t-43 -23.5t-38.5 11q16 20 35.5 48t27.5 56q7 27 7 47q0 18 -6 30q-13 24 -42 24t-57.5 -16.5t-58 -41t-56.5 -56.5t-47 -62
q-14 -20 -33.5 -55t-37 -77t-30 -89.5t-12.5 -92.5q0 -61 28 -109t93 -48q68 0 120 33.5t95 86t78 116t66 124.5q14 29 28 23t0 -37q-37 -80 -73.5 -149.5t-83 -122t-106.5 -82t-144 -29.5q-80 0 -127 28q-48 29 -68 75q-18 40 -17 91v14z" />
    <glyph glyph-name="d" unicode="d" horiz-adv-x="751" 
d="M62 242q18 84 63 173t100 156q43 49 97 86t112 55q48 15 96 16q10 0 21 -1q59 -4 115 -37q74 141 137 271.5t100 214.5q29 70 59 90q25 17 64 17q8 0 16 -1q20 -2 42.5 -7t45.5 -1q-14 -14 -52 -74.5t-88 -147.5t-108.5 -193.5t-112.5 -213t-102.5 -205t-76.5 -168.5
q-8 -18 -20.5 -54t-17.5 -72q-2 -13 -2 -25q0 -22 6 -40q9 -28 46 -28q39 0 79 41t76 96.5t64.5 112.5t44.5 90q12 29 28.5 24t2.5 -36q-18 -43 -49 -107.5t-74 -126t-95 -104.5t-114 -43q-25 0 -48 13.5t-44 41.5q-15 27 -25 72q-3 16 -4 35q0 33 11 74
q-23 -37 -52.5 -83.5t-66.5 -82.5t-82 -56q-26 -11 -55 -12q-21 0 -43 6q-72 20 -92 85q-10 34 -10 74q0 35 8 75zM157 166q-1 -11 -1 -20q0 -50 22 -72q13 -12 32 -12q20 0 47 14q52 26 118 119q57 80 129.5 203.5t144.5 258.5q-26 25 -61 25q-16 0 -35 -6
q-57 -18 -119.5 -69.5t-121 -126t-99.5 -150.5q-51 -96 -56 -164z" />
    <glyph glyph-name="e" unicode="e" horiz-adv-x="503" 
d="M63 188q0 45 11.5 96.5t33 101.5t50 97t63.5 88q39 45 86 82t94.5 56.5t91.5 19.5t78 -24q29 -23 34 -58q1 -8 1 -17q0 -28 -12 -60q-16 -42 -51 -85t-84 -79q-25 -18 -58.5 -35t-70.5 -29t-70 -19.5t-53 -7.5q-11 -29 -21 -75q-7 -35 -8 -71q0 -11 1 -21
q3 -46 24.5 -79.5t72.5 -33.5q68 0 122.5 40t96.5 95t71.5 114.5t47.5 100.5q6 14 15.5 21.5t16.5 7.5t10 -7.5t-5 -23.5q-29 -61 -61.5 -130t-77.5 -127t-105.5 -96t-146.5 -38q-78 0 -136 49t-61 147zM221 350q14 0 39 5t55.5 16.5t62 28.5t60.5 40q41 35 69 78t38 80
t4 61.5t-30.5 23.5t-67.5 -33t-107 -107q-41 -49 -74.5 -106.5t-48.5 -86.5z" />
    <glyph glyph-name="f" unicode="f" horiz-adv-x="405" 
d="M-240 -606v11q0 46 14 109q17 70 45.5 156t67.5 184.5t84 204.5q-16 25 -21 52.5t-2 53t13 46t25 31.5q28 23 58 23q8 0 15 -1q55 125 111.5 247t111 235.5t104.5 213t93 179.5q35 66 72 104.5t102 38.5q18 0 42.5 -7t47.5 -3q-49 -45 -119.5 -150.5t-151.5 -249
t-167 -313.5t-162 -342q20 -25 38 -62.5t28 -91.5q2 -6 3 -13t3 -13h9l81 33q45 36 85 91.5t74 120t58 117.5q10 20 25.5 14.5t5.5 -28.5q-29 -66 -63.5 -133.5t-76.5 -124.5t-90.5 -93t-103.5 -36q2 -29 2 -58q0 -84 -17 -176q-22 -124 -69 -231.5t-117 -178.5
q-65 -67 -142 -67h-9q-43 2 -74 23.5t-33 83.5zM-129 -613q4 -40 24.5 -45.5t50 18.5t60.5 65q37 49 68.5 117.5t55.5 145t36 155.5q10 68 10 127v20q-9 -1 -18 -1q-23 0 -46 7q-34 10 -55 27q-53 -135 -99 -269.5t-71 -236.5q-17 -75 -17 -115q0 -8 1 -15zM78 68
q10 -16 31.5 -27.5t50.5 -11.5h12q-4 51 -18 92q-12 27 -31 49q-12 -29 -22.5 -51.5t-22.5 -50.5z" />
    <glyph glyph-name="g" unicode="g" horiz-adv-x="802" 
d="M-165 -355q52 58 126 101q76 45 147.5 76t140 55.5t133 45t124.5 44.5q18 53 29.5 109.5t17.5 118.5q6 59 6 105t-4 62q-25 -47 -67 -115.5t-94 -128t-112 -94.5q-39 -22 -78 -22q-21 0 -42 6q-78 33 -98 100q-10 34 -10 72q0 36 10 75q18 81 64 165t103 151
q45 55 103.5 93t121.5 54q38 9 75 9q27 0 53 -5q65 -11 123 -56q27 -23 29.5 -43.5t-6.5 -31.5t-23.5 -9t-22.5 24q-20 55 -56 70q-17 7 -37 7q-21 0 -44 -9q-45 -15 -95.5 -53.5t-97.5 -90.5q-55 -63 -102 -137t-72 -141q-25 -63 -25 -112v-4q1 -50 42 -68q14 -6 29 -6
q34 0 72 28q56 39 108.5 105.5t93.5 140.5t55 123q10 35 26.5 49t35 18t36 4t29.5 11q15 -91 15 -184q0 -32 -2 -65q-7 -126 -40 -249q37 27 75 59.5t69 73.5q51 68 76.5 128.5t42.5 88.5q14 27 29 21t1 -37q-39 -80 -71.5 -143.5t-68.5 -111.5t-77 -84t-98 -63
q-35 -96 -99.5 -205.5t-151.5 -201.5t-191.5 -153.5t-215.5 -61.5q-192 0 -192 156q0 78 52 136zM-169 -492q-4 -16 -4 -30q0 -28 15 -50q21 -34 84 -34q33 0 71 11t72.5 27.5t65.5 35t49 32.5q47 39 94.5 91.5t90.5 109.5q75 107 116 207q-16 -6 -34.5 -12.5t-36.5 -12.5
q-113 -39 -233 -85t-218 -111q-49 -33 -85 -83t-47 -96z" />
    <glyph glyph-name="h" unicode="h" horiz-adv-x="679" 
d="M-82 -14q61 129 130 270t139.5 285.5t145.5 290t148 282.5q35 66 66 100q28 30 70 29h10q20 -2 41.5 -7t44.5 -1q-23 -23 -59 -78t-80 -130t-94 -166t-101 -187t-100.5 -192.5t-90.5 -182.5q41 53 83 99t83 81q37 33 91.5 71t109.5 68t103 46q33 11 56 11q11 0 19 -3
q-61 -111 -112 -211q-23 -43 -44.5 -88t-40 -87t-31.5 -79t-18 -64q-6 -32 -6 -54q-1 -21 5 -31q12 -22 32 -23h3q34 0 74 41q42 43 81 103.5t70.5 121.5t48.5 94q14 29 29 21t-1 -41q-25 -53 -58.5 -120t-75.5 -125t-91 -98t-106 -40q-27 0 -55.5 10t-48.5 38t-24 74
q-1 8 0 16q0 42 19 101q12 41 41 93.5t72 121.5q18 31 20 53.5t-15.5 26.5t-54 -16.5t-96.5 -75.5q-53 -47 -125.5 -141t-161.5 -264q-10 -23 -26.5 -27t-48.5 -4q-23 -2 -38.5 -2t-31.5 -10z" />
    <glyph glyph-name="i" unicode="i" horiz-adv-x="356" 
d="M43 179q6 46 23 87l131 334q12 29 -1.5 53.5t-19.5 32.5l113 2q49 0 54 -17.5t-11 -54.5l-164 -383q-4 -14 -10 -24q-4 -10 -8.5 -20.5t-6.5 -14.5q-9 -34 -9 -62q0 -14 2 -26q7 -37 50 -41q23 -4 49.5 9.5t43.5 29.5q51 51 100 137t92 172q12 29 26.5 21t0.5 -39
q-20 -43 -51 -106.5t-73 -124t-91.5 -102.5t-106.5 -42t-88 26.5t-41 66.5q-6 25 -6 52q0 17 2 34zM262 856q6 35 35 59.5t63 24.5q35 0 56.5 -24.5t15.5 -59.5t-34.5 -59.5t-63.5 -24.5t-55.5 24.5t-16.5 59.5z" />
    <glyph glyph-name="j" unicode="j" horiz-adv-x="362" 
d="M-807 -484q6 44 29 87q29 57 81 98t111 70q104 49 238.5 80.5t259.5 66.5q16 29 33.5 59.5t31.5 59.5q18 37 38 78t39.5 79.5t37 74.5t29.5 63q-10 0 -19.5 6t0.5 27l109 235q14 29 0 53.5t-21 32.5l113 2q49 0 54 -17.5t-11 -54.5l-164 -383q-29 -68 -60.5 -135
t-66.5 -135q45 18 85 34.5t77 39t71 55.5t68 84q49 72 78 131.5t45 87.5q14 27 28.5 20t0.5 -38q-53 -106 -94 -180t-91.5 -127.5t-121 -93t-181.5 -78.5q-49 -86 -111.5 -182.5t-140 -177.5t-174 -133t-208.5 -52q-78 0 -121 22.5t-61 59.5q-13 28 -13 59q0 11 2 22z
M-752 -474q-8 -26 -8 -48q0 -24 10 -45q21 -39 86 -39q68 0 140.5 42t139.5 101.5t122 125t90 114.5q12 16 23.5 36t21.5 40q-49 -12 -105.5 -26.5t-112.5 -31t-109.5 -34t-96.5 -35.5q-80 -35 -131 -90.5t-70 -109.5zM262 856q6 35 35 59.5t63 24.5q35 0 56.5 -24.5
t15.5 -59.5t-34.5 -59.5t-63.5 -24.5t-55.5 24.5t-16.5 59.5z" />
    <glyph glyph-name="k" unicode="k" horiz-adv-x="743" 
d="M-52 81q-7 11 3 25q35 45 80 124t95 174.5t104.5 202t107.5 209t103.5 193t95.5 156.5q71 101 136 101h1h10q20 -2 42 -7.5t44 -1.5q-39 -31 -95.5 -102.5t-117.5 -166.5t-123.5 -203.5t-114.5 -211.5q-20 -41 -38.5 -84t-34.5 -90q33 39 71.5 83t82.5 84t89.5 72
t90.5 48q67 25 110 25q21 1 36 -5q48 -18 53 -62q1 -6 1 -12q0 -40 -28 -90q-32 -58 -88 -98q-47 -33 -93.5 -53t-113.5 -26q-23 -58 -24 -119q0 -15 2 -29q7 -76 42 -123t93 -49h2q56 0 126 74q39 41 81 115.5t85 164.5q12 25 24.5 16t2.5 -34q-61 -139 -115.5 -220
t-104.5 -121q-51 -40 -97 -48q-31 -5 -61 -5q-15 0 -30 1q-55 6 -98 50t-59 124q-6 27 -6 53q0 20 4 39q8 43 24.5 73.5t37 49t36.5 20.5q6 -1 13 -1q30 0 68 16q46 18 81 47q49 39 57 80q2 10 2 18q-1 27 -21 40q-14 9 -36 9q-20 0 -50 -8q-60 -16 -149 -92
q-41 -35 -84 -81t-84 -106q-14 -27 -29.5 -75.5t-25.5 -99t-12 -92.5t10 -52h-129q-23 0 -23 12.5t6 32.5q29 106 75 199.5t93 199.5q-35 -68 -67.5 -127t-60 -107t-51 -82t-38.5 -48q-12 -10 -19 1z" />
    <glyph glyph-name="l" unicode="l" horiz-adv-x="434" 
d="M69 152q1 43 9 88t20.5 87t20.5 72q25 86 59.5 182.5t75.5 191.5t86 185.5t90 163.5q54 92 116 132q46 30 82 30q11 0 21 -3q41 -13 48 -81q1 -8 1 -15q0 -65 -49 -175q-72 -160 -170 -319t-250 -296q-8 -27 -20 -61.5t-23 -73.5q-14 -56 -14 -97q0 -27 6 -49
q14 -54 50 -68q15 -6 31 -6q23 0 51 12q46 22 87 79q25 37 48.5 74t43 71.5t35 64.5t25.5 50q14 27 29.5 24t1.5 -34q-18 -41 -49 -106.5t-75 -127t-103.5 -106.5t-137.5 -45q-57 0 -89 21.5t-45 56.5q-12 32 -12 72v6zM246 461q55 55 108.5 125.5t102.5 147.5t89.5 155.5
t71.5 150.5q14 35 24 76q8 32 9 53q0 5 -1 11q-3 24 -21.5 18t-59.5 -65q-37 -53 -84 -141.5t-92 -185.5t-84 -190.5t-63 -154.5z" />
    <glyph glyph-name="m" unicode="m" horiz-adv-x="1038" 
d="M-76 -10q74 147 138.5 288.5t140.5 280.5q39 75 67 103q27 27 72 26h6q20 -2 42 -7t44 -1q-23 -12 -54.5 -53t-65 -96.5t-67.5 -118t-61 -117.5q31 39 77 91t93 93q37 33 79 71t82 67.5t76 46t62 8.5q29 -10 37 -35t-6 -55q-29 -66 -71 -138.5t-78 -148.5q31 39 76.5 91
t93.5 93q37 33 91 71t110 68q55 30 104 46q33 11 55 11q11 0 18 -3q-61 -111 -112 -211q-23 -43 -43.5 -88t-39 -87t-31.5 -79t-19 -64q-5 -29 -5 -48q0 -25 7 -35q12 -20 32 -19q39 0 82 42t82 99.5t70 117.5t47 95q12 27 27.5 20t1.5 -38q-23 -47 -56.5 -112.5t-76.5 -126
t-95.5 -103.5t-109.5 -43q-29 0 -57.5 10t-48 38t-23.5 74q-1 7 -1 15q0 42 19 102q12 41 41 93.5t72 121.5q18 31 20 53.5t-15 26.5t-54 -16.5t-97 -75.5q-33 -31 -78.5 -85t-88.5 -116.5t-77 -125t-44 -107.5q-34 0 -54 34q-14 24 -14 54q0 12 2 25q10 68 35 122t51 111
q26 50 46 100q20 47 19 70q0 26 -34 10q-33 -16 -113 -92q-53 -47 -123.5 -139t-158.5 -260q-10 -23 -26.5 -28t-51.5 -5q-23 -2 -37 -2t-31 -10z" />
    <glyph glyph-name="n" unicode="n" 
d="M-80 -14q74 147 140.5 290.5t142.5 282.5q39 75 67 103q27 27 72 26h6q20 -2 42 -7t44 -1q-23 -12 -54.5 -53t-65 -96.5t-67.5 -118t-61 -117.5q31 39 77 91t93 93q37 33 91.5 71t109.5 68t103 46q33 11 56 11q11 0 19 -3q-61 -111 -112 -211q-23 -43 -44.5 -88t-40 -87
t-31.5 -79t-18 -64q-6 -31 -6 -51q1 -22 7 -32q12 -20 32 -19q39 0 82 43t82 101.5t69.5 117.5t47.5 92q12 27 27 20t1 -38q-23 -47 -56.5 -112.5t-76.5 -126t-94 -103.5t-110 -43q-27 0 -55.5 10t-48.5 38t-24 74q-1 8 0 16q0 42 19 101q12 41 41 93.5t72 121.5
q18 31 20 53.5t-15.5 26.5t-54 -16.5t-96.5 -75.5q-53 -47 -125.5 -141t-158.5 -264q-12 -23 -28.5 -27t-49.5 -4q-23 -2 -38 -2t-32 -10z" />
    <glyph glyph-name="o" unicode="o" 
d="M66 238q10 66 38 135q31 70 76 133t97.5 110.5t107.5 75.5q51 26 102 26q4 0 7 -1q57 0 92 -33t46 -86q6 -28 5 -59q0 -29 -4 -61q-10 -66 -39 -134q-23 -53 -68 -119.5t-104 -122.5q27 -51 96 -51q49 0 93 41t81 98.5t65.5 117t47.5 95.5q8 16 24.5 10.5t6.5 -28.5
q-12 -29 -40 -90.5t-69 -122.5t-95 -108.5t-118 -47.5q-47 0 -79 15.5t-52 38.5q-43 -32 -88 -52q-41 -18 -82 -18h-8q-59 2 -93 35t-46 85q-6 27 -6 58q1 28 6 60zM176 160l-2 -24q0 -30 8 -51q10 -30 39 -38q10 -3 22 -3q21 0 44 10q37 14 73 44q-16 25 -24 51.5t-8 49.5
q2 35 17 61.5t54 26.5q27 0 44.5 -18.5t17.5 -43.5q0 -6 -1 -11t-3 -11q35 51 63 110q31 63 47.5 121t18.5 103v13q0 38 -10 62q-12 30 -39 37q-11 3 -22 3q-24 0 -50 -12q-39 -17 -78 -55t-76 -90.5t-65 -113.5q-31 -63 -48.5 -119.5t-21.5 -101.5z" />
    <glyph glyph-name="p" unicode="p" horiz-adv-x="688" 
d="M-297 -545q12 12 47 70.5t80 143.5t96 185.5t95.5 196.5t76 177t41.5 128q-16 -27 -36.5 -34t-10.5 16q8 16 20.5 45t20.5 47q14 33 25.5 76t14.5 82q1 13 1 25q0 23 -4 41q-6 28 -25 32q23 4 43 8q16 4 34 5t24 3q23 2 37 3.5t23 -5t12.5 -26t0.5 -56.5
q-2 -51 -19 -121.5t-38 -123.5q23 37 64 101.5t91 122.5t105 96q39 28 78 28q15 0 29 -4q74 -20 92 -85q10 -34 10 -74q0 -35 -8 -74q-16 -83 -62.5 -172t-101.5 -156q-43 -51 -96 -88t-111 -54q-46 -15 -94 -15q-11 0 -22 1q-60 4 -115 37l-195 -486q-31 -66 -58 -88
q-24 -19 -64 -19q-7 0 -15 1q-20 2 -41.5 8t-44.5 2zM137 68q25 -25 60 -25q16 0 35 5q57 18 119.5 70t121.5 127.5t100 151.5q51 94 57 162v22q0 50 -22 71q-12 12 -32 12t-46 -14q-53 -25 -118 -118q-59 -80 -131 -204.5t-144 -259.5z" />
    <glyph glyph-name="q" unicode="q" horiz-adv-x="700" 
d="M64 255q18 81 64 165t103 151q45 55 103.5 93t121.5 54q38 9 75 9l53 -5q63 -11 121 -56q27 -23 30.5 -43.5t-5.5 -31.5t-23.5 -9t-22.5 24q-23 59 -62 72q-15 4 -31 4q-28 0 -59 -14q-51 -21 -105 -70t-103.5 -110.5t-89 -128t-60.5 -125.5q-17 -52 -17 -93v-12
q3 -45 40 -61q27 -12 59.5 4t65 48t66.5 76t62.5 87t51 80.5t37.5 60.5q20 33 34.5 54.5t27.5 32.5t27.5 14t35.5 1q18 0 40.5 -6t45.5 -2q-39 -59 -89.5 -156.5t-102.5 -210t-101 -230.5t-90 -220t-68 -180t-31 -109q-10 18 -28.5 32.5t-30.5 29.5q-28 30 -28 66q0 8 1 16
q8 45 39 112q61 143 105.5 236.5t79 163t63.5 127t61 129.5q-4 -8 -24.5 -39t-45 -66t-46 -65.5t-27.5 -38.5q-23 -25 -48.5 -48.5t-54 -40t-60.5 -22.5q-11 -2 -23 -2q-20 0 -41 6q-76 33 -96 100q-10 34 -10 72q0 36 10 75z" />
    <glyph glyph-name="r" unicode="r" horiz-adv-x="532" 
d="M-56 81q-7 11 3 25q61 80 112.5 175.5t91 194.5t67.5 197.5t44 184.5q8 43 32.5 56.5t48.5 1.5t39 -46q9 -20 9 -47q0 -18 -4 -39q-10 -43 -48 -80.5t-65 -56.5q38 -3 84 -3q23 0 48 1q75 2 151 10q6 -10 3 -29.5t-10 -41t-17.5 -45t-18.5 -41.5q-8 -16 -27.5 -55.5
t-43 -87.5t-45.5 -101t-32 -97q-7 -29 -6 -51q0 -12 2 -22q6 -29 35 -31q31 0 69 41t73.5 96.5t65.5 113.5t46 91q14 27 27.5 19t-2.5 -39q-23 -47 -53.5 -106.5t-67.5 -115t-82 -97.5t-94 -54q-27 -6 -58.5 3t-54 40t-26.5 83v13q0 49 26 119q12 31 29.5 65.5t37 67.5
t36 61.5t24.5 47.5q8 17 8 30q0 28 -32 42q-47 22 -133 24l-25 -66q-18 -49 -45 -111.5t-59.5 -127t-69.5 -120.5t-74 -93q-12 -10 -19 1z" />
    <glyph glyph-name="s" unicode="s" horiz-adv-x="524" 
d="M-22 134q-1 10 -1 20q-1 42 19 80q24 46 61 47q41 78 88.5 172t87.5 182q14 31 33 60.5t40.5 54t46 41t50.5 20.5q12 2 23 2q29 0 53 -12q29 -14 25 -31.5t-33 -3.5q-16 6 -32.5 8t-32.5 -6q-35 -16 -50.5 -49t-17.5 -71q0 -8 -1 -17q0 -29 6 -59q7 -38 19 -64l52 -116
q23 -50 23 -108q0 -9 -1 -18q-4 -59 -45 -122.5t-100 -104.5l14 -2q12 -2 24 -2q39 -1 75 21q46 28 85 75q18 20 38 54t40.5 71t40 75t35.5 68q8 16 23.5 10t7.5 -22q-29 -63 -67 -140t-90 -137q-51 -60 -119 -92q-37 -17 -80 -18q-35 0 -74 12q-47 -20 -84 -20
q-92 0 -134 44t-48 98zM69.5 82.5q6.5 -23.5 26 -39.5t49.5 -16q25 0 41 8q-33 20 -55 57t-27 96q-25 -25 -33 -53.5t-1.5 -52zM92 276q14 0 23 -8q8 -6 14 -19t6 -38q-1 -7 -1 -15q0 -50 24 -85q28 -41 63 -58q35 27 60.5 79t29.5 134q1 12 1 25q0 37 -5 77q-6 54 -13 106
t-11 100q-2 19 -2 35q0 25 4 46q-20 -41 -46 -93t-52.5 -104t-51 -100.5t-43.5 -81.5z" />
    <glyph glyph-name="t" unicode="t" horiz-adv-x="409" 
d="M70 211q6 51 23.5 117.5t39 136.5t47 139.5t49.5 128.5h-106q-8 0 -12.5 7.5t-3 15.5t6.5 15t13 7h123q35 78 72.5 152t76.5 139q53 92 113 132q45 30 80 30q12 1 22 -3q42 -14 48 -82q1 -7 0 -15q0 -67 -52 -177q-43 -90 -88 -176h99q8 0 11 -7t2 -15t-5 -15.5t-13 -7.5
h-118q-53 -90 -117 -172t-156 -166q-8 -20 -15 -55t-15 -70q-8 -39 -17 -84q-7 -28 -6 -49q0 -17 4 -31q10 -30 30.5 -42.5t49.5 -7.5t53 24q72 53 124 139t93 170q12 29 27.5 24t-0.5 -36q-35 -72 -59.5 -119t-46 -83t-44 -62.5t-51.5 -55.5q-41 -41 -95 -53q-22 -5 -42 -5
q-30 1 -57 11q-45 18 -73 67q-19 34 -19 84q0 23 4 50zM244 461q59 59 110.5 128.5t96.5 143.5h-97q-33 -76 -60.5 -147.5t-49.5 -124.5zM375 778h102q58 103 103 209q14 33 24 76q8 33 8 56q0 7 -1 13q-3 26 -23.5 19.5t-67.5 -74.5q-37 -53 -71.5 -132t-73.5 -167z" />
    <glyph glyph-name="u" unicode="u" horiz-adv-x="731" 
d="M49 157.5q4 30.5 15.5 60.5t26.5 57.5t30 56.5q-10 0 -19.5 6t0.5 27q10 16 18.5 34.5t18.5 36.5q31 59 61.5 118.5t53.5 107.5q12 25 31.5 34t48.5 9h125q-18 -12 -32.5 -25.5t-30 -32t-32 -45.5t-36.5 -70q-29 -53 -52 -102q-23 -43 -43 -88t-34 -74q-37 -80 -41 -133
q-1 -9 -1 -17q1 -40 17 -58q20 -22 58 -6t87 73q43 49 85 116.5t81 140.5t75 144.5t65 133.5q12 25 31.5 34t48.5 9h110q-23 -18 -39 -34t-31.5 -37.5t-32 -53t-38.5 -78.5q-23 -43 -44.5 -89t-41 -90t-33.5 -82t-18 -65q-7 -32 -7 -55q0 -25 8 -39q15 -28 37 -29
q37 0 75 33t73 83t66.5 110.5t58.5 115.5q12 27 27.5 20t1.5 -38q-25 -53 -58 -117.5t-73.5 -122t-90 -96.5t-104.5 -39q-35 0 -61.5 17.5t-40 51t-13.5 83t21 110.5q-27 -47 -58.5 -93t-67.5 -84t-75 -61.5t-76 -23.5q-16 0 -35.5 3t-38 13.5t-34 29t-21.5 46.5
q-6 33 -2 63.5z" />
    <glyph glyph-name="v" unicode="v" horiz-adv-x="536" 
d="M75 123q3 51 20.5 112.5t39.5 120.5q-16 -27 -31.5 -21.5t-5.5 27.5q10 16 18.5 34t18.5 36q14 31 25.5 72t13.5 80v17q0 29 -5 51q-7 28 -28 34q23 4 43 8q16 4 34 5t24 3q23 2 37 3.5t23 -5t12 -26t1 -56.5q-2 -51 -20.5 -123.5t-38.5 -123.5q-18 -51 -36 -103
q-18 -51 -28 -94q-8 -36 -8 -63v-11q2 -32 23 -41q16 -7 32 -6q22 -1 44 11q39 22 75.5 69t72.5 114.5t67 143.5q-23 47 -27 105q-1 13 -1 26q0 42 11 74q20 68 56 103.5t67 45t48 -7t3 -49.5q-4 -4 -4 -10q-12 -37 -33.5 -106.5t-54.5 -150.5t-75 -164t-94 -147.5
t-114 -99.5q-43 -24 -89 -24q-20 0 -41 4q-46 8 -62 45q-13 31 -13 72v16z" />
    <glyph glyph-name="w" unicode="w" horiz-adv-x="974" 
d="M49 157.5q4 30.5 15.5 60.5t26.5 57.5t30 56.5q-10 0 -19.5 6t0.5 27q10 16 18.5 34.5t18.5 36.5q31 59 61.5 118.5t53.5 107.5q12 25 31.5 34t48.5 9h125q-18 -12 -32.5 -25.5t-30 -32t-32 -45.5t-36.5 -70q-29 -53 -52 -102q-23 -43 -43 -88t-34 -74q-33 -72 -39 -123
q-2 -16 -2 -30q0 -29 9 -47q13 -26 43 -22.5t69 40.5q47 45 98 127t97 169t82 165t54 115q10 25 29.5 34t48.5 9h125q-12 -12 -37.5 -27.5t-44.5 -48.5q-16 -27 -28.5 -48.5t-24.5 -44t-25.5 -51t-34.5 -71.5q-6 -12 -20 -45t-30.5 -74t-29 -86t-16 -82t8.5 -62.5t44 -27.5
q5 -1 11 0q37 -1 74 23q42 28 80 77t73 115.5t64 140.5q-23 47 -26 105q-1 12 -1 23q0 44 10 77q20 68 53 103.5t63 44t46 -7t2 -48.5q-4 -4 -4 -10q-10 -35 -30.5 -104.5t-51.5 -150.5t-72 -163t-92 -146q-50 -64 -114 -98q-43 -24 -92 -23q-22 0 -46 5q-41 8 -61.5 41
t-25.5 74q-2 20 -2.5 41.5t2.5 43.5q5 44 16 76q-18 -33 -47 -79.5t-65 -91t-77 -75t-84 -30.5t-80 24.5t-47 69.5q-6 33 -2 63.5z" />
    <glyph glyph-name="x" unicode="x" horiz-adv-x="681" 
d="M-67.5 -24.5q1.5 8.5 8 14.5t15.5 8t15 -6q18 -16 44 -16t61 16q31 14 69.5 56t76.5 101.5t72 129t56 141.5q8 41 14 79q5 29 5 58v18q0 25 -10.5 40.5t-28 15.5t-42 -19.5t-52.5 -66.5q-10 -16 -28 -48t-36 -69t-36.5 -69.5t-26.5 -49.5q-14 -25 -24.5 -15.5t5.5 42.5
q14 31 35.5 75t46.5 89t49.5 83t44.5 56q29 23 57.5 37t57.5 10q41 -4 62.5 -28.5t28.5 -61.5q4 -24 4 -50q0 -15 -1 -31q-4 -44 -12 -87q27 51 59.5 101.5t66.5 91.5t64.5 68.5t53.5 33.5q16 4 32.5 3t28.5 -9t18.5 -21.5t1.5 -33.5q-6 -29 -29.5 -47.5t-51.5 -18.5
q-41 0 -52 35q-31 -29 -63.5 -70t-62 -88t-54 -98t-41.5 -101q-8 -44 -8 -82t8 -70q16 -62 55 -71q12 -2 24 -2q37 1 69 23q44 30 82 83.5t72 118t63 119.5q16 29 28 21t2 -31q-25 -51 -56.5 -116.5t-73.5 -125t-97 -100.5t-129 -41q-39 0 -67.5 18.5t-47 48t-27.5 64.5
q-7 29 -7 57v13v20t2 21q-53 -102 -117 -183.5t-119 -107.5q-37 -19 -80 -21h-6q-39 0 -67 29q-6 8 -4.5 16.5z" />
    <glyph glyph-name="y" unicode="y" horiz-adv-x="817" 
d="M-354 -484q6 44 28 87q29 57 81 98t112 70q104 49 238.5 80.5t259.5 66.5q29 51 55 114.5t49 127t41 121t31 98.5q-27 -47 -64 -111.5t-83 -123t-100 -100.5t-114 -42q-16 0 -35.5 3t-38 13.5t-34 29t-21.5 46.5q-6 33 -2 63.5t15.5 60.5t26.5 57.5t30 56.5
q-10 0 -19.5 6t0.5 27q10 16 18.5 34.5t18.5 36.5q31 59 61.5 118.5t53.5 107.5q12 25 31.5 34t48.5 9h125q-14 -12 -36 -26.5t-40 -47.5q-53 -90 -97 -180.5t-87 -182.5q-37 -80 -41 -133q-1 -9 -1 -17q0 -40 17 -58q19 -21 57.5 -5.5t87.5 72.5q43 49 88.5 116.5
t87.5 140.5t79.5 144.5t66.5 133.5q12 25 31.5 34t48.5 9h110q-29 -20 -50 -46t-39.5 -59t-35 -75t-34.5 -93q-39 -104 -79 -225t-85 -244q33 10 73 26.5t78.5 41t75.5 58.5t68 77q47 70 79.5 133t49.5 92q14 27 28.5 20t0.5 -38q-53 -106 -94.5 -179t-91.5 -125.5
t-120.5 -92t-181.5 -78.5q-49 -86 -111.5 -182.5t-140.5 -177.5t-174 -133t-209 -52q-78 0 -121 22.5t-60 59.5q-13 27 -13 59q0 11 2 22zM-298 -474q-8 -24 -8 -46q0 -26 12 -47q20 -39 85 -39q68 0 139.5 42t138 101.5t123 125t91.5 114.5q10 16 21.5 36t23.5 40
q-49 -12 -105.5 -26.5t-114 -31t-110.5 -34t-96 -35.5q-78 -35 -130.5 -90.5t-69.5 -109.5z" />
    <glyph glyph-name="z" unicode="z" horiz-adv-x="698" 
d="M-395 -476v5q0 56 39 117q41 61 121.5 109t181 87t209 72t206.5 63q12 37 23.5 89.5t12.5 98.5v6q0 41 -14 69q-12 23 -42 24q-8 0 -18 -2q-20 -10 -43 -19.5t-48 -19.5q-12 -4 -21 0t-12 11.5t1 15.5t16 12q51 14 89 39t65.5 51.5t46 50t28.5 39.5q27 40 27 75
q0 13 -4 27q-14 46 -56 64q-19 8 -40 7q-25 1 -57 -11q-56 -22 -103 -102q-10 -16 -23.5 -41t-29 -52.5t-29.5 -57t-27 -54.5q-12 -27 -26.5 -19.5t2.5 41.5q29 53 57.5 113t63.5 121q47 86 113 126q68 40 128 41h3q58 0 98 -33q39 -32 39 -89v-6q-4 -68 -53.5 -145.5
t-147.5 -137.5h7q72 0 102 -37q30 -39 32 -96q0 -10 -2 -30.5t-5 -43t-7 -43t-8 -32.5q51 10 95 44.5t83 85t72.5 112t64.5 124.5q14 27 28.5 21t0.5 -37q-35 -72 -71 -138.5t-78 -121t-92 -92t-116 -50.5q-78 -217 -232.5 -373.5t-377.5 -222.5q-47 -14 -88 -14
q-27 0 -51 6q-62 15 -96.5 55t-36.5 98zM-324 -475q-2 -12 -1 -22q0 -42 26 -70q23 -24 67 -24q20 0 46 5q59 12 134 53t149.5 107t140 154.5t106.5 197.5q-68 -23 -139.5 -42t-138 -40.5t-126 -45t-104.5 -50.5q-68 -39 -110 -102.5t-50 -120.5z" />
    <glyph glyph-name="guillemotleft" unicode="&#xab;" horiz-adv-x="923" 
d="M229 367q10 6 46 28.5t82 51t98.5 61.5t97.5 59.5t75.5 44t37.5 17.5l14 -6l2 -15q-14 -23 -59 -60.5t-98.5 -76.5t-103.5 -72.5t-71 -50.5l-2 -278l-10 -21l-14 -6q-10 0 -17 6q-29 72 -44 156t-34 162zM526 367q10 6 46 28.5t83 51t98.5 61.5t96.5 59.5t75.5 44
t37.5 17.5l12 -6l2 -15q-16 -25 -60.5 -61.5t-95.5 -74.5t-100 -71.5t-74 -52.5l-2 -278l-10 -21l-14 -6l-17 6q-10 18 -21.5 61.5t-21.5 91.5t-19.5 94t-15.5 71z" />
    <glyph glyph-name="guillemotright" unicode="&#xbb;" horiz-adv-x="923" 
d="M55 55q0 10 23.5 34t60.5 53.5t79 61.5t79 57.5t62.5 43t27.5 19.5l2 278q4 4 5 9t5 10l17 8l18 -8q29 -72 43.5 -155t30.5 -159l-420 -262l-14 -2q-8 0 -17 4zM354 47v19q16 25 60.5 61.5t96.5 73.5t100 70.5t73 52.5q0 20 -1 64t-1 91t3 88t9 54l17 8l16 -8
q8 -8 19.5 -52.5t23.5 -96.5t21.5 -100t13.5 -65l-420 -262l-16 -2z" />
    <glyph glyph-name="uni0401" unicode="&#x401;" horiz-adv-x="1847" 
d="M45 281.5q-4 107.5 51.5 212t169 192.5t281.5 139q109 31 207 35q-43 14 -88 40t-82 58.5t-58.5 72.5t-17.5 85q8 88 59 164t130 137.5t178.5 107.5t203 75.5t203.5 40t182 1.5q119 -14 192 -51t101.5 -85t19 -104t-54.5 -108.5t-121.5 -95.5t-179.5 -65
q-43 -10 -62.5 -7.5t-18.5 11t20.5 18.5t54.5 14q47 4 94 35t83 75t54.5 95t7 96.5t-57.5 79t-140 43.5q-121 12 -253 -16.5t-245.5 -86.5t-194.5 -141t-99 -182q-14 -80 14.5 -128t78.5 -76.5t112.5 -43t114.5 -28.5t85 -32.5t25 -55.5q-10 -31 -58.5 -34t-123 -1t-167 0
t-190.5 -29q-106 -29 -188 -100.5t-128 -161.5t-50.5 -186t45 -176t156 -131.5t282.5 -51.5q119 0 233.5 25t217 63.5t191.5 89t154 101.5q57 45 97.5 92t57.5 87t9 69.5t-51 40.5q-35 8 -42 18t3 16.5t33.5 5t48.5 -13.5q55 -29 76.5 -70.5t11.5 -91t-51 -102.5t-109 -106
q-76 -59 -177 -109.5t-217 -85.5t-241.5 -54.5t-252.5 -19.5q-207 0 -342.5 55.5t-204 143.5t-72.5 195.5zM1272 1815q0 29 18.5 48t46.5 19q29 0 49.5 -18t20.5 -49q0 -29 -18.5 -48.5t-47.5 -19.5t-49 18.5t-20 49.5zM1536 1815q0 29 18.5 48t47.5 19t49 -18t20 -49
q0 -29 -18.5 -48.5t-46.5 -19.5q-29 0 -49.5 18.5t-20.5 49.5z" />
    <glyph glyph-name="uni0410" unicode="&#x410;" horiz-adv-x="1458" 
d="M38 229.5q1 110.5 39 243.5t116 272q39 70 82.5 135.5t97.5 125.5q-61 29 -113.5 63.5t-91.5 77.5q-23 25 -34 59.5t-13 68.5t5 62.5t24 40.5q18 25 35.5 11.5t0.5 -50.5q-20 -47 -5.5 -83.5t48.5 -77.5q66 -76 181 -129q96 106 208.5 203.5t238.5 171t264.5 116.5
t287.5 43q166 0 259 -72.5t93 -187.5q0 -55 -32.5 -120.5t-107.5 -124t-196.5 -102.5t-300.5 -61q-174 -16 -323.5 -8t-294.5 56q-29 -39 -68 -99.5t-81 -130t-81.5 -144.5t-66.5 -143q-78 -197 -63.5 -312.5t91 -152t200.5 5.5t265 158q80 68 158 149t148.5 166t130 170
t100.5 161q47 88 88 108.5t62.5 0t16.5 -69t-50 -97.5q-43 -49 -85 -112.5t-78 -135t-63.5 -148.5t-42.5 -153q-25 -129 -3 -188t69 -63.5t110.5 38.5t125.5 119q47 61 95 137t83 154q14 29 32.5 29t2.5 -37q-14 -31 -35 -72t-46.5 -85t-53 -89t-56.5 -82
q-27 -35 -60.5 -66.5t-72.5 -56t-82 -39t-86 -14.5q-57 0 -92 30.5t-51.5 79t-18.5 107.5t8.5 117.5t29 108.5t40.5 81q-41 -49 -100.5 -111.5t-128 -125t-146.5 -117.5t-156.5 -90t-158.5 -43t-152 22q-74 31 -110.5 111t-35.5 190.5zM539 1004q119 -39 255 -47.5t330 8.5
q127 10 229.5 42.5t174 83t110.5 116t39 141.5q0 92 -74.5 137t-187.5 45q-143 0 -266 -44t-229.5 -117t-200.5 -168t-180 -197z" />
    <glyph glyph-name="uni0411" unicode="&#x411;" horiz-adv-x="2131" 
d="M29.5 82q-17.5 55 3 110.5t76 93.5t143.5 46t203 -33q57 -23 127.5 -63.5t169.5 -88.5q102 98 186 244t170 309.5t184.5 332.5t229.5 315l120 131q-162 51 -309 77.5t-311 34.5q-145 6 -262 -33.5t-199 -105.5t-129 -148.5t-53 -159.5t28.5 -139.5t114.5 -86.5
q94 -31 168 -6.5t125 70.5t75.5 95t22.5 72v4q16 14 28.5 9t12.5 -25q-10 -82 -55 -143.5t-109.5 -98.5t-140.5 -45t-147 16q-104 37 -160.5 117t-65 178.5t33.5 200.5t132 182t231.5 124t334.5 28q92 -8 189 -32t187.5 -51.5t166 -54t124.5 -40.5q27 23 63 45t62 32
q49 20 53.5 6t-32.5 -36q-20 -14 -42 -38t-26 -32q45 -14 109.5 -32.5t137.5 -36t145.5 -29t131 -12.5t94 12.5t35.5 48.5q0 31 23 31q10 0 15 -17.5t5 -25.5q0 -59 -66.5 -89t-164.5 -18q-115 14 -200 33.5t-144 36t-95 31t-53 20.5q-86 -119 -177 -272.5t-177 -303.5
q115 -2 226.5 -13t207 -45t169 -95.5t114.5 -163.5q47 -139 0 -262t-157.5 -210t-267.5 -131t-327 -24q-195 23 -322.5 61t-221.5 81q-119 -88 -250 -125t-273 -19q-104 12 -163.5 56.5t-77 99.5zM144.5 161q-7.5 -40 10 -79t58.5 -66.5t109 -31.5q113 -4 208 30t177 95
q-72 35 -141.5 69.5t-162.5 67.5q-78 27 -133 19.5t-86.5 -36t-39 -68.5zM838 106q96 -41 217 -74.5t280 -47.5q145 -12 265 25.5t205 106t133.5 157.5t51.5 177.5t-42 166t-144 124.5q-94 45 -214 57.5t-249 18.5q-111 -188 -214 -354t-212 -283q-20 -20 -38.5 -37.5
t-38.5 -36.5z" />
    <glyph glyph-name="uni0412" unicode="&#x412;" horiz-adv-x="2131" 
d="M29.5 82q-17.5 55 3 110.5t76 93.5t143.5 46t203 -33q57 -23 127.5 -63.5t169.5 -88.5q102 98 186 244t170 309.5t184.5 332.5t229.5 315l116 133q-172 29 -373.5 25.5t-410.5 -48.5q-141 -31 -250.5 -88t-185.5 -128t-116 -147.5t-43 -145t33 -122t111 -75.5
q90 -29 161 -5.5t119 66.5t71.5 91t19.5 71q0 4 7 8t14.5 4t14.5 -6t7 -23v-2q-12 -76 -56 -134t-105.5 -93t-133 -43t-139.5 16q-104 37 -158.5 107t-58.5 154t39 176t133 174t226 143.5t317 87.5q215 31 420.5 26t386.5 -44q27 23 56.5 41t55.5 28q49 20 53.5 6t-32.5 -36
q-20 -14 -38 -30.5t-22 -25.5q131 -35 233.5 -85t162 -114.5t68.5 -143.5t-42 -167q-33 -55 -87 -95t-118.5 -65.5t-131 -38t-124.5 -14.5q51 -16 111.5 -41.5t116 -61.5t99.5 -83t60 -104q27 -94 6.5 -175t-75.5 -149t-137 -118t-177.5 -81.5t-195.5 -44t-193 -0.5
q-195 25 -322.5 62t-221.5 80q-119 -88 -250 -125t-273 -19q-104 12 -163.5 56.5t-77 99.5zM144.5 161q-7.5 -40 10 -79t58.5 -66.5t109 -31.5q113 -4 208 30t177 95q-72 35 -141.5 69.5t-162.5 67.5q-78 27 -133 19.5t-86.5 -36t-39 -68.5zM838 106q96 -41 217 -73.5
t280 -48.5q133 -12 247 20.5t198 92t134 138t56 158.5t-36 152.5t-140 120.5q-59 29 -123.5 49t-119 37.5t-92.5 32t-46 30.5q0 27 23.5 34t64.5 6t95.5 -6t113.5 -5q63 0 131 29.5t123 75.5t92 105.5t40 120t-35 118t-132 102.5q-41 20 -90 35.5t-102 27.5
q-102 -141 -206 -317t-206 -352.5t-204.5 -337t-205.5 -271.5q-20 -20 -38.5 -37.5t-38.5 -36.5z" />
    <glyph glyph-name="uni0413" unicode="&#x413;" horiz-adv-x="1880" 
d="M66.5 320.5q-17.5 130.5 33.5 293.5q23 72 67 122t87 76t72.5 25t25.5 -34q-12 -16 -41.5 -34.5t-63.5 -49.5t-63.5 -78t-42.5 -121q-18 -104 -1.5 -193t59.5 -161t106.5 -125t139 -90t156.5 -54.5t161 -15.5q121 2 222 26.5t187 65.5t157 96.5t130 118.5
q61 68 124 167.5t123 213t114.5 230t101.5 217t82 175.5t57 103q-162 51 -309 78t-311 35q-147 6 -263 -34t-198 -105.5t-129 -148.5t-53 -159.5t28.5 -139t114.5 -87.5q94 -31 168 -6t125 71t75.5 95t22.5 72v4q16 14 28.5 9t12.5 -26q-10 -82 -55 -143t-109.5 -98
t-140.5 -45.5t-147 16.5q-104 37 -161 117t-65 178t34 200.5t132 182.5t231.5 124t333.5 27q92 -8 189.5 -31.5t187.5 -51t166 -54t125 -41.5q6 8 24.5 28.5t41 42t46 38t40.5 16.5h-2q25 8 39 -3t17 -26.5t-7.5 -26.5t-34.5 -3q-6 6 -20.5 -3.5t-30 -22.5t-30.5 -29.5
t-26 -26.5q43 -14 111 -33.5t142.5 -37t149.5 -31t135 -14.5t98 12.5t38 48.5q0 31 23 30q10 0 15 -17.5t5 -25.5q0 -59 -66.5 -89t-164.5 -17q-115 14 -203 33.5t-152.5 39t-104.5 36t-56 22.5q-92 -147 -149.5 -302t-112 -307.5t-122 -299t-180.5 -275.5
q-82 -92 -198.5 -154.5t-250.5 -94t-275.5 -33t-270.5 30.5t-236.5 95.5t-174 159.5t-84 226.5z" />
    <glyph glyph-name="uni0414" unicode="&#x414;" horiz-adv-x="2076" 
d="M15.5 80q-17.5 55 3 111.5t76 93.5t143.5 45t202 -31q29 -10 72 -30.5t88 -43t86 -44t66 -34.5q113 109 204 261.5t178 318.5t181 331t215 300q-152 92 -332 123.5t-373 -8.5q-141 -31 -249.5 -89.5t-182.5 -131t-112.5 -150.5t-39.5 -148.5t35.5 -125t112.5 -76.5
q90 -29 158.5 -7.5t116 63.5t71 91t25.5 76q2 16 23.5 13t17.5 -32q-10 -76 -54.5 -134t-105.5 -93t-133 -43t-139 16q-90 31 -146.5 97.5t-72 149.5t15.5 175.5t117 175t229 148t354 96.5q190 29 375.5 -4t345.5 -119l51 60q12 12 36 29.5t50.5 35t50 31.5t35.5 18
q49 20 53.5 6t-32.5 -36q-20 -14 -37.5 -31.5t-21.5 -24.5q-23 -33 -47.5 -67.5t-49.5 -71.5q104 -70 188.5 -161t140.5 -202.5t80.5 -242t10.5 -275.5q-14 -143 -85 -254.5t-177.5 -185.5t-239.5 -105.5t-270 -15.5q-100 12 -181 28.5t-147.5 35t-122 39t-104.5 43.5
q-113 -92 -239 -129t-273 -19q-104 12 -163.5 55.5t-77 98.5zM142.5 158q-7.5 -41 9 -78t54.5 -65.5t101 -30.5q111 -4 208 28.5t183 93.5q-74 35 -145.5 71t-163.5 69q-74 27 -126 17.5t-82.5 -37t-38 -68.5zM817 111q96 -43 217 -77t287 -50q133 -12 245.5 24.5t197.5 107
t137.5 167t64.5 202.5q12 125 -6 242t-63.5 219.5t-115 190.5t-155.5 155q-90 -141 -183 -297.5t-187.5 -306t-185.5 -282t-175 -222.5q-20 -23 -38.5 -40t-39.5 -33z" />
    <glyph glyph-name="uni0415" unicode="&#x415;" horiz-adv-x="1669" 
d="M45 281.5q-4 107.5 51.5 212t169 192.5t281.5 139q109 31 207 35q-43 14 -88 40t-82 58.5t-58.5 72.5t-17.5 85q8 88 59 164t130 137.5t178.5 107.5t203 75.5t203.5 40t182 1.5q119 -14 192 -51t101.5 -85t19 -104t-54.5 -108.5t-121.5 -95.5t-179.5 -65
q-43 -10 -62.5 -7.5t-18.5 11t20.5 18.5t54.5 14q47 4 94 35t83 75t54.5 95t7 96.5t-57.5 79t-140 43.5q-121 12 -253 -16.5t-245.5 -86.5t-194.5 -141t-99 -182q-14 -80 14.5 -128t78.5 -76.5t112.5 -43t114.5 -28.5t85 -32.5t25 -55.5q-10 -31 -58.5 -34t-123 -1t-167 0
t-190.5 -29q-106 -29 -188 -100.5t-128 -161.5t-50.5 -186t45 -176t156 -131.5t282.5 -51.5q119 0 233.5 25t217 63.5t191.5 89t154 101.5q57 45 97.5 92t57.5 87t9 69.5t-51 40.5q-35 8 -42 18t3 16.5t33.5 5t48.5 -13.5q55 -29 76.5 -70.5t11.5 -91t-51 -102.5t-109 -106
q-76 -59 -177 -109.5t-217 -85.5t-241.5 -54.5t-252.5 -19.5q-207 0 -342.5 55.5t-204 143.5t-72.5 195.5z" />
    <glyph glyph-name="uni0416" unicode="&#x416;" horiz-adv-x="3747" 
d="M244 375q-2 33 15 40t20 -20q0 -96 5 -156.5t18 -103.5t36.5 -74.5t58.5 -68.5q37 -41 116 -75t183.5 -47t224 0t237.5 65.5t224.5 148.5t184.5 252q74 147 110.5 296.5t37.5 286t-36 251t-112.5 196.5t-189 121.5t-267.5 23.5q-162 -27 -277.5 -96t-186.5 -155
t-95.5 -176.5t-5 -157t82 -96t169.5 3.5q55 16 94 60t63.5 99.5t32.5 114.5t2 109q-2 16 13.5 12t25.5 -27q18 -53 7 -116.5t-42.5 -121t-80 -103.5t-103.5 -64q-123 -43 -207 -17.5t-122 93t-27.5 162.5t74 194.5t183 189.5t304.5 144q131 39 273.5 42t277.5 -63
q115 -57 185.5 -150.5t102 -211t26.5 -249.5t-43 -266.5t-104.5 -261.5t-158.5 -233q-86 -98 -192.5 -173t-222.5 -123t-232.5 -67.5t-223 -10.5t-196.5 49t-150 112q-39 45 -61.5 95t-33.5 102.5t-14 107.5t-3 113zM1662 334.5q5 25.5 16.5 51.5t24.5 45.5t15 25.5
q41 43 96.5 120.5t117 172t124 197t117.5 193.5t96 161.5t62 103.5q8 0 8 -29.5t-4 -48.5q-14 -41 -58.5 -120t-105 -177t-131 -206.5t-139 -209t-130 -185.5t-102.5 -134q-12 14 -7 39.5zM2003 26.5q-6 71.5 0 154.5t19.5 162t27 143.5t21.5 101.5q4 23 20 93.5t41 164.5
t57.5 199.5t68.5 199.5t74 162t76 88q29 14 57.5 25.5t46 14.5t18.5 -2t-25 -24q-14 -10 -52 -77.5t-85.5 -184.5t-95.5 -278.5t-81 -358.5q-6 -31 -17 -90t-22.5 -131t-20.5 -148.5t-9 -141t11 -111.5t42 -60q12 -4 18.5 -24.5t1 -41t-25 -31.5t-62.5 3q-49 16 -73.5 68.5
t-30.5 124zM2113 222q1 26 8 51.5t17 48t14 34.5q18 55 61.5 131t96.5 160t113.5 171t117 165t102.5 139.5t71 96.5q8 0 16 -12.5t4 -30.5q-20 -31 -69.5 -99.5t-113 -158t-132 -191.5t-130 -202.5t-106.5 -189.5t-59 -153q-12 14 -11 40zM2419 403q-4 127 25.5 261.5
t90 266.5t150.5 249.5t207 211t260 150.5q168 66 308 63t251 -42q156 -53 232.5 -143.5t92 -190t-22.5 -194.5t-109.5 -162.5t-168 -93t-198.5 17.5q-47 18 -71.5 64t-28 103.5t16 121t64.5 116.5q20 23 38 27t8 -12q-31 -49 -51.5 -108.5t-23.5 -115t14.5 -99.5t64.5 -60
q90 -33 167.5 -3.5t130 96t72 157t-8.5 176.5t-109.5 155t-231.5 96q-145 16 -278.5 -23.5t-249 -121.5t-209.5 -196.5t-161 -251t-102.5 -286t-35.5 -296.5q0 -154 58.5 -251t150.5 -149.5t205.5 -65.5t224 0t207 47t153.5 75q51 37 90 68.5t74 74.5t71 103.5t83 156.5
q14 27 27.5 20t-3.5 -40q-55 -115 -126.5 -221.5t-192.5 -196.5q-96 -72 -205 -112t-220.5 -49t-219 10.5t-198.5 67.5t-161.5 122t-107.5 174q-39 106 -43 233z" />
    <glyph glyph-name="uni0417" unicode="&#x417;" horiz-adv-x="1669" 
d="M-10 156q-47 106 12 209.5t219 160.5q35 12 58.5 13.5t28.5 -5t-10 -16.5t-58 -18q-49 -10 -82 -40t-49.5 -70t-15.5 -87t20 -92q25 -51 71.5 -101.5t117.5 -89t164 -63.5t212 -25q176 0 325.5 51.5t264 131.5t190.5 176t104.5 186t6 162t-104.5 100q-74 27 -165 29
t-167.5 0t-122.5 1t-30 34q23 37 71 55.5t111.5 32.5t137 28.5t148.5 43t143.5 76.5t121.5 128q63 98 51 181.5t-77.5 141.5t-175 87t-240.5 16q-100 -10 -175 -43.5t-123 -79t-71.5 -96.5t-25 -95t21.5 -74.5t66 -35.5q31 -4 42 -14t5 -18.5t-27.5 -11.5t-56.5 8
q-127 35 -157 110.5t23.5 157.5t184.5 151.5t328 89.5q88 8 179 -2t171 -39.5t140 -75.5t88 -107.5t16.5 -137.5t-76.5 -164q-35 -45 -88.5 -85t-117 -72.5t-129 -58.5t-120.5 -40q94 -2 176 -35q125 -51 166 -139t10.5 -192.5t-124 -212t-234.5 -195.5t-322.5 -143.5
t-388.5 -55.5q-127 0 -236.5 19.5t-195.5 54.5t-145.5 85t-83.5 110z" />
    <glyph glyph-name="uni0418" unicode="&#x418;" horiz-adv-x="2088" 
d="M-5 676.5q-13 107.5 14.5 230.5t102 249t201.5 246t314 222q176 98 353 124t314 -34q76 -33 120 -86t62.5 -120.5t14.5 -147.5t-23 -164q-18 -82 -54 -173t-80 -187.5t-88 -193.5t-77.5 -191.5t-53 -181.5t-11.5 -163q8 -80 49 -112.5t103.5 -15t141.5 85t163 190.5
q51 74 99 162t92 175t83 166t70 136q35 59 65.5 83.5t48.5 24.5q37 -18 40 -54t-13 -80t-44.5 -92t-55.5 -91q-31 -53 -66 -112.5t-66.5 -124t-57 -131t-38.5 -132.5q-25 -129 -3 -188t69 -63.5t110.5 38.5t124.5 119q47 61 95.5 137t83.5 154q14 29 32.5 29t1.5 -37
q-14 -31 -34.5 -72t-46 -85t-53 -89t-56.5 -82q-27 -35 -60.5 -66.5t-72.5 -56t-82 -39t-86 -14.5q-55 0 -90 28.5t-52.5 74.5t-19.5 102.5t6 113.5q-102 -129 -201.5 -194.5t-182.5 -72.5t-140 40t-74 145q-12 70 5.5 157t51 184.5t78.5 200t88 201.5t81 190t57 165
q18 74 27 144.5t6 130t-21.5 103.5t-54.5 67q-63 39 -144.5 48t-172.5 -5.5t-184 -49t-181 -86.5q-205 -121 -328 -268t-176 -295.5t-42 -283t73.5 -225.5t172 -123.5t250.5 20.5q70 27 132.5 87t106.5 135t65.5 151.5t9 135t-61.5 88.5t-147 7q-41 -10 -49 -6t-2 12
t20.5 17.5t20.5 11.5q104 45 169.5 24.5t93 -81t17.5 -148.5t-56 -179t-127 -173t-194 -129q-115 -49 -214 -42t-176 57t-125 135t-61 192.5z" />
    <glyph glyph-name="uni0419" unicode="&#x419;" horiz-adv-x="2088" 
d="M-5 676.5q-13 107.5 14.5 230.5t102 249t201.5 246t314 222q176 98 353 124t314 -34q76 -33 120 -86t62.5 -120.5t14.5 -147.5t-23 -164q-18 -82 -54 -173t-80 -187.5t-88 -193.5t-77.5 -191.5t-53 -181.5t-11.5 -163q8 -80 49 -112.5t103.5 -15t141.5 85t163 190.5
q51 74 99 162t92 175t83 166t70 136q35 59 65.5 83.5t48.5 24.5q37 -18 40 -54t-13 -80t-44.5 -92t-55.5 -91q-31 -53 -66 -112.5t-66.5 -124t-57 -131t-38.5 -132.5q-25 -129 -3 -188t69 -63.5t110.5 38.5t124.5 119q47 61 95.5 137t83.5 154q14 29 32.5 29t1.5 -37
q-14 -31 -34.5 -72t-46 -85t-53 -89t-56.5 -82q-27 -35 -60.5 -66.5t-72.5 -56t-82 -39t-86 -14.5q-55 0 -90 28.5t-52.5 74.5t-19.5 102.5t6 113.5q-102 -129 -201.5 -194.5t-182.5 -72.5t-140 40t-74 145q-12 70 5.5 157t51 184.5t78.5 200t88 201.5t81 190t57 165
q18 74 27 144.5t6 130t-21.5 103.5t-54.5 67q-63 39 -144.5 48t-172.5 -5.5t-184 -49t-181 -86.5q-205 -121 -328 -268t-176 -295.5t-42 -283t73.5 -225.5t172 -123.5t250.5 20.5q70 27 132.5 87t106.5 135t65.5 151.5t9 135t-61.5 88.5t-147 7q-41 -10 -49 -6t-2 12
t20.5 17.5t20.5 11.5q104 45 169.5 24.5t93 -81t17.5 -148.5t-56 -179t-127 -173t-194 -129q-115 -49 -214 -42t-176 57t-125 135t-61 192.5zM1614 1526q4 -29 23.5 -49.5t46 -33.5t56 -19.5t56.5 -6.5q98 0 173 47t112 129q4 16 -13.5 17t-31.5 -15q-18 -25 -36 -44
t-39.5 -33.5t-51 -22.5t-72.5 -8q-45 0 -76.5 10t-64.5 41q-12 12 -18.5 25.5t-11.5 26t-9 20.5t-12 8q-16 0 -28.5 -19.5t-2.5 -72.5z" />
    <glyph glyph-name="uni041A" unicode="&#x41a;" horiz-adv-x="2342" 
d="M-7.5 142.5q-17.5 107.5 15.5 236.5q14 55 46 99t67 76t68.5 50.5t54.5 20.5q25 4 25.5 -9.5t-11.5 -19.5q-14 -6 -44 -29.5t-62.5 -62.5t-61.5 -93.5t-37 -123.5q-14 -111 13.5 -197t84 -148.5t133 -102.5t161.5 -60.5t170 -21.5t157 16q219 49 381 158.5t280.5 246.5
t199.5 287.5t141 282.5q10 23 31.5 71.5t50 112t61.5 135.5t64.5 140.5t58 126t45.5 91.5q-68 -8 -142.5 -14t-151.5 -14t-152.5 -20.5t-147.5 -33.5q-152 -43 -249 -121.5t-148.5 -172t-57.5 -185.5t26 -158.5t97.5 -96t161.5 4.5q51 18 88 62.5t58.5 99.5t26.5 113.5
t-3 107.5q-4 16 11.5 12.5t25.5 -26.5q20 -53 14 -115.5t-33.5 -121t-72.5 -103.5t-101 -65q-115 -43 -208 -10.5t-148 108.5t-64.5 181.5t44 212t176 197.5t331.5 138q84 18 170 29.5t170 17.5t162 11t146 12q6 8 21 32.5t37.5 51t48 49t50.5 30.5q57 16 91 -9t28 -65
t-63.5 -81t-180.5 -53q-78 -139 -139 -314.5t-128 -361t-148.5 -366.5t-199.5 -331.5t-283 -256t-396 -140.5q-117 -16 -233.5 -6t-221 48t-191.5 99.5t-141.5 147.5t-72 193.5zM1819 514q2 53 16 59q37 -2 128 34t215 107.5t270.5 172t293 227.5t283.5 273.5t244 310.5
q18 27 32.5 34t23.5 0.5t8 -24t-13 -37.5q-82 -135 -190.5 -267t-230.5 -251t-252 -222.5t-255 -185t-237.5 -137t-200.5 -78.5q-10 4 -6 -41t19 -117.5t43 -162.5t67 -178q66 -150 155.5 -235t210.5 -85q59 0 123 13.5t121 39t104.5 66.5t75.5 96q6 14 15.5 22.5t15.5 6.5
t6 -13.5t-10 -31.5q-29 -55 -79 -107.5t-113.5 -92.5t-133 -63.5t-135.5 -23.5q-84 0 -158.5 30t-138 81t-114 121.5t-87.5 150.5q-43 94 -69.5 192.5t-37.5 180.5t-9 135zM2183 1481q59 8 90 24q33 16 45.5 36t8 32t-21.5 13t-42 -19q-20 -16 -41.5 -42t-38.5 -44z" />
    <glyph glyph-name="uni041B" unicode="&#x41b;" horiz-adv-x="2363" 
d="M8 379q12 49 44 96t70 83t74.5 58.5t61.5 22.5q33 0 27 -11.5t-23 -17.5q-25 -10 -57.5 -38.5t-63 -70.5t-55.5 -96.5t-33 -117.5q-14 -111 14.5 -196t85 -144.5t135.5 -97t164 -55t171 -16.5t157 17q215 49 367.5 135t261.5 198t180.5 241t124.5 262q51 127 111.5 255
t137.5 241.5t171 205.5t215 148q57 27 136 50t188 30q2 0 -10.5 -13.5t-30 -29t-35 -29.5t-23.5 -14q-31 -4 -55.5 -7.5t-47 -9.5t-46 -16t-53.5 -27q-111 -59 -199 -155.5t-155.5 -208t-116 -224t-80.5 -200.5q-63 -182 -156.5 -347t-219.5 -294t-286 -216t-358 -112
q-176 -23 -340 15t-282 131.5t-169 237.5t-2 337zM1949 128q3 67 21.5 143.5t42 150.5t46 137.5t34.5 104.5q6 25 32.5 94t64.5 161.5t85 195t96.5 191.5t97.5 151.5t89 76.5q31 10 59.5 17.5t47 9.5t18.5 -4.5t-29 -20.5q-14 -8 -64 -76.5t-116 -184.5t-136.5 -272.5
t-125.5 -338.5q-10 -31 -27.5 -83.5t-37 -117t-37 -133t-25.5 -130t-5 -110.5t25 -74q20 -23 50 -23.5t65 23.5q39 29 75 72t67.5 93t60 103.5t53.5 102.5q16 35 31.5 29t-0.5 -43q-41 -84 -72 -142.5t-58.5 -101.5t-56 -76t-63.5 -65q-53 -53 -115.5 -68.5t-116.5 12.5
q-47 25 -63 77t-13 119z" />
    <glyph glyph-name="uni041C" unicode="&#x41c;" horiz-adv-x="3084" 
d="M8 379q12 49 44 96t70 83t74.5 58.5t61.5 22.5q33 0 27 -11.5t-23 -17.5q-25 -10 -57.5 -38.5t-63 -70.5t-55.5 -96.5t-33 -117.5q-14 -111 14.5 -196t85 -144.5t135.5 -97t164 -55t171 -16.5t157 17q215 49 367.5 135t261.5 198t180.5 241t124.5 262q51 127 111.5 255
t137.5 241.5t171 205.5t215 148q57 27 136 50t188 30q2 0 -10.5 -13.5t-30 -29t-35 -29.5t-23.5 -14q-31 -4 -55.5 -7.5t-47 -9.5t-46 -16t-53.5 -27q-111 -59 -199 -155.5t-155.5 -208t-116 -224t-80.5 -200.5q-63 -182 -156.5 -347t-219.5 -294t-286 -216t-358 -112
q-176 -23 -340 15t-282 131.5t-169 237.5t-2 337zM1949 128q3 67 21.5 143.5t42 150.5t46 137.5t34.5 104.5q6 25 32.5 94t64.5 161.5t85 195t96.5 191.5t97.5 151.5t89 76.5q31 10 59.5 17.5t47 9.5t18.5 -4.5t-29 -20.5q-14 -8 -64 -76.5t-116 -184.5t-136.5 -272.5
t-125.5 -338.5q-10 -31 -27.5 -83.5t-37 -117t-37 -133t-25.5 -130t-5 -110.5t25 -74q43 -45 111 4q63 47 123.5 146.5t109.5 220.5q100 250 194.5 429t177.5 300t155.5 194.5t130 114.5t98.5 56.5t66 23.5q47 16 57 14.5t14 -6.5q4 -6 -5 -14t-25.5 -17t-39 -19.5
t-42.5 -18.5q-78 -31 -151 -95.5t-141.5 -150.5t-131 -189.5t-116.5 -210t-101 -210t-82 -193.5q-59 -147 -118.5 -244.5t-131.5 -164.5q-53 -53 -115.5 -67.5t-116.5 13.5q-47 25 -63 77t-13 119zM2661 99.5q3 66.5 21.5 143t42 150.5t46 137.5t35.5 104.5q6 25 32.5 94.5
t64.5 161.5t85 194.5t96 191.5t97.5 151.5t89.5 76.5q31 10 59.5 17.5t47 9.5t18.5 -4t-29 -21q-14 -8 -64.5 -76.5t-116 -184.5t-136 -272.5t-125.5 -338.5q-10 -31 -28 -83t-37 -116.5t-36.5 -133.5t-26 -130t-5 -110.5t25.5 -73.5q20 -23 50 -24t65 24q39 29 74.5 71.5
t67.5 93t60.5 103.5t53.5 102q16 35 31.5 29t-1.5 -43q-41 -84 -71.5 -142.5t-58 -101.5t-56.5 -75.5t-63 -65.5q-53 -53 -116 -68.5t-116 13.5q-47 25 -63.5 77t-13.5 118.5z" />
    <glyph glyph-name="uni041D" unicode="&#x41d;" horiz-adv-x="2828" 
d="M8 379q12 49 44 96t70 83t74.5 58.5t61.5 22.5q33 0 27 -11.5t-23 -17.5q-25 -10 -57.5 -38.5t-63 -70.5t-55.5 -96.5t-33 -117.5q-14 -111 14.5 -196t85 -144.5t135.5 -97t164 -55t171 -16.5t157 17q215 49 376 145.5t277.5 219.5t194.5 262t129 272q-33 0 -63.5 -9
t-59.5 -23q-8 -4 -22.5 -8.5t-25.5 -4.5t-15 7.5t8 27.5q14 23 50 48.5t77 29.5h80q39 96 84 199.5t88 195.5t76.5 164t50.5 104q-100 -12 -205.5 -19t-208 -21.5t-198 -42t-177.5 -78t-144 -129t-99 -197.5q-27 -84 -16.5 -156.5t47 -122t98 -67t139.5 11.5q57 20 96 74.5
t60.5 114t27.5 110.5t-4 66q-8 12 -7 20t7 10t13.5 -1t13.5 -15q29 -63 21.5 -129t-39 -123t-82 -101t-105.5 -65q-92 -35 -177 -13.5t-145.5 81t-86 148.5t-1.5 190q33 129 107 214t173 138t219 80t242 39t240.5 17t219.5 16q6 8 21 32.5t37.5 51t48.5 49t50 30.5
q45 12 81 -1t36 -56q0 -37 -26.5 -64.5t-63.5 -47t-79 -29.5t-73 -10q-18 -39 -43.5 -96.5t-51.5 -124t-52.5 -137.5t-50 -132t-41 -108.5t-25.5 -69.5q102 0 203.5 -5t193 -12.5t168 -12.5t129.5 -5q8 23 33 86.5t60.5 148.5t81 180t92.5 177t93 141.5t87 73.5
q31 10 59.5 17.5t47 9.5t18.5 -4.5t-29 -20.5q-14 -8 -59 -67.5t-105.5 -164t-129 -251t-130.5 -324.5h38t47.5 2t45 5t33.5 7q29 10 36 2t-20 -26q-41 -29 -97 -40t-101 -15q-10 -31 -27.5 -83.5t-37 -117t-37 -133t-25.5 -130t-5 -110.5t25 -74q20 -23 50 -23.5t65 23.5
q39 29 75 72t67.5 93t60 103.5t53.5 102.5q16 35 31.5 29t-0.5 -43q-41 -84 -72 -142.5t-58.5 -101.5t-56 -76t-63.5 -65q-53 -53 -115.5 -68.5t-116.5 12.5q-47 25 -63.5 78t-13 123t22 147.5t42 151.5t46 135.5t34.5 96.5q-35 0 -121 3t-190.5 7l-209 8t-173.5 8
q-59 -178 -158.5 -352t-235 -316.5t-303.5 -240.5t-366 -123q-176 -23 -340 15t-282 131.5t-169 237.5t-2 337zM2183 1481q66 10 94.5 26.5t34.5 32.5t-3 27.5t-17 11.5q-8 4 -21.5 -6t-30 -25.5t-32 -34t-25.5 -32.5z" />
    <glyph glyph-name="uni041E" unicode="&#x41e;" horiz-adv-x="1486" 
d="M104 936q-14 147 41.5 265t158 201t236.5 130t275 53t277.5 -31.5t242 -122.5t167 -220.5t52.5 -325.5q84 55 156 118.5t111 139.5q6 10 15 15t16.5 3t9 -12.5t-10.5 -28.5q-57 -90 -131.5 -168t-173.5 -139q-4 -53 -16 -106.5t-31 -112.5q-31 -96 -89 -195.5
t-136 -187.5t-172 -161t-197.5 -118t-213 -55t-218.5 25q-88 29 -151.5 103.5t-94 179t-24.5 232.5t59 261q-66 45 -107.5 108.5t-50.5 149.5zM217 918q12 -96 82 -156q29 59 76 135t108.5 150.5t134 141t150.5 106.5t158 47.5t157 -35.5q23 -12 13.5 -23.5t-29.5 -5.5
q-63 20 -132 -2.5t-135.5 -71.5t-129 -116.5t-114.5 -139t-92 -140.5t-61 -116q90 -45 215 -56t263.5 7.5t281 63t267.5 112.5q18 203 -29 345.5t-135 229.5t-206 123.5t-241 29.5t-240.5 -55t-204.5 -130t-132 -194.5t-25 -249.5zM314.5 234.5q11.5 -89.5 51.5 -160
t113 -107.5q90 -45 181.5 -43t180.5 40t171 104.5t151.5 151.5t126 183.5t90.5 198.5q12 35 22.5 73t14.5 73q-127 -68 -268 -112t-279.5 -60.5t-267.5 -6t-229 51.5q-37 -96 -53.5 -196.5t-5 -190z" />
    <glyph glyph-name="uni041F" unicode="&#x41f;" horiz-adv-x="2537" 
d="M66.5 320.5q-17.5 130.5 33.5 293.5q23 72 67 122t87 76t72.5 25t25.5 -34q-12 -16 -41.5 -34.5t-63.5 -49.5t-63.5 -78t-42.5 -121q-18 -104 -1.5 -193t59.5 -161t106.5 -125t139 -90t156.5 -54.5t161 -15.5q121 2 222 26.5t187 65.5t157 96.5t130 118.5
q61 68 124 167.5t123 213t114.5 230t101.5 217t82 175.5t57 103q-162 51 -309 78t-311 35q-147 6 -263 -34t-198 -105.5t-129 -148.5t-53 -159.5t28.5 -139t114.5 -87.5q94 -31 168 -6t125 71t75.5 95t22.5 72v4q16 14 28.5 9t12.5 -26q-10 -82 -55 -143t-109.5 -98
t-140.5 -45.5t-147 16.5q-104 37 -161 117t-65 178t34 200.5t132 182.5t231.5 124t333.5 27q92 -8 189.5 -31.5t187.5 -51t166 -54t125 -41.5q6 8 24.5 28.5t41 42t46 38t40.5 16.5h-2q25 8 39 -3t17 -26.5t-7.5 -26.5t-34.5 -3q-6 6 -20.5 -3.5t-30 -22.5t-30.5 -29.5
t-26 -26.5q43 -14 111 -33.5t142.5 -37t149.5 -31t135 -14.5t98 12.5t38 48.5q0 31 23 30q10 0 15 -17.5t5 -25.5q0 -59 -66.5 -89t-164.5 -17q-115 14 -203 33.5t-152.5 39t-104.5 36t-56 22.5q-92 -147 -149.5 -302t-112 -307.5t-122 -299t-180.5 -275.5
q-82 -92 -198.5 -154.5t-250.5 -94t-275.5 -33t-270.5 30.5t-236.5 95.5t-174 159.5t-84 226.5zM2051 125q-1 57 7 115q12 61 29.5 124.5t37 120t37 103.5t27.5 76q8 20 28.5 76.5t51.5 129t70 153.5t80 150.5t84 121t84 65.5q31 10 59.5 17t47 9.5t18.5 -4t-29 -20.5
q-14 -8 -53 -50t-91.5 -127t-113 -213t-117.5 -308q-10 -29 -25.5 -77t-34 -106.5t-36 -123.5t-27.5 -124q-23 -129 -1 -189t69 -64.5t109.5 37.5t123.5 118q47 61 95.5 137t82.5 154q14 29 33 29t2 -37q-14 -31 -34.5 -72t-46 -85t-53.5 -89t-56 -82q-27 -35 -60.5 -66.5
t-72.5 -56t-82 -39t-86 -14.5q-55 0 -89 29.5t-50.5 77t-17.5 104.5z" />
    <glyph glyph-name="uni0420" unicode="&#x420;" horiz-adv-x="1822" 
d="M-44 79q-17 54 3.5 110.5t75.5 93t142 46t204 -29.5q33 -12 26.5 -24.5t-32.5 -2.5q-82 31 -142.5 23t-98.5 -39t-51 -76t0 -88t53 -73.5t112 -34.5q137 -6 251.5 53t219.5 160q100 98 184 243.5t171 309t186.5 331.5t230.5 316q29 31 54.5 59.5t53.5 54.5
q-88 12 -180 16.5t-180 1.5t-169 -11.5t-144 -20.5q-96 -18 -216 -57t-228.5 -101.5t-189.5 -149.5t-99 -202q-8 -53 5 -100t40.5 -82t67.5 -55.5t87 -22.5q49 -2 96.5 17.5t88 53t72.5 80t50 97.5q4 23 16.5 21.5t12.5 -23.5q0 -70 -30.5 -124t-80 -91t-109.5 -55.5
t-120 -16.5q-61 2 -117.5 22.5t-98.5 60.5t-66.5 98.5t-20.5 136.5q4 92 47 165.5t111.5 133t154.5 103.5t177.5 75.5t179.5 52t162 31.5q172 25 363.5 29.5t373.5 -31.5q35 27 70.5 48t82.5 38q49 20 53.5 5.5t-32.5 -36.5q-16 -10 -41 -29.5t-51 -46.5q131 -35 237 -98
q129 -76 177.5 -165t36 -179t-73 -177t-148.5 -159t-194.5 -126t-206.5 -79q-127 -31 -252 -43t-207 -6q-68 -100 -143.5 -193.5t-163.5 -179.5q-131 -123 -284 -177t-318 -34q-104 12 -164 55.5t-77 97.5zM1135 553q78 -4 172 11.5t192 43.5q111 33 208 90.5t172 128
t122 148.5t57 154.5t-20.5 147.5t-110.5 124q-47 31 -105.5 53.5t-123.5 38.5q-78 -111 -147.5 -228.5t-137 -237.5t-136.5 -239.5t-142 -234.5z" />
    <glyph glyph-name="uni0421" unicode="&#x421;" horiz-adv-x="1454" 
d="M122 448.5q3 126.5 34.5 251.5t87 240t127.5 205q-12 47 -20.5 105.5t-11.5 120t2 123.5t21 120q2 12 11.5 20t16.5 8t12.5 -9t0.5 -29q-16 -98 -8 -202t25 -188q166 215 387 309.5t465 65.5q150 -16 250 -71.5t153.5 -132t63.5 -169t-19.5 -183.5t-96.5 -173t-167 -139
t-231 -82t-289 -2q-160 23 -294 102.5t-214 245.5q-18 -25 -53 -103.5t-65.5 -185t-47 -230.5t4 -236.5t86 -202.5t198.5 -131q166 -49 349 -28t337 114q68 39 116 84t87 96t69.5 109.5t63.5 123.5q12 27 26 19t-2 -39q-33 -68 -64.5 -125t-68.5 -109.5t-84 -99.5t-112 -92
q-78 -53 -171 -92t-194.5 -55.5t-211 -4t-220.5 59.5q-129 55 -206 146t-111.5 205t-31.5 240.5zM469 1051q70 -176 200 -261t298 -104q184 -20 321 27t223 132t119 191.5t7.5 204.5t-111.5 172.5t-236 97.5q-115 16 -228.5 -10t-220 -87.5t-201.5 -154t-171 -208.5z" />
    <glyph glyph-name="uni0422" unicode="&#x422;" horiz-adv-x="2674" 
d="M66.5 320.5q-17.5 130.5 33.5 293.5q23 72 67 122t87 76t72.5 25t25.5 -34q-12 -16 -41.5 -34.5t-63.5 -49.5t-63.5 -78t-42.5 -121q-18 -104 -1.5 -193t59.5 -161t106.5 -125t139 -90t156.5 -54.5t161 -15.5q121 2 222 26.5t187 65.5t157 96.5t130 118.5
q61 68 124 167.5t123 213t114.5 230t101.5 217t82 175.5t57 103q-162 51 -309 78t-311 35q-147 6 -263 -34t-198 -105.5t-129 -148.5t-53 -159.5t28.5 -139t114.5 -87.5q94 -31 168 -6t125 71t75.5 95t22.5 72v4q16 14 28.5 9t12.5 -26q-10 -82 -55 -143t-109.5 -98
t-140.5 -45.5t-147 16.5q-104 37 -161 117t-65 178t34 200.5t132 182.5t231.5 124t333.5 27q92 -8 189.5 -31.5t187.5 -51t166 -54t125 -41.5q6 8 24.5 28.5t41 42t46 38t40.5 16.5h-2q25 8 39 -3t17 -26.5t-7.5 -26.5t-34.5 -3q-6 6 -20.5 -3.5t-30 -22.5t-30.5 -29.5
t-26 -26.5q43 -14 118 -33.5t160 -38t173 -32t158.5 -14.5t115.5 12.5t45 50.5q0 31 23 30q10 0 15 -17.5t5 -25.5q0 -45 -33.5 -69.5t-82.5 -34.5t-105.5 -9t-105.5 7q-115 14 -203 33.5t-152.5 39t-104.5 36t-56 22.5q-92 -147 -149.5 -302t-112 -307.5t-122 -299
t-180.5 -275.5q-82 -92 -198.5 -154.5t-250.5 -94t-275.5 -33t-270.5 30.5t-236.5 95.5t-174 159.5t-84 226.5zM1882 -12q-8 74 7.5 169t41 190t55 179t48.5 138q8 20 28.5 76.5t50 129t67.5 153.5t79 150.5t83 121t83 65.5q31 10 59.5 17t47 9.5t18.5 -4t-29 -20.5
q-14 -8 -55 -50t-95.5 -127t-117 -213t-119.5 -308q-14 -45 -41 -133.5t-51.5 -187.5t-41.5 -197t-11 -164q2 -29 -12.5 -48.5t-34 -22.5t-37 13.5t-23.5 63.5zM2188 123q-1 57 7 115q12 61 30 124.5t37 120t36.5 103.5t28.5 76q8 20 28.5 76.5t51 129t69.5 153.5t80 150.5
t84 120.5t84 66q31 10 59.5 17t47 9t18.5 -4t-29 -20q-14 -8 -53 -50t-91.5 -127t-112.5 -213t-118 -308q-10 -29 -25.5 -77t-34 -106.5t-36 -123.5t-27.5 -124q-23 -129 -1 -189t69 -64.5t109.5 37.5t123.5 118q47 61 95.5 137t83.5 154q14 29 32.5 29t1.5 -37
q-14 -31 -34.5 -72t-46 -85t-53 -89t-56.5 -82q-27 -35 -60.5 -66.5t-72.5 -56t-82 -39t-86 -14.5q-55 0 -89 29.5t-50.5 77t-17.5 104.5z" />
    <glyph glyph-name="uni0423" unicode="&#x423;" horiz-adv-x="1964" 
d="M43 773.5q12 111.5 76 240.5q59 125 153.5 233.5t207 196.5t236.5 151.5t246.5 96t235.5 32.5t203 -41q113 -51 158 -142t38.5 -202.5t-52.5 -235.5t-115 -241q-51 -88 -102.5 -182t-94.5 -186.5t-76 -177.5t-47 -154q-20 -92 1.5 -143.5t66.5 -66.5t106.5 2t120.5 60
q94 68 180 188t154.5 253t118 259t73.5 206q2 12 15.5 28.5t31 26.5t34 11t27.5 -17.5t10 -61.5t-17 -119q-27 -119 -66 -260t-87 -283.5t-101.5 -274.5t-110.5 -232q76 0 147.5 2t133 8t110.5 16.5t78 26.5q33 18 58.5 33.5t42 32t24.5 37t8 49.5q-4 23 4.5 31t20.5 -33
t-20.5 -104.5t-127.5 -104.5q-41 -16 -96 -25.5t-120.5 -13.5t-140.5 -6t-153 -2q-104 -156 -256.5 -266.5t-310.5 -170.5q-133 -51 -250 -59t-202 14.5t-133 67.5t-47 102.5t59.5 117.5t187.5 114q104 43 214 68.5t221.5 40t225 18.5t224.5 4q80 199 152.5 392.5
t127.5 399.5q-29 -63 -70.5 -140t-95 -153.5t-116 -145.5t-133.5 -118q-78 -53 -167 -71.5t-161 3t-114 88t-25 183.5q10 76 42.5 163t75.5 175t90.5 171t90.5 153q68 111 121 233.5t77.5 231t14 194.5t-69.5 123q-82 53 -188.5 56t-222 -32.5t-233.5 -103.5t-221.5 -159
t-187.5 -198.5t-131 -219.5q-53 -127 -64 -227.5t6 -177.5t61 -127t102.5 -75.5t125 -26.5t134.5 23q72 27 136.5 86.5t112.5 134t73.5 151.5t20.5 137.5t-48 93t-131 16.5q-27 -6 -36 -3t-6 9t13 12t25 10q109 29 170 2.5t80.5 -88t-1 -146.5t-75 -172t-141.5 -165
t-201 -125q-82 -35 -165 -31t-156 41t-127 102.5t-78.5 156t-12.5 202zM555 -672q8 -35 53 -56.5t114 -27.5t151.5 5.5t164.5 41.5q137 51 273.5 149t228.5 245q-104 0 -209.5 -7.5t-210 -26t-204 -51t-191.5 -85.5q-100 -57 -139 -104.5t-31 -82.5z" />
    <glyph glyph-name="uni0424" unicode="&#x424;" horiz-adv-x="2234" 
d="M25.5 -167q5.5 48 36 86t89 57.5t146.5 7.5q47 -6 121 -31t188 -78q129 195 244 367q49 74 99 150.5t96.5 146t85 129t63.5 100.5q25 37 70 99.5t101 138t118.5 156.5t122 156t110.5 136t86 98q-80 47 -184.5 98.5t-215 94.5t-220 70.5t-201.5 27.5q-68 2 -139.5 -18.5
t-119.5 -60.5t-55.5 -97t54.5 -131q25 -25 26 -34t-9.5 -10t-25 4t-20.5 11q-10 2 -28.5 24.5t-34.5 55.5q-29 57 -20 132t66.5 136.5t168 91t286.5 -2.5q94 -16 187.5 -57.5t182.5 -91.5t172 -106.5t157 -103.5q57 61 107.5 95t93.5 51q63 25 109 17.5t69.5 -35t21.5 -71
t-39 -90.5q-29 -37 -66.5 -54t-81.5 -19t-91 9t-92 32q-33 -39 -85.5 -112t-112.5 -165t-127 -194.5t-127 -199.5t-111.5 -180t-84.5 -134q-74 -117 -151.5 -219.5t-152 -188.5t-141.5 -156.5t-116 -122.5q147 -61 285 -112q57 -23 119.5 -43.5t123 -39t114 -30.5t96.5 -14
q59 -4 121.5 -6t128 8t132 38.5t134.5 88.5q31 27 50 34t26.5 1t0 -21.5t-33.5 -34.5q-25 -16 -55.5 -47.5t-81 -63.5t-127 -58.5t-193.5 -32.5q-51 -4 -116.5 7t-137.5 31.5t-147.5 48t-145.5 56.5q-166 68 -342 156q-123 -113 -218 -156t-171 -35q-66 6 -110 40t-63.5 78
t-14 92zM80 734.5q0 144.5 76 291.5q53 100 133 171t172 110t188 46t180 -16q119 -31 178.5 -101.5t74 -155.5t-11.5 -172t-75 -149.5t-117.5 -90t-140.5 7.5q-18 8 -34.5 26.5t-20.5 32t8 14.5t53 -26q25 -16 56.5 -16t62.5 11t58.5 30.5t46.5 39.5q43 49 58 118t-1 136.5
t-63.5 123t-129.5 77.5q-84 25 -167.5 7.5t-156.5 -60.5t-132.5 -102.5t-93.5 -120.5q-33 -55 -57.5 -120t-34 -130.5t2 -129t50.5 -114.5q76 -104 196.5 -129t255.5 19.5t271.5 154t244.5 275.5q0 -10 -2 -16.5t-5 -10.5t-7 -9t-4 -16q-51 -106 -124 -191t-156 -146.5
t-166.5 -97.5t-155.5 -44q-156 -18 -271.5 43.5t-177 173t-61.5 256zM119 -206q4 -32 28.5 -57.5t68.5 -38.5t108 -3q72 12 140 53t107 82q-12 6 -24 14q-10 6 -21.5 13.5t-19.5 11.5q-137 55 -219 53q-61 0 -99 -19.5t-55.5 -48t-13.5 -60.5zM1206 524q0 39 6.5 65.5
t10.5 45.5q143 197 279 285t255 106q150 23 258.5 -28.5t164.5 -149.5t53 -230.5t-72 -271.5q-47 -94 -121 -159.5t-158 -102.5t-172 -46t-164 9q-106 27 -161.5 89.5t-70 139t7 155.5t65 137.5t104.5 84t127 -3.5q16 -8 31.5 -24.5t19.5 -27.5t-7 -13t-48 20
q-25 14 -53.5 14t-56 -11t-52.5 -28.5t-39 -35.5q-39 -45 -51 -107.5t3 -123t59 -109.5t118 -68q76 -23 153 -4t145.5 58.5t122.5 96t85 111.5q29 49 50.5 107.5t27.5 118t-5.5 117t-47.5 104.5q-70 92 -176.5 110.5t-226.5 -27.5t-242 -149.5t-222 -253.5zM1882 1554
q35 -14 71 -23t69.5 -11t63.5 8t52 37q43 51 29.5 94t-60.5 45q-29 0 -59.5 -13.5t-61 -36t-57.5 -49t-47 -51.5z" />
    <glyph glyph-name="uni0425" unicode="&#x425;" horiz-adv-x="1652" 
d="M-248 -425q2 30 37 79q121 168 265.5 324.5t302 301t325.5 276.5t336 253q2 147 -2 282.5t-27 231.5q-18 78 -60 118t-100.5 51t-125 -3t-134.5 -45q-43 -20 -84 -51t-79.5 -67t-76.5 -75t-75 -75q-4 -4 -15.5 -2t-20.5 9t-11 21.5t14 36.5q8 10 55.5 53t120 94.5
t162.5 102.5t183.5 79.5t180.5 22.5t152 -67q27 -25 44.5 -83.5t27.5 -139t14 -181t4 -207.5q154 106 291 197.5t255 172.5t215 154.5t171 145.5q57 57 106.5 86t73 28t10 -32t-76.5 -94q-57 -55 -159.5 -129t-239 -166t-300 -201.5t-344.5 -238.5q-2 -106 -3 -214t2 -203
t9.5 -173t18.5 -125q35 -131 103.5 -162t150.5 14t165 154t148 258q6 12 15.5 19.5t17.5 7.5t9 -9.5t-7 -27.5q-113 -236 -235.5 -369t-231 -172t-190.5 12.5t-111 186.5q-8 37 -11 106.5t-3 161.5t2 201.5t4 226.5q-162 -117 -318.5 -241.5t-301 -259t-271.5 -277.5
t-225 -299q-41 -66 -77 -92.5t-56.5 -21.5t-18.5 35z" />
    <glyph glyph-name="uni0426" unicode="&#x426;" horiz-adv-x="2088" 
d="M-5 676.5q-13 107.5 14.5 230.5t102 249t201.5 246t314 222q176 98 353 124t314 -34q76 -33 120 -86t62.5 -120.5t14.5 -147.5t-23 -164q-18 -82 -54 -173t-80 -187.5t-88 -193.5t-77.5 -191.5t-53 -181.5t-11.5 -163q8 -80 49 -112.5t103.5 -15t141.5 85t163 190.5
q51 74 99 162t92 175t83 166t70 136q35 59 65.5 83.5t48.5 24.5q37 -18 40 -54t-13 -80t-44.5 -92t-55.5 -91q-31 -53 -66 -112.5t-66.5 -124t-57 -131t-38.5 -132.5q-25 -129 -3 -188t69 -63.5t110.5 38.5t124.5 119q47 61 95.5 137t83.5 154q14 29 32.5 29t1.5 -37
q-14 -31 -34.5 -72t-46 -85t-53 -89t-56.5 -82q-27 -35 -60.5 -66.5t-72.5 -56t-82 -39t-86 -14.5q-55 0 -90 28.5t-52.5 74.5t-19.5 102.5t6 113.5q-102 -129 -201.5 -194.5t-182.5 -72.5t-140 40t-74 145q-12 70 5.5 157t51 184.5t78.5 200t88 201.5t81 190t57 165
q18 74 27 144.5t6 130t-21.5 103.5t-54.5 67q-63 39 -144.5 48t-172.5 -5.5t-184 -49t-181 -86.5q-205 -121 -328 -268t-176 -295.5t-42 -283t73.5 -225.5t172 -123.5t250.5 20.5q70 27 132.5 87t106.5 135t65.5 151.5t9 135t-61.5 88.5t-147 7q-41 -10 -49 -6t-2 12
t20.5 17.5t20.5 11.5q104 45 169.5 24.5t93 -81t17.5 -148.5t-56 -179t-127 -173t-194 -129q-115 -49 -214 -42t-176 57t-125 135t-61 192.5zM1595 -424q2 47 40 108.5t91.5 119t109.5 102.5t93 61h11.5t1.5 -20q-41 -33 -83 -76t-78 -88t-58.5 -90t-24.5 -80
q0 -29 12 -48.5t47 -19.5q29 0 56.5 20.5t48.5 41.5q4 4 14 5t6 -13q-4 -16 -19.5 -36t-42 -37.5t-60.5 -29.5t-72 -12q-39 0 -67 22.5t-26 69.5z" />
    <glyph glyph-name="uni0427" unicode="&#x427;" horiz-adv-x="2088" 
d="M-5 676.5q-13 107.5 14.5 230.5t102 249t201.5 246t314 222q176 98 353 124t314 -34q76 -33 120 -86t62.5 -120.5t14.5 -147.5t-23 -164q-29 -121 -68.5 -220t-75.5 -185t-57.5 -167t-11.5 -165q8 -78 49.5 -111t102.5 -16.5t140 84t165 188.5q16 25 36.5 51.5t45.5 60.5
t52.5 77t58.5 100q35 59 65.5 83.5t48.5 24.5q37 -18 40 -54t-13 -80t-44.5 -92t-55.5 -91q-31 -53 -66 -112.5t-66.5 -124t-57 -131t-38.5 -132.5q-25 -129 -3 -188t69 -63.5t110.5 38.5t124.5 119q47 61 95.5 137t83.5 154q14 29 32.5 29t1.5 -37q-14 -31 -34.5 -72
t-46 -85t-53 -89t-56.5 -82q-27 -35 -60.5 -66.5t-72.5 -56t-82 -39t-86 -14.5q-55 0 -101.5 39t-58.5 120t21.5 207.5t136.5 305.5q-102 -129 -203.5 -194.5t-185.5 -73t-141.5 39.5t-67.5 146q-12 102 8 190t55 174t75 178.5t69 202.5q18 74 27 144.5t6 130t-21.5 103.5
t-54.5 67q-63 39 -144.5 48t-172.5 -5.5t-184 -49t-181 -86.5q-205 -121 -328 -268t-176 -295.5t-42 -283t73.5 -225.5t172 -123.5t250.5 20.5q70 27 132.5 87t106.5 135t65.5 151.5t9 135t-61.5 88.5t-147 7q-41 -10 -49 -6t-2 12t20.5 17.5t20.5 11.5q104 45 169.5 24.5
t93 -81t17.5 -148.5t-56 -179t-127 -173t-194 -129q-115 -49 -214 -42t-176 57t-125 135t-61 192.5z" />
    <glyph glyph-name="uni0428" unicode="&#x428;" horiz-adv-x="2703" 
d="M-5 676.5q-13 107.5 14.5 230.5t102 249t201.5 246t314 222q176 98 353 124t314 -34q76 -33 120 -86t62.5 -120.5t14.5 -147.5t-23 -164q-18 -82 -54 -173t-80 -187.5t-88 -193.5t-77.5 -191.5t-53 -181.5t-11.5 -163q8 -80 49 -112.5t103.5 -15t141.5 85t163 190.5
q51 74 99 162t92 175t83 166t70 136q35 59 65.5 83.5t48.5 24.5q37 -18 40 -54t-13 -80t-45 -92t-55 -91q-31 -53 -70 -121.5t-73 -139.5t-58.5 -134.5t-26.5 -104.5q-6 -111 30 -164t99.5 -46.5t148.5 76t179 204.5q51 74 99 162t92 175t83 166t70 136q35 59 65.5 83.5
t49.5 24.5q37 -18 40 -54t-13.5 -80t-45 -92t-55.5 -91q-31 -53 -65.5 -112.5t-66.5 -124t-57.5 -131t-37.5 -132.5q-25 -129 -3.5 -188t68.5 -63.5t110.5 38.5t125.5 119q47 61 95 137t83 154q14 29 32.5 29t2.5 -37q-14 -31 -35 -72t-46.5 -85t-53 -89t-56.5 -82
q-27 -35 -60.5 -66.5t-72.5 -56t-82 -39t-86 -14.5q-55 0 -90 28.5t-52.5 74.5t-19.5 102.5t7 113.5q-129 -160 -241 -219t-195 -45.5t-131 86t-48 178.5q-102 -129 -201.5 -194.5t-182.5 -72.5t-140 40t-74 145q-12 70 5.5 157t51 184.5t78.5 200t88 201.5t81 190t57 165
q18 74 27 144.5t6 130t-21.5 103.5t-54.5 67q-63 39 -144.5 48t-172.5 -5.5t-184 -49t-181 -86.5q-205 -121 -328 -268t-176 -295.5t-42 -283t73.5 -225.5t172 -123.5t250.5 20.5q70 27 132.5 87t106.5 135t65.5 151.5t9 135t-61.5 88.5t-147 7q-41 -10 -49 -6t-2 12
t20.5 17.5t20.5 11.5q104 45 169.5 24.5t93 -81t17.5 -148.5t-56 -179t-127 -173t-194 -129q-115 -49 -214 -42t-176 57t-125 135t-61 192.5z" />
    <glyph glyph-name="uni0429" unicode="&#x429;" horiz-adv-x="2703" 
d="M-5 676.5q-13 107.5 14.5 230.5t102 249t201.5 246t314 222q176 98 353 124t314 -34q76 -33 120 -86t62.5 -120.5t14.5 -147.5t-23 -164q-18 -82 -54 -173t-80 -187.5t-88 -193.5t-77.5 -191.5t-53 -181.5t-11.5 -163q8 -80 49 -112.5t103.5 -15t141.5 85t163 190.5
q51 74 99 162t92 175t83 166t70 136q35 59 65.5 83.5t48.5 24.5q37 -18 40 -54t-13 -80t-45 -92t-55 -91q-31 -53 -70 -121.5t-73 -139.5t-58.5 -134.5t-26.5 -104.5q-6 -111 30 -164t99.5 -46.5t148.5 76t179 204.5q51 74 99 162t92 175t83 166t70 136q35 59 65.5 83.5
t49.5 24.5q37 -18 40 -54t-13.5 -80t-45 -92t-55.5 -91q-31 -53 -65.5 -112.5t-66.5 -124t-57.5 -131t-37.5 -132.5q-25 -129 -3.5 -188t68.5 -63.5t110.5 38.5t125.5 119q47 61 95 137t83 154q14 29 32.5 29t2.5 -37q-14 -31 -35 -72t-46.5 -85t-53 -89t-56.5 -82
q-27 -35 -60.5 -66.5t-72.5 -56t-82 -39t-86 -14.5q-55 0 -90 28.5t-52.5 74.5t-19.5 102.5t7 113.5q-129 -160 -241 -219t-195 -45.5t-131 86t-48 178.5q-102 -129 -201.5 -194.5t-182.5 -72.5t-140 40t-74 145q-12 70 5.5 157t51 184.5t78.5 200t88 201.5t81 190t57 165
q18 74 27 144.5t6 130t-21.5 103.5t-54.5 67q-63 39 -144.5 48t-172.5 -5.5t-184 -49t-181 -86.5q-205 -121 -328 -268t-176 -295.5t-42 -283t73.5 -225.5t172 -123.5t250.5 20.5q70 27 132.5 87t106.5 135t65.5 151.5t9 135t-61.5 88.5t-147 7q-41 -10 -49 -6t-2 12
t20.5 17.5t20.5 11.5q104 45 169.5 24.5t93 -81t17.5 -148.5t-56 -179t-127 -173t-194 -129q-115 -49 -214 -42t-176 57t-125 135t-61 192.5zM2208 -424q2 47 40 108.5t91 119t109.5 102.5t93.5 61h11t1 -20q-41 -33 -83 -76t-78 -88t-58.5 -90t-24.5 -80q0 -29 12.5 -48.5
t47.5 -19.5q29 0 56.5 20.5t47.5 41.5q4 4 14.5 5t5.5 -13q-4 -16 -19 -36t-42 -37.5t-60.5 -29.5t-72.5 -12t-66.5 22.5t-25.5 69.5z" />
    <glyph glyph-name="uni042A" unicode="&#x42a;" horiz-adv-x="2209" 
d="M-5 676.5q-13 107.5 14.5 230.5t102 249t201.5 246t314 222q176 98 353 124t314 -34q76 -33 120 -86t62.5 -120.5t14 -147.5t-22.5 -164q-29 -121 -91 -264.5t-125.5 -289.5t-109.5 -284.5t-38 -251.5q6 -100 76.5 -163.5t172 -86t219.5 -3t220 82t174 169t82 260.5
q6 92 -22.5 174t-80 143t-119 98t-139 37t-143 -42t-129.5 -134q-14 -23 -22.5 -26t-12.5 4.5t-4 20.5t4 24q41 98 114 149t158 60.5t173 -21.5t158.5 -97.5t114.5 -164.5t42 -225q-2 -131 -50 -235.5t-126 -181.5t-176 -124t-202.5 -65.5t-206 -6.5t-184.5 55t-138.5 118
t-69.5 181q-8 70 9.5 157t51 184.5t77.5 200t87 201.5t80 190t56 165q18 74 27 144.5t6 130t-21.5 103.5t-54.5 67q-63 39 -144.5 48t-172.5 -5.5t-184 -49t-181 -86.5q-154 -90 -261.5 -196.5t-173 -219t-92 -223t-19.5 -208t46 -176t103.5 -126t152.5 -57.5t194 31
q70 27 132.5 87t106.5 135t65.5 151.5t9 135t-61.5 88.5t-147 7q-41 -10 -49 -6t-2 12t20.5 17.5t20.5 11.5q104 45 169.5 24.5t93 -81t17.5 -148.5t-56 -179t-127 -173t-194 -129q-115 -49 -214 -42t-176 57t-125 135t-61 192.5z" />
    <glyph glyph-name="uni042B" unicode="&#x42b;" horiz-adv-x="2039" 
d="M205 106q-10 70 8 157t52 184.5t78 200t87 201.5t80 190t55 165t28.5 144.5t7.5 130t-21.5 103.5t-57.5 67q-47 27 -63.5 44t-12 25t22.5 7t43 -11q76 -31 120 -84t62.5 -121.5t14.5 -148.5t-23 -164q-18 -80 -54 -172t-78 -188.5t-86 -193.5t-79 -191.5t-54.5 -182.5
t-12.5 -162q6 -74 47 -128t105.5 -86.5t145 -43t165.5 3t167 51.5t148.5 101.5t110.5 153.5t55 207q6 90 -21.5 171.5t-79 144t-119 98.5t-140 37t-144.5 -41t-129 -134q-14 -23 -22.5 -26t-12.5 4.5t-4 20.5t4 24q41 98 113.5 149t158.5 60.5t174.5 -21.5t159 -97.5
t114.5 -164.5t40 -225q-4 -131 -52.5 -235.5t-126 -181.5t-176 -124t-202 -65.5t-204.5 -6.5t-183 55t-138.5 118t-70.5 181zM1497 137q12 68 29.5 135.5t36 128t36 110.5t27.5 81q8 23 40 107.5t78 200.5t101.5 248t109.5 246.5t103 197.5t82 104q25 14 56.5 17t54 0
t29 -12t-20.5 -22q-18 -8 -50 -56t-75 -126t-92 -181.5t-98.5 -221t-97.5 -246.5t-89 -256q-10 -31 -27.5 -83t-36 -114.5t-36 -131t-29.5 -132.5q-25 -129 0 -191.5t75 -69.5t115.5 35t125.5 120q49 66 100 155.5t110 206.5q16 35 32 29t-1 -43q-29 -59 -53.5 -111.5
t-49 -100.5t-52 -94.5t-60.5 -91.5q-82 -115 -160.5 -158.5t-156.5 -27.5q-100 20 -139 116.5t-17 231.5z" />
    <glyph glyph-name="uni042C" unicode="&#x42c;" horiz-adv-x="1429" 
d="M205 106q-10 70 8 157t52 184.5t78 200t87 201.5t80 190t55 165t28.5 144.5t7.5 130t-21.5 103.5t-57.5 67q-47 27 -63.5 44t-12 25t22.5 7t43 -11q76 -31 120 -84t62.5 -121.5t14.5 -148.5t-23 -164q-18 -80 -54 -172t-78 -188.5t-86 -193.5t-79 -191.5t-54.5 -182.5
t-12.5 -162q6 -74 47 -128t105.5 -86.5t145 -43t165.5 3t167 51.5t148.5 101.5t110.5 153.5t55 207q6 90 -21.5 171.5t-79 144t-119 98.5t-140 37t-144.5 -41t-129 -134q-14 -23 -22.5 -26t-12.5 4.5t-4 20.5t4 24q41 98 113.5 149t158.5 60.5t174.5 -21.5t159 -97.5
t114.5 -164.5t40 -225q-4 -131 -52.5 -235.5t-126 -181.5t-176 -124t-202 -65.5t-204.5 -6.5t-183 55t-138.5 118t-70.5 181z" />
    <glyph glyph-name="uni042D" unicode="&#x42d;" horiz-adv-x="1814" 
d="M219 397q2 16 8 20.5t11.5 0.5t8.5 -14.5t1 -20.5q-10 -150 30.5 -245t116.5 -148q72 -51 156 -76t174 -35q145 -16 263 14.5t217.5 94t182 153.5t156.5 195q27 37 68 126t76.5 203.5t55 243.5t1 246t-83 208t-197.5 132q-104 31 -217.5 35t-224.5 -25
q-152 -39 -253 -112.5t-156.5 -157.5t-66.5 -169t17.5 -146.5t96 -89t167.5 3.5q53 16 90 59t57.5 98.5t26 115.5t-3.5 110q-4 16 11.5 12t25.5 -27q20 -53 14 -115.5t-33.5 -121t-72.5 -103.5t-100 -65q-115 -41 -202 -15.5t-134 93t-49 164t53 195.5t175 187t314 142
q127 35 264.5 33.5t280.5 -62.5q129 -55 207 -148.5t111.5 -211t28.5 -250.5t-43 -266.5t-103.5 -259.5t-153.5 -228t-180 -178t-195.5 -124t-220 -65.5t-252.5 -1.5q-106 12 -202.5 55.5t-175.5 100.5q-106 84 -135 197.5t-11 242.5zM891 569q20 33 52 61.5t73 49t90 31
t106 6.5q53 -4 103.5 -17.5t98.5 -29t97.5 -28.5t98.5 -15q66 -8 109.5 17.5t68.5 72.5q4 4 17.5 5t25.5 0t21.5 -5t7.5 -8q-23 -35 -54.5 -66t-72.5 -54.5t-92.5 -34.5t-110.5 -7q-53 4 -102.5 19.5t-97.5 31.5t-96 30.5t-97 18.5q-59 4 -104.5 -21.5t-67.5 -66.5
q-2 -4 -15.5 -5t-28 0t-24.5 5t-6 10z" />
    <glyph glyph-name="uni042E" unicode="&#x42e;" horiz-adv-x="3653" 
d="M8 379q12 49 44 96t70 83t74.5 58.5t61.5 22.5q33 0 27 -11.5t-23 -17.5q-25 -10 -57.5 -38.5t-63 -70.5t-55.5 -96.5t-33 -117.5q-14 -111 14.5 -196t85 -144.5t135.5 -97t164 -55t171 -16.5t157 17q215 49 376 145.5t277.5 219.5t194.5 262t129 272q-33 0 -63.5 -9
t-59.5 -23q-8 -4 -22.5 -8.5t-25.5 -4.5t-15 7.5t8 27.5q14 23 50 48.5t77 29.5h80q39 96 84 199.5t88 195.5t76.5 164t50.5 104q-100 -12 -205.5 -19t-208 -21.5t-198 -42t-177.5 -78t-144 -129t-99 -197.5q-27 -84 -16.5 -156.5t47 -122t98 -67t139.5 11.5q57 20 96 74.5
t60.5 114t27.5 110.5t-4 66q-8 12 -7 20t7 10t13.5 -1t13.5 -15q29 -63 21.5 -129t-39 -123t-82 -101t-105.5 -65q-92 -35 -177 -13.5t-145.5 81t-86 148.5t-1.5 190q33 129 107 214t173 138t219 80t242 39t240.5 17t219.5 16q6 8 21 32.5t37.5 51t48.5 49t50 30.5
q45 12 81 -1t36 -56q0 -37 -26.5 -64.5t-63.5 -47t-79 -29.5t-73 -10q-18 -39 -43.5 -96.5t-51.5 -124t-52.5 -137.5t-50 -132t-41 -108.5t-25.5 -69.5q102 0 179 -4t137.5 -9.5t112.5 -9.5t106 -4q59 150 156.5 280t210 214t231 109.5t221.5 -31.5q23 -12 13.5 -23.5
t-30.5 -5.5q-80 25 -175 -16t-187 -127t-174 -205t-137.5 -251t-76 -265t12.5 -248q37 -127 113 -186.5t172 -66.5t204.5 34t211.5 119q180 135 284.5 306t137 345t-4 337t-139 281.5t-269.5 178t-392 30.5q-121 -16 -206 -69.5t-133 -135.5t-58.5 -187t18.5 -224
q8 -35 -10.5 -44.5t-38.5 31.5q-57 117 -47 228.5t71.5 204t163.5 156t231 85.5q227 39 395.5 11.5t282 -103.5t177 -190.5t79 -250.5t-13.5 -283.5t-98.5 -289t-177 -268.5t-248.5 -219q-100 -66 -218 -99.5t-228.5 -22.5t-203 74.5t-143.5 192.5q-49 123 -46 258.5
t44 268.5q-35 0 -95.5 2t-133 6t-151.5 7t-148 7q-59 -178 -158.5 -352t-235 -316.5t-303.5 -240.5t-366 -123q-176 -23 -340 15t-282 131.5t-169 237.5t-2 337zM2183 1481q66 10 94.5 26.5t34.5 32.5t-3 27.5t-17 11.5q-8 4 -21.5 -6t-30 -25.5t-32 -34t-25.5 -32.5z" />
    <glyph glyph-name="uni042F" unicode="&#x42f;" horiz-adv-x="2295" 
d="M53.5 320.5q-16.5 130.5 34.5 293.5q23 72 67 122t87 76t72.5 25t25.5 -34q-12 -16 -42 -34.5t-63.5 -49.5t-63.5 -78t-42 -121q-18 -104 -2 -193t59 -161t106.5 -125t139.5 -90t157 -54.5t161 -15.5q121 2 222 26.5t187 65.5t156.5 96.5t130.5 118.5q47 51 107.5 121
t122 151t120.5 168t107 175q10 4 28.5 5t44.5 -15q-88 -188 -198.5 -365.5t-249.5 -337.5q-82 -92 -198 -154.5t-249 -94t-272 -33t-267 30.5t-234.5 95.5t-172 159.5t-82 226.5zM1357.5 1017q-26.5 75 2.5 157.5t106.5 155.5t204.5 130.5t299 81.5q227 33 446.5 16.5
t393.5 -79t286.5 -172t125.5 -263.5q10 -129 -51.5 -210.5t-156 -111.5t-199.5 -6.5t-183 105.5q-66 68 -80 166q0 8 3 17.5t8 12.5t9 -2t6 -24q2 -20 20.5 -56t57.5 -77q43 -47 98.5 -70.5t111.5 -25.5t107.5 15.5t88.5 54t53 90t2 122.5q-25 117 -92.5 201t-162.5 138.5
t-211 83t-234.5 36.5t-234.5 0t-212 -28q-131 -27 -230.5 -80.5t-160.5 -117t-85 -133t-4.5 -129t82 -104.5t175.5 -59q94 -12 182 -19.5t170 -11.5q8 0 11.5 -11t0 -23.5t-11.5 -21.5t-20 -9q-96 4 -193.5 8t-197.5 27q-141 31 -222.5 91t-108 135zM1883 128
q3 67 21.5 143.5t42 150.5t46 137.5t35.5 104.5q6 25 34.5 90t69.5 153t91 187.5t101.5 189.5t99.5 162t85 104q41 37 62.5 45.5t29.5 0t4 -26t-16 -33.5q-10 -12 -59.5 -82t-116 -184.5t-139 -269t-128.5 -336.5q-10 -31 -27.5 -83.5t-37 -117t-36.5 -133t-25.5 -130
t-5.5 -110.5t26 -74q20 -23 50 -23.5t64 23.5q39 29 75 72t68 93t60.5 103.5t52.5 102.5q16 35 32 29t-1 -43q-41 -84 -71.5 -142.5t-58 -101.5t-56.5 -76t-64 -65q-53 -53 -115.5 -68.5t-115.5 12.5q-47 25 -63.5 77t-13.5 119z" />
    <glyph glyph-name="uni0430" unicode="&#x430;" horiz-adv-x="716" 
d="M53 226.5q10 74.5 50 163.5t118 181q45 55 109.5 94.5t131 55.5t129 4t105.5 -59q23 -23 13.5 -43.5t-35.5 -16.5q-16 57 -66.5 69.5t-107.5 -18.5q-70 -39 -143.5 -119.5t-129.5 -172.5q-6 -10 -18 -33t-25.5 -52.5t-25 -61.5t-15.5 -60q-8 -53 7.5 -78t43 -25
t64.5 23.5t74 66.5q53 66 97 138.5t85 148.5q35 66 62.5 100.5t76.5 30.5q20 -2 42 -7t44 -1q-16 -16 -43.5 -60t-57.5 -100.5t-54.5 -116t-34.5 -106.5q-25 -123 20 -123q33 -2 72 39t77 98.5t68.5 115.5t47.5 91q14 27 28 21t0 -37q-23 -47 -56.5 -110.5t-74.5 -123
t-87 -101.5t-91 -46q-25 -2 -53.5 9t-47 41t-21.5 82t20 132q-25 -41 -64 -95t-84 -97q-59 -57 -109.5 -67.5t-85 15t-50 81t-5.5 130z" />
    <glyph glyph-name="uni0431" unicode="&#x431;" 
d="M67.5 234.5q10.5 66.5 38.5 134.5q31 70 76 133t97.5 110t107.5 75t109 26q57 0 92 -33t46 -86t1 -119.5t-39 -134.5q-23 -53 -68 -119.5t-104 -122.5q27 -51 96 -51q49 0 93 41t81 98.5t65.5 116.5t47.5 96q8 16 24.5 10.5t6.5 -28.5q-12 -29 -40 -90.5t-69 -123
t-95 -108.5t-118 -47q-47 0 -78.5 15.5t-52.5 38.5q-43 -33 -88 -52.5t-90 -17.5q-59 2 -93 34.5t-45.5 85t-1 119zM178 156q-4 -45 6.5 -75t38.5 -38q29 -8 66 6t73 45q-16 25 -24 51.5t-8 49.5q2 35 17 61.5t54 26.5q27 0 44.5 -18.5t17.5 -43.5q0 -6 -1 -11t-3 -11
q35 51 63 110q31 63 47.5 120.5t18.5 103t-10 75t-39 37.5q-33 8 -72 -9.5t-78 -55t-76 -90t-65 -113.5q-31 -63 -48.5 -119.5t-21.5 -101.5zM349 1412q-5 66 18 132q31 96 106.5 131t185.5 29q49 -2 91.5 -13.5t80 -25.5t77.5 -25.5t87 -13.5q63 -4 104.5 17.5t67.5 58.5
q2 4 13.5 5t24 0t21.5 -4t7 -5q-23 -31 -52.5 -62.5t-68.5 -57.5t-86 -41t-102 -11q-49 2 -90 15t-80 27.5t-79 27t-89 14.5q-55 4 -91 -26t-55 -83q-14 -43 -17 -82t4 -86t23.5 -106.5t45.5 -139.5q12 -35 57 -160.5t84 -351.5q4 -23 -5 -12.5t-24 31.5q-16 23 -37 59
q-20 111 -55 215.5t-63 188.5q-16 47 -40 105.5t-41.5 121t-22.5 128.5z" />
    <glyph glyph-name="uni0432" unicode="&#x432;" horiz-adv-x="706" 
d="M-44 95q-7 11 3 26q31 41 67.5 104.5t77.5 140t84 163.5t88 173q76 145 168.5 303t194.5 287q68 82 135.5 157t136 131t140 91t149.5 39q76 4 117 -20.5t52 -69.5t-3 -105.5t-48 -127t-85 -136t-113 -131.5q-133 -133 -304 -223t-415 -168q-23 -43 -44 -82t-38 -74
q-39 -78 -71.5 -164.5t-46 -163.5t-1 -131.5t65.5 -64.5q68 -14 176 117q43 51 85 121.5t69 132.5q20 51 28.5 98t1 84t-33 56.5t-74.5 15.5q-23 -2 -34 6t-9 17.5t19.5 16.5t52.5 1q55 -8 92 -36t56.5 -68t22.5 -88t-7 -97q-14 -66 -44 -131.5t-73 -122.5t-98.5 -99
t-118.5 -59q-88 -25 -148.5 -16.5t-94.5 39.5t-44 79t4 103q12 47 36 104.5t54 120.5q-72 -135 -125 -228t-84 -122q-12 -10 -19 1zM94 827q2 14 11.5 20.5t18.5 4.5t15 -9t6 -22v-4q8 -49 56.5 -60.5t103.5 -4.5l-24 -50q-45 -6 -88 4.5t-72 45.5q-14 16 -22.5 35.5
t-4.5 39.5zM438 793q166 47 335 136t306 230q74 76 130.5 161t82 156.5t12 118.5t-76.5 47q-68 0 -140.5 -43t-146.5 -114.5t-144.5 -162.5t-136 -185.5t-122 -184t-99.5 -159.5z" />
    <glyph glyph-name="uni0433" unicode="&#x433;" horiz-adv-x="591" 
d="M69 285.5q-1 9.5 7 25.5q23 47 56.5 112.5t76.5 126t94 103.5t111 43q20 0 51 -10t52.5 -36.5t24.5 -69.5t-32 -109q-18 -35 -45 -73t-52.5 -76.5t-46 -79.5t-26.5 -84q-4 -27 3 -48.5t21.5 -36t33 -21.5t36.5 -5q39 4 82 48t82 101.5t69.5 115t47.5 89.5q12 27 27.5 20
t0.5 -38q-23 -47 -56.5 -112.5t-76.5 -125t-94 -102.5t-110 -45q-31 0 -68 10t-64.5 38t-37 75t15.5 117q14 39 37.5 77.5t49.5 77.5t50.5 78t40.5 80q12 29 10 47t-11 29.5t-21.5 15.5t-22.5 4q-41 0 -83 -43t-81 -101.5t-69.5 -117.5t-47.5 -92q-6 -14 -14 -18.5t-14 -1.5
t-7 12.5z" />
    <glyph glyph-name="uni0434" unicode="&#x434;" horiz-adv-x="802" 
d="M-217 -489q0 76 52 134t126 101q76 45 147.5 76t140 55.5t133 45t124.5 44.5q18 53 29.5 109.5t17.5 118.5q6 59 6 105t-4 62q-25 -47 -67 -115.5t-94 -128t-111.5 -94t-120.5 -16.5q-78 33 -97.5 99.5t-1 147.5t64.5 165t103 151q45 55 103.5 93t122 53.5t128 4.5
t122.5 -56q27 -23 29.5 -43.5t-6.5 -31.5t-23.5 -9t-22.5 24q-20 55 -56 69.5t-81 -1t-95.5 -54t-97.5 -90.5q-55 -63 -102 -137t-72.5 -140.5t-24.5 -116.5t42 -68q45 -18 101 21.5t108.5 106t93.5 140.5t55 123q10 35 26.5 49t35 18t36 4t29.5 11q20 -123 13 -249
t-40 -249q37 27 75 59.5t69 73.5q51 68 76.5 128.5t42.5 88.5q14 27 29 21t1 -37q-39 -80 -71.5 -143.5t-68.5 -111.5t-77 -84t-98 -63q-35 -96 -99.5 -205.5t-151.5 -201.5t-191.5 -153.5t-215.5 -61.5q-193 0 -192 158zM-169 -492.5q-11 -46.5 10.5 -80t84.5 -33.5
q33 0 71 11t72.5 27.5t65.5 35t49 32.5q47 39 94.5 91.5t90.5 109.5q75 107 116 207q-16 -6 -34.5 -12.5t-36.5 -12.5q-113 -39 -233 -85t-218 -111q-49 -33 -85 -83t-47 -96.5z" />
    <glyph glyph-name="uni0435" unicode="&#x435;" horiz-adv-x="503" 
d="M63 188q0 45 11.5 96.5t33 101.5t50 97t63.5 88q39 45 86 82t94.5 56.5t91.5 19.5t78 -24q29 -23 34 -58t-11 -77t-51 -85t-84 -79q-25 -18 -58.5 -35t-70.5 -29t-70 -19.5t-53 -7.5q-12 -29 -21.5 -75.5t-6.5 -92t24.5 -79t72.5 -33.5q68 0 122.5 40t96.5 95t71.5 114.5
t47.5 100.5q6 14 15.5 21.5t16.5 7.5t10 -7.5t-5 -23.5q-29 -61 -61.5 -130t-77.5 -127t-105.5 -96t-146.5 -38q-78 0 -136 49t-61 147zM221 350q14 0 39 5t55.5 16.5t62 28.5t60.5 40q41 35 69 78t38 80t4 61.5t-30.5 23.5t-67.5 -33t-107 -107q-41 -49 -74.5 -106.5
t-48.5 -86.5z" />
    <glyph glyph-name="uni0436" unicode="&#x436;" horiz-adv-x="1497" 
d="M90 338q37 80 74 149.5t83 122t106.5 82t144.5 29.5q80 0 127 -28.5t67.5 -75t17.5 -105.5t-22.5 -122.5t-51.5 -125t-69 -110.5q-57 -78 -128.5 -120t-145.5 -42q-78 0 -114 39t-27 102q2 25 18 51.5t36.5 45t43 23.5t39.5 -11q-16 -20 -36 -48t-28 -57
q-14 -53 -0.5 -76.5t41.5 -23.5q27 0 56.5 16.5t59.5 41t55.5 56t47.5 62.5q14 20 34 55t37 77t29.5 89t12.5 92q0 61 -27.5 109.5t-93.5 48.5q-68 0 -120 -34t-95 -86t-77.5 -115.5t-65.5 -124.5q-14 -29 -28.5 -23t-0.5 37zM602 245.5q0 12.5 4 22.5q6 12 15 27l51 65
q6 8 29.5 37t56.5 67t71.5 79t74.5 74.5t66.5 53t49.5 13.5q29 -10 37 -34.5t-6 -55.5q-29 -66 -71 -138.5t-79 -148.5q31 39 77 91.5t93 93.5q12 10 32.5 28.5t44 38t47.5 36.5t42 30l-20 -37q-10 -14 -18.5 -28.5t-18.5 -18.5q-18 -10 -51 -44t-62 -59q-33 -31 -79 -84
t-89 -113.5t-77 -122t-44 -106.5q-35 0 -54 34t-11 79q10 68 33.5 122t52.5 111q25 53 37 79t5 26t-38 -27.5t-88 -81.5q-39 -35 -57.5 -59.5t-45.5 -71.5q-10 10 -10 22.5zM1021 200.5q3 59.5 22.5 123t51 125t68.5 110.5q57 78 129 120t146 42q78 0 113.5 -39t27.5 -102
q-4 -25 -19.5 -51.5t-36 -45t-43 -23.5t-38.5 11q16 20 35.5 48t27.5 56q14 53 1 77t-42 24t-57.5 -16.5t-58 -41t-56 -56.5t-47.5 -62q-14 -20 -33.5 -55t-37 -77t-29.5 -89.5t-12 -92.5q0 -61 27.5 -109t92.5 -48q68 0 120 33.5t95 86t78 116t66 124.5q14 29 28 23t0 -37
q-37 -80 -73.5 -149.5t-82.5 -122t-106.5 -82t-144.5 -29.5q-80 0 -127 28.5t-67.5 74.5t-17.5 105.5z" />
    <glyph glyph-name="uni0437" unicode="&#x437;" horiz-adv-x="698" 
d="M-395 -476.5q-2 58.5 39 122.5q41 61 121.5 109t181 87t209 72t206.5 63q12 37 23.5 89.5t12.5 98.5t-14 75.5t-60 21.5q-20 -10 -43 -19.5t-48 -19.5q-12 -4 -21 0t-12 11.5t1 15.5t16 12q51 14 89 39t65.5 51.5t46 50t28.5 39.5q37 55 23 101.5t-56 64t-97.5 -4
t-102.5 -101.5q-10 -16 -23.5 -41t-29 -52.5t-29.5 -57t-27 -54.5q-12 -27 -26.5 -19.5t2.5 41.5q29 53 57.5 113t63.5 121q47 86 113.5 126t127 41t101.5 -33t39 -95q-4 -68 -53.5 -145.5t-147.5 -137.5q78 2 108.5 -37t32.5 -96q0 -10 -2 -30.5t-5 -43t-7 -43t-8 -32.5
q51 10 95 44.5t83 85t72.5 112t64.5 124.5q14 27 28.5 21t0.5 -37q-35 -72 -71 -138.5t-78 -121t-92 -92t-116 -50.5q-78 -217 -232.5 -373.5t-377.5 -222.5q-78 -23 -139.5 -8t-96 54.5t-36.5 98zM-323.5 -475q-8.5 -57 24.5 -92t113 -19q59 12 134 53t149.5 107t140 154.5
t106.5 197.5q-68 -23 -139.5 -42t-138 -40.5t-126 -45t-104.5 -50.5q-68 -39 -109.5 -102.5t-50 -120.5z" />
    <glyph glyph-name="uni0438" unicode="&#x438;" horiz-adv-x="731" 
d="M49 157.5q4 30.5 15.5 60.5t26.5 57.5t30 56.5q-10 0 -19.5 6t0.5 27q10 16 18.5 34.5t18.5 36.5q31 59 61.5 118.5t53.5 107.5q12 25 31.5 34t48.5 9h125q-18 -12 -32.5 -25.5t-30 -32t-32 -45.5t-36.5 -70q-29 -53 -52 -102q-23 -43 -43 -88t-34 -74q-37 -80 -41 -133
t15.5 -74.5t58 -6t87.5 72.5q43 49 85 116.5t81 140.5t75 144.5t65 133.5q12 25 31.5 34t48.5 9h110q-23 -18 -39 -34t-31.5 -37.5t-32 -53t-38.5 -78.5q-23 -43 -44.5 -89t-41 -90t-33.5 -82t-18 -65q-14 -66 1 -93.5t37 -29.5q37 0 75 33t73 83t66.5 110.5t58.5 115.5
q12 27 27.5 20t1.5 -38q-25 -53 -58 -117.5t-73.5 -122t-90 -96.5t-104.5 -39q-35 0 -61.5 17.5t-40 51t-13.5 83t21 110.5q-27 -47 -58.5 -93t-67.5 -84t-75 -61.5t-76 -23.5q-16 0 -35.5 3t-38 13.5t-34 29t-21.5 46.5q-6 33 -2 63.5z" />
    <glyph glyph-name="uni0439" unicode="&#x439;" horiz-adv-x="731" 
d="M49 157.5q4 30.5 15.5 60.5t26.5 57.5t30 56.5q-10 0 -19.5 6t0.5 27q10 16 18.5 34.5t18.5 36.5q31 59 61.5 118.5t53.5 107.5q12 25 31.5 34t48.5 9h125q-18 -12 -32.5 -25.5t-30 -32t-32 -45.5t-36.5 -70q-29 -53 -52 -102q-23 -43 -43 -88t-34 -74q-37 -80 -41 -133
t15.5 -74.5t58 -6t87.5 72.5q43 49 85 116.5t81 140.5t75 144.5t65 133.5q12 25 31.5 34t48.5 9h110q-23 -18 -39 -34t-31.5 -37.5t-32 -53t-38.5 -78.5q-23 -43 -44.5 -89t-41 -90t-33.5 -82t-18 -65q-14 -66 1 -93.5t37 -29.5q37 0 75 33t73 83t66.5 110.5t58.5 115.5
q12 27 27.5 20t1.5 -38q-25 -53 -58 -117.5t-73.5 -122t-90 -96.5t-104.5 -39q-35 0 -61.5 17.5t-40 51t-13.5 83t21 110.5q-27 -47 -58.5 -93t-67.5 -84t-75 -61.5t-76 -23.5q-16 0 -35.5 3t-38 13.5t-34 29t-21.5 46.5q-6 33 -2 63.5zM379 1010q-10 53 2 72.5t29 19.5
q8 0 12 -8.5t9 -20.5t11.5 -25.5t18.5 -25.5q33 -31 64.5 -41t76.5 -10q43 0 73 8t51.5 22.5t39 33.5t35.5 44q14 16 31.5 15.5t13.5 -17.5q-37 -82 -112 -129t-173 -47q-27 0 -56.5 6t-56 19.5t-46 34t-23.5 49.5z" />
    <glyph glyph-name="uni043A" unicode="&#x43a;" horiz-adv-x="706" 
d="M-80 -6q74 147 140.5 290.5t142.5 282.5q39 74 67.5 102.5t77.5 26.5q20 -2 42 -7t44 -1q-18 -10 -41.5 -38.5t-50.5 -68.5t-54 -87.5t-52 -96.5q33 41 72.5 86t84.5 86t92 75t95 52q80 29 127 23t63 -35q8 -25 4 -47.5t-17.5 -38.5t-34 -23.5t-42.5 -1.5q-2 20 -23.5 34
t-58.5 11.5t-87 -23t-105 -63.5q-47 -137 -40 -244.5t50 -167t108.5 -62.5t134.5 71q39 41 81 115.5t85 165.5q12 25 24.5 15.5t2.5 -34.5q-61 -139 -115.5 -220t-104.5 -121t-96.5 -48t-91.5 -4q-29 2 -58.5 13.5t-56 35t-48 58t-29.5 88.5q-10 66 -9 108.5t7 71.5
q-27 -35 -54.5 -74t-48.5 -80q-12 -25 -29.5 -65.5t-49.5 -116.5q-12 -23 -28.5 -27t-49.5 -4q-23 -2 -38 -2t-32 -10z" />
    <glyph glyph-name="uni043B" unicode="&#x43b;" horiz-adv-x="817" 
d="M-3.5 195q15.5 41 44.5 52t49.5 -10.5t-6.5 -78.5q-8 -16 -4 -35t15 -34t28.5 -24.5t36.5 -9.5q35 2 60 9.5t48 27.5q41 35 75 85t63.5 107.5t55 117t48 111.5t43 92t43.5 61q16 16 32.5 24t39 11.5t52.5 3.5h75q8 0 2 -5.5t-18.5 -11.5t-30 -11t-29.5 -5
q-59 2 -84 -23.5t-51 -73.5q-33 -59 -71 -155t-86 -189.5t-108.5 -161t-140.5 -67.5q-49 0 -91 17.5t-69 66.5q-37 68 -21.5 109zM520 153.5q0 49.5 21 110.5q14 45 34.5 96.5t44 103.5t47.5 103.5t42 94.5q12 25 31.5 34t47.5 9h111q-23 -18 -39 -34t-31.5 -37.5t-32 -53
t-38.5 -78.5q-23 -43 -44.5 -89t-41 -90t-33.5 -82t-18 -65q-14 -66 1 -93.5t37 -29.5q37 0 75 33t73 83t66.5 110.5t58.5 115.5q12 27 27.5 20t1.5 -38q-25 -53 -58 -117.5t-74 -122t-90 -96.5t-104 -39q-35 0 -61.5 17.5t-40 51t-13.5 83z" />
    <glyph glyph-name="uni043C" unicode="&#x43c;" horiz-adv-x="1212" 
d="M-3.5 195q15.5 41 44.5 52t49.5 -10.5t-6.5 -78.5q-8 -16 -4 -35t15 -34t28.5 -24.5t36.5 -9.5q35 2 60 9.5t48 27.5q41 35 75 85t63.5 107.5t55 117t48 111.5t43 92t43.5 61q16 16 32.5 24t39 11.5t52.5 3.5h75q8 0 2 -5.5t-18.5 -11.5t-30 -11t-29.5 -5
q-59 2 -84 -23.5t-51 -73.5q-33 -59 -71 -155t-86 -189.5t-108.5 -161t-140.5 -67.5q-49 0 -91 17.5t-69 66.5q-37 68 -21.5 109zM483 154.5q0 48.5 21 109.5q14 45 34.5 96.5t44 103.5t47 103t42.5 95q12 25 31.5 34t48.5 9h110q-23 -18 -39 -34t-31.5 -37.5t-32 -53
t-38.5 -78.5q-23 -43 -44.5 -89t-41 -90t-33.5 -82t-18 -65q-14 -66 1 -92.5t38 -30.5q41 -6 80.5 31t76.5 97.5t71 135t64.5 145t58 126t52.5 78.5q16 16 32.5 24t39 11.5t52.5 3.5h75q8 0 2 -5.5t-18.5 -11.5t-30 -11t-29.5 -5q-59 2 -83 -23.5t-52 -73.5
q-23 -39 -46.5 -97t-51 -122.5t-60.5 -129t-72 -115t-85 -81t-101 -28.5q-35 2 -61.5 19.5t-40 51t-13.5 82zM915 153.5q0 49.5 21 110.5q14 45 34.5 96.5t44 103.5t47.5 103.5t42 94.5q12 25 31.5 34t48.5 9h110q-23 -18 -39 -34t-31.5 -37.5t-31.5 -53t-39 -78.5
q-23 -43 -44.5 -89t-40.5 -90t-33.5 -82t-18.5 -65q-14 -66 1 -93.5t38 -29.5q37 0 74.5 33t72.5 83t66.5 110.5t58.5 115.5q12 27 27.5 20t1.5 -38q-25 -53 -57.5 -117.5t-73.5 -122t-90.5 -96.5t-104.5 -39q-35 0 -61.5 17.5t-40 51t-13.5 83z" />
    <glyph glyph-name="uni043D" unicode="&#x43d;" horiz-adv-x="696" 
d="M-80 -14q74 147 140.5 290.5t142.5 282.5q39 74 67.5 102.5t77.5 26.5q20 -2 42 -7t44 -1q-23 -12 -54.5 -53t-65 -96.5t-67.5 -118t-61 -117.5q-12 -27 -20 -43t-18.5 -41t-29 -66t-50.5 -116q-12 -23 -28.5 -27t-49.5 -4q-23 -2 -38 -2t-32 -10zM168 322q16 31 46 61.5
t71 26.5q39 -2 72.5 -19.5t68.5 -21.5q25 -4 39 8t24 31q4 4 16.5 4t8.5 -4q-12 -35 -43 -67t-72 -28q-37 2 -72.5 21.5t-70.5 21.5q-20 2 -36.5 -9t-24.5 -28q-2 -4 -16.5 -4t-10.5 7zM391.5 127q-10.5 53 7.5 100q25 51 43.5 91t37 77t39 76t46.5 88q39 74 68 102.5
t78 26.5q20 -2 41.5 -7t44.5 -1q-23 -12 -54.5 -53t-65.5 -96.5t-67.5 -118t-60.5 -117.5q-14 -29 -29.5 -71t-21.5 -82t3 -68.5t46 -28.5q39 0 81 43t78.5 100.5t66.5 115.5t46 91q12 27 27.5 20t1.5 -38q-23 -47 -56.5 -112.5t-76.5 -126t-94.5 -103.5t-110.5 -43
q-25 0 -48.5 13t-43.5 42q-16 27 -26.5 80z" />
    <glyph glyph-name="uni043E" unicode="&#x43e;" 
d="M65.5 238.5q10.5 66.5 38.5 134.5q31 70 76 133t97.5 110.5t107.5 75t109 25.5q57 0 92 -33t46 -86t1 -119.5t-39 -134.5q-23 -53 -68 -119.5t-104 -122.5q27 -51 96 -51q49 0 93 41t81 98.5t65.5 117t47.5 95.5q8 16 24.5 10.5t6.5 -28.5q-12 -29 -40 -90.5t-69 -122.5
t-95 -108.5t-118 -47.5q-47 0 -79 15.5t-52 38.5q-43 -33 -88 -52.5t-90 -17.5q-59 2 -93 35t-45.5 85t-1 118.5zM176 160q-4 -45 6.5 -75t38.5 -38q29 -8 66 6.5t73 44.5q-16 25 -24 51.5t-8 49.5q2 35 17 61.5t54 26.5q27 0 44.5 -18.5t17.5 -43.5q0 -6 -1 -11t-3 -11
q35 51 63 110q31 63 47.5 121t18.5 103t-10 74.5t-39 37.5q-33 8 -72 -9t-78 -55t-76 -90.5t-65 -113.5q-31 -63 -48.5 -119.5t-21.5 -101.5z" />
    <glyph glyph-name="uni043F" unicode="&#x43f;" 
d="M-80 -14q74 147 140.5 290.5t142.5 282.5q39 74 67.5 102.5t77.5 26.5q20 -2 42 -7t44 -1q-23 -12 -54.5 -53t-65 -96.5t-67.5 -118t-61 -117.5q31 39 77 91t93 93q37 33 91.5 71t109.5 67.5t103.5 46t74.5 8.5q-61 -111 -112 -211q-23 -43 -44.5 -88t-40 -87t-31.5 -79
t-18 -64q-12 -63 0.5 -82.5t32.5 -19.5q39 0 82 43t82 101.5t69.5 117.5t47.5 92q12 27 27 20t1 -38q-23 -47 -56.5 -112.5t-76.5 -126t-94 -103.5t-110 -43q-27 0 -55.5 10t-48 38t-24 74t18.5 117q12 41 41 93.5t72 121.5q18 31 20 53.5t-15.5 26.5t-54 -16.5t-96.5 -75.5
q-53 -47 -125.5 -141t-158.5 -264q-12 -23 -28.5 -27t-49.5 -4q-23 -2 -38 -2t-32 -10z" />
    <glyph glyph-name="uni0440" unicode="&#x440;" horiz-adv-x="733" 
d="M-297 -545q12 12 47 70.5t80 143.5t96 185.5t95.5 196.5t76 177t41.5 128q-16 -27 -36.5 -34t-10.5 16q8 16 20.5 45t20.5 47q14 33 25.5 76t14.5 82t-3 66.5t-25 31.5q23 4 43 8q16 4 34 5t24 3q23 2 37 3.5t22 -5t11 -26t3 -56.5q0 -31 -9 -72.5t-21.5 -86.5t-26.5 -88
t-26 -76q31 39 77.5 91t94.5 93q37 33 91 71t109.5 67.5t103.5 46t74 8.5q-61 -111 -112 -211q-23 -43 -44.5 -88t-40 -87t-31.5 -79t-17 -64q-12 -63 0 -82.5t32 -19.5q39 0 82 43t82 101.5t70 117.5t47 92q12 27 27.5 20t1.5 -38q-23 -47 -56.5 -112.5t-76.5 -126
t-94.5 -103.5t-110.5 -43q-27 0 -55.5 10t-48 38t-23.5 74t18 117q12 41 41 93.5t72 121.5q18 31 20 53.5t-15 26.5t-54 -16.5t-97 -75.5q-27 -25 -60.5 -57.5t-71.5 -80.5t-76.5 -113.5t-75.5 -153.5l-193 -478q-31 -66 -58.5 -88t-78.5 -18q-20 2 -41.5 8t-44.5 2z" />
    <glyph glyph-name="uni0441" unicode="&#x441;" horiz-adv-x="532" 
d="M73 200.5q3 59.5 22.5 123t51 125t68.5 110.5q57 78 129 120t145 42q78 0 114 -39t28 -102q-4 -25 -19.5 -51.5t-36 -45t-43 -23.5t-38.5 11q16 20 35.5 48t27.5 56q14 53 1 77t-42 24t-57.5 -16.5t-58 -41t-56.5 -56.5t-47 -62q-14 -20 -33.5 -55t-37 -77t-30 -89.5
t-12.5 -92.5q0 -61 28 -109t93 -48q68 0 120 33.5t95 86t78 116t66 124.5q14 29 28 23t0 -37q-37 -80 -73.5 -149.5t-83 -122t-106.5 -82t-144 -29.5q-80 0 -127 28.5t-67.5 74.5t-17.5 105.5z" />
    <glyph glyph-name="uni0442" unicode="&#x442;" horiz-adv-x="1038" 
d="M-76 -10q74 147 138.5 288.5t140.5 280.5q39 74 67.5 102.5t77.5 26.5q20 -2 42 -7t44 -1q-23 -12 -54.5 -53t-65 -96.5t-67.5 -118t-61 -117.5q31 39 77 91t93 93q37 33 79 71t82 67.5t76 46t62 8.5q29 -10 37 -35t-6 -55q-29 -66 -71 -138.5t-78 -148.5q31 39 76.5 91
t93.5 93q37 33 91 71t109.5 67.5t104.5 46t73 8.5q-61 -111 -112 -211q-23 -43 -43.5 -88t-39 -87t-31.5 -79t-19 -64q-10 -63 2 -82.5t32 -19.5q39 0 82 42t82 99.5t70 117.5t47 95q12 27 27.5 20t1.5 -38q-23 -47 -56.5 -112.5t-76.5 -126t-95.5 -103.5t-109.5 -43
q-29 0 -57.5 10t-48 38t-23.5 74t18 117q12 41 41 93.5t72 121.5q18 31 20 53.5t-15 26.5t-54 -16.5t-97 -75.5q-33 -31 -78.5 -85t-88.5 -116.5t-77 -125t-44 -107.5q-35 0 -54.5 34t-11.5 79q10 68 35 122t51 111q25 51 45.5 100.5t19.5 72t-34 7t-113 -91.5
q-53 -47 -123.5 -139t-158.5 -260q-10 -23 -26.5 -28t-51.5 -5q-23 -2 -37 -2t-31 -10zM379 784q35 45 97.5 89.5t148.5 39.5q39 -2 76.5 -10t75.5 -19.5t74 -20.5t73 -11q51 -4 83.5 13.5t55.5 45.5q0 2 9 3t18.5 1t16.5 -2t5 -4q-16 -25 -39.5 -50t-54.5 -45.5t-69 -33
t-81 -10.5q-41 2 -78.5 12.5t-74.5 21.5t-74 20.5t-74 11.5q-47 4 -78.5 -13.5t-50.5 -42.5q-2 -4 -12 -5t-20.5 0t-18.5 3t-8 6z" />
    <glyph glyph-name="uni0443" unicode="&#x443;" horiz-adv-x="817" 
d="M-354 -484q6 44 28 87q29 57 81 98t112 70q104 49 238.5 80.5t259.5 66.5q29 51 55 114.5t49 127t41 121t31 98.5q-27 -47 -64 -111.5t-83 -123t-100 -100.5t-114 -42q-16 0 -35.5 3t-38 13.5t-34 29t-21.5 46.5q-6 33 -2 63.5t15.5 60.5t26.5 57.5t30 56.5
q-10 0 -19.5 6t0.5 27q10 16 18.5 34.5t18.5 36.5q31 59 61.5 118.5t53.5 107.5q12 25 31.5 34t48.5 9h125q-14 -12 -36 -26.5t-40 -47.5q-53 -90 -97 -180.5t-87 -182.5q-37 -80 -41 -133t15.5 -74.5t58 -6t87.5 72.5q43 49 88.5 116.5t87.5 140.5t79.5 144.5t66.5 133.5
q12 25 31.5 34t48.5 9h110q-29 -20 -50 -46t-39.5 -59t-35 -75t-34.5 -93q-39 -104 -79 -225t-85 -244q33 10 73 26.5t78.5 41t75.5 58.5t68 77q47 70 79.5 133t49.5 92q14 27 28.5 20t0.5 -38q-53 -106 -94.5 -179t-91.5 -125.5t-120.5 -92t-181.5 -78.5
q-49 -86 -111.5 -182.5t-140.5 -177.5t-174 -133t-209 -52q-78 0 -121 22.5t-60 59.5t-11 81zM-298 -474q-17 -54 3.5 -93t85.5 -39q68 0 139.5 42t138 101.5t123 125t91.5 114.5q10 16 21.5 36t23.5 40q-49 -12 -105.5 -26.5t-114 -31t-110.5 -34t-96 -35.5
q-78 -35 -130.5 -90.5t-69.5 -109.5z" />
    <glyph glyph-name="uni0444" unicode="&#x444;" horiz-adv-x="1030" 
d="M55 -549q14 12 52 76.5t87.5 157t102.5 199t98 204.5q111 252 211.5 469t186.5 377q35 66 71.5 104.5t102.5 38.5q18 0 42.5 -7t47.5 -3q-96 -90 -225.5 -297t-278.5 -553q-6 -14 -17.5 -39.5t-23.5 -53.5l-22.5 -52.5l-16.5 -38.5l-194 -486q-31 -66 -58.5 -88
t-79.5 -18q-20 2 -41.5 8t-44.5 2zM59.5 224q16.5 83 62.5 172t101 157q43 51 96.5 88t110.5 54.5t116.5 13.5t115.5 -37l16 -6q-29 -66 -55 -127q-25 -53 -52.5 -109.5t-50.5 -93.5t-63.5 -101.5t-91 -123t-105.5 -96.5t-106 -23q-74 20 -92.5 84.5t-2 147.5zM152.5 149.5
q-5.5 -67.5 21.5 -92t79 1t118 117.5q59 80 130.5 205t143.5 260q-37 37 -94 18.5t-119.5 -70.5t-122 -127t-100.5 -151q-51 -94 -56.5 -161.5zM459 55l78 160q14 31 28.5 58.5t24.5 50t17 36.5l7 15q23 37 64 101.5t91 122.5t104.5 96t107.5 24q74 -20 92.5 -85t1 -148
t-63.5 -172t-102 -156q-43 -51 -96 -88t-110.5 -54.5t-117 -13.5t-114.5 37zM487 70q37 -37 94.5 -19.5t120 69.5t122 127.5t100.5 151.5q51 94 56 162t-21.5 92.5t-79 -1t-117.5 -117.5q-59 -80 -131 -205t-144 -260z" />
    <glyph glyph-name="uni0445" unicode="&#x445;" horiz-adv-x="681" 
d="M-67.5 -24.5q1.5 8.5 8 14.5t15.5 8t15 -6q35 -31 105 0q31 14 69.5 56t76.5 101.5t72 129t56 141.5q8 41 14.5 79t4.5 76q0 25 -10.5 40.5t-28 15.5t-42 -19.5t-52.5 -66.5q-10 -16 -28 -48t-36 -69t-36.5 -69.5t-26.5 -49.5q-14 -25 -24.5 -15.5t5.5 42.5
q14 31 35.5 75t46.5 89t49.5 83t44.5 56q29 23 57.5 37t57.5 10q41 -4 62.5 -28.5t28.5 -61.5t3 -81t-12 -87q27 51 59.5 101.5t66.5 91.5t64.5 68.5t53.5 33.5q16 4 32.5 3t28.5 -9t18.5 -21.5t1.5 -33.5q-6 -29 -29.5 -47.5t-51.5 -18.5q-41 0 -52 35q-31 -29 -63.5 -70
t-62 -88t-54 -98t-41.5 -101q-16 -90 0.5 -152.5t54.5 -70.5q49 -10 92.5 20.5t82 84t72.5 118t63 119.5q16 29 28 21t2 -31q-25 -51 -56.5 -116.5t-73.5 -125t-97 -100.5t-129 -41q-39 0 -67.5 18.5t-47 48t-27.5 64.5t-7 70v20t2 21q-53 -102 -117 -183.5t-119 -107.5
q-37 -18 -80 -20.5t-73 28.5q-6 8 -4.5 16.5z" />
    <glyph glyph-name="uni0446" unicode="&#x446;" horiz-adv-x="731" 
d="M49 157.5q4 30.5 15.5 60.5t26.5 57.5t30 56.5q-10 0 -19.5 6t0.5 27q10 16 18.5 34.5t18.5 36.5q31 59 61.5 118.5t53.5 107.5q12 25 31.5 34t48.5 9h125q-18 -12 -32.5 -25.5t-30 -32t-32 -45.5t-36.5 -70q-29 -53 -52 -102q-23 -43 -43 -88t-34 -74q-37 -80 -41 -133
t15.5 -74.5t58 -6t87.5 72.5q43 49 85 116.5t81 140.5t75 144.5t65 133.5q12 25 31.5 34t48.5 9h110q-23 -18 -39 -34t-31.5 -37.5t-32 -53t-38.5 -78.5q-23 -43 -44.5 -89t-41 -90t-33.5 -82t-18 -65q-14 -66 1 -93.5t37 -29.5q37 0 75 33t73 83t66.5 110.5t58.5 115.5
q12 27 27.5 20t1.5 -38q-25 -53 -58 -117.5t-73.5 -122t-90 -96.5t-104.5 -39q-35 0 -61.5 17.5t-40 51t-13.5 83t21 110.5q-27 -47 -58.5 -93t-67.5 -84t-75 -61.5t-76 -23.5q-16 0 -35.5 3t-38 13.5t-34 29t-21.5 46.5q-6 33 -2 63.5zM299 -336q2 47 40 108.5t91 119
t109.5 102.5t93.5 61h11t1 -20q-41 -33 -83 -76t-77.5 -88t-58.5 -90t-25 -80q0 -29 12.5 -48.5t47.5 -19.5q29 0 56.5 20.5t47.5 41.5q4 4 14.5 5t6.5 -13q-4 -16 -19.5 -36t-42 -37t-60.5 -29.5t-73 -12.5t-66.5 22.5t-25.5 69.5z" />
    <glyph glyph-name="uni0447" unicode="&#x447;" horiz-adv-x="532" 
d="M-56 81q-7 11 3 25q61 80 112.5 175.5t91 194.5t67.5 197.5t44 184.5q8 43 32.5 56.5t48.5 1t39 -46t5 -85.5q-10 -43 -48 -80.5t-65 -56.5q57 -4 132 -2t151 10q6 -10 3 -29.5t-10 -41t-17.5 -45t-18.5 -41.5q-8 -16 -27.5 -55.5t-43 -87.5t-45 -101t-32 -97t-5 -73
t35.5 -31q31 0 69 41t73.5 96.5t65.5 113.5t46 91q14 27 27.5 19t-2.5 -39q-23 -47 -53.5 -106.5t-67.5 -115t-82 -97.5t-94 -54q-27 -6 -58.5 3t-54 40t-26.5 83t26 132q12 31 29.5 65.5t37 67.5t36 61.5t24.5 47.5q23 51 -24 72.5t-133 23.5l-25 -66q-18 -49 -45 -111.5
t-59.5 -127t-69.5 -120.5t-74 -93q-12 -10 -19 1z" />
    <glyph glyph-name="uni0448" unicode="&#x448;" horiz-adv-x="1101" 
d="M49 157.5q4 30.5 15.5 60.5t26.5 57.5t30 56.5q-10 0 -19.5 6t0.5 27q10 16 18.5 34.5t18.5 36.5q31 59 61.5 118.5t53.5 107.5q12 25 31.5 34t48.5 9h125q-18 -12 -32.5 -25.5t-30 -32t-32 -45.5t-36.5 -70q-29 -53 -52 -102q-23 -43 -43 -88t-34 -74q-37 -80 -41 -133
t15.5 -74.5t58 -6t87.5 72.5q43 49 85 116.5t81 140.5t75 144.5t65 133.5q12 25 31.5 34t48.5 9h110q-23 -18 -39 -34t-31.5 -37.5t-32 -53t-38.5 -78.5q-23 -43 -44.5 -89t-41 -90t-33.5 -82t-18 -65q-14 -66 1 -93.5t37 -29.5q29 0 58 20.5t57 53.5q43 49 85 116.5
t81 140.5t75 144.5t64 133.5q12 25 32 34t48 9h111q-23 -18 -39.5 -34t-31.5 -37.5t-31.5 -53t-39.5 -78.5q-23 -43 -44 -89t-40.5 -90t-34 -82t-18.5 -65q-14 -66 1.5 -93.5t37.5 -29.5q37 0 75 33t72.5 83t66.5 110.5t59 115.5q12 27 27.5 20t0.5 -38
q-25 -53 -57.5 -117.5t-73.5 -122t-90 -96.5t-104 -39q-35 0 -61.5 17.5t-40 51t-13.5 83t20 110.5q-18 -35 -47.5 -80t-66.5 -85t-78 -68.5t-84 -28.5q-35 0 -61.5 17.5t-40 51t-13 83t20.5 110.5q-27 -47 -58.5 -93t-67.5 -84t-75 -61.5t-76 -23.5q-16 0 -35.5 3t-38 13.5
t-34 29t-21.5 46.5q-6 33 -2 63.5zM113 -213q35 45 97 89t148 40q39 -2 77 -10t76 -19.5t74 -20.5t72 -11q51 -4 84 13t56 46q0 2 9 3t18.5 1t16.5 -2t5 -4q-16 -25 -40 -50.5t-54.5 -46t-68.5 -32.5t-81 -10q-41 2 -79 12t-74.5 21.5t-73.5 20.5t-74 11q-47 4 -79 -13.5
t-50 -41.5q-2 -4 -12 -5t-20.5 0t-18.5 3t-8 6z" />
    <glyph glyph-name="uni0449" unicode="&#x449;" horiz-adv-x="1101" 
d="M49 157.5q4 30.5 15.5 60.5t26.5 57.5t30 56.5q-10 0 -19.5 6t0.5 27q10 16 18.5 34.5t18.5 36.5q31 59 61.5 118.5t53.5 107.5q12 25 31.5 34t48.5 9h125q-18 -12 -32.5 -25.5t-30 -32t-32 -45.5t-36.5 -70q-29 -53 -52 -102q-23 -43 -43 -88t-34 -74q-37 -80 -41 -133
t15.5 -74.5t58 -6t87.5 72.5q43 49 85 116.5t81 140.5t75 144.5t65 133.5q12 25 31.5 34t48.5 9h110q-23 -18 -39 -34t-31.5 -37.5t-32 -53t-38.5 -78.5q-23 -43 -44.5 -89t-41 -90t-33.5 -82t-18 -65q-14 -66 1 -93.5t37 -29.5q29 0 58 20.5t57 53.5q43 49 85 116.5
t81 140.5t75 144.5t64 133.5q12 25 32 34t48 9h111q-23 -18 -39.5 -34t-31.5 -37.5t-31.5 -53t-39.5 -78.5q-23 -43 -44 -89t-40.5 -90t-34 -82t-18.5 -65q-14 -66 1.5 -93.5t37.5 -29.5q37 0 75 33t72.5 83t66.5 110.5t59 115.5q12 27 27.5 20t0.5 -38
q-25 -53 -57.5 -117.5t-73.5 -122t-90 -96.5t-104 -39q-35 0 -61.5 17.5t-40 51t-13.5 83t20 110.5q-18 -35 -47.5 -80t-66.5 -85t-78 -68.5t-84 -28.5q-35 0 -61.5 17.5t-40 51t-13 83t20.5 110.5q-27 -47 -58.5 -93t-67.5 -84t-75 -61.5t-76 -23.5q-16 0 -35.5 3t-38 13.5
t-34 29t-21.5 46.5q-6 33 -2 63.5zM670 -336q2 47 40 108.5t91 119t109.5 102.5t93.5 61h11t1 -20q-41 -33 -83 -76t-78 -88t-58.5 -90t-24.5 -80q0 -29 12.5 -48.5t46.5 -19.5q29 0 56.5 20.5t48.5 41.5q4 4 14.5 5t5.5 -13q-4 -16 -19 -36t-42 -37t-60.5 -29.5
t-72.5 -12.5t-66.5 22.5t-25.5 69.5z" />
    <glyph glyph-name="uni044A" unicode="&#x44a;" horiz-adv-x="804" 
d="M-56 81q-7 11 3 25q61 80 112.5 175.5t91 194.5t67.5 197.5t44 184.5q8 43 32.5 56.5t48.5 1t39 -46t5 -85.5q-10 -43 -48 -80.5t-65 -56.5q57 -4 132 -2t151 10q6 -10 3 -29.5t-10 -41t-17.5 -45t-18.5 -41.5q-10 -20 -39 -79t-61 -124q-25 -49 -40.5 -94t-18.5 -79
t7.5 -55.5t34.5 -27.5q14 -4 45 8t60 47q33 39 57.5 85t32.5 81q16 66 8 100.5t-65 30.5q-4 0 -1 5t10 10.5t17 8.5t23 -1q37 -14 58.5 -63.5t6.5 -104.5q-18 -78 -69.5 -143.5t-122.5 -98.5q-35 -16 -73 -14t-68.5 19.5t-52 45t-23.5 64.5q-6 57 26 141q12 31 29.5 65.5
t37 67.5t36 61.5t24.5 47.5q23 51 -24 72.5t-133 23.5l-25 -66q-18 -49 -45 -111.5t-59.5 -127t-69.5 -120.5t-74 -93q-12 -10 -19 1zM501 328.5q-5 23.5 1 44t22.5 33t40.5 12.5q23 0 42.5 -18.5t19.5 -41.5q0 -6 -5.5 -18t-5.5 -18q2 -18 16.5 -43t31.5 -37
q12 -10 41.5 -17.5t66.5 4t76 49t72 117.5q10 29 26.5 21t1.5 -39q-35 -76 -70.5 -118t-73.5 -58.5t-75 -15t-70 11.5q-41 12 -76.5 35.5t-58.5 52.5q-18 20 -23 43.5z" />
    <glyph glyph-name="uni044B" unicode="&#x44b;" horiz-adv-x="825" 
d="M11.5 138.5q0.5 39.5 23.5 88.5q25 51 43 91t36.5 77t39 76t47.5 88q39 74 67.5 102.5t77.5 26.5q20 -2 42 -7t44 -1q-23 -12 -53.5 -53t-64 -96.5t-67.5 -118t-63 -117.5q-25 -49 -40 -93t-18 -79t7 -56.5t35 -27.5q14 -4 45 8t59 47q33 39 57.5 85t32.5 81
q16 66 8 100.5t-65 30.5q-4 0 -1 5t10.5 10.5t17.5 8.5t22 -1q37 -14 58.5 -63.5t7.5 -104.5q-18 -78 -69.5 -143.5t-123.5 -98.5q-59 -27 -118 -6t-84 72q-14 29 -13.5 68.5zM269.5 328.5q-5.5 23.5 0.5 44t22.5 33t41.5 12.5q23 0 42 -18.5t19 -41.5q0 -6 -4 -18l-6 -18
q-4 -10 -5 -19.5t11 -19.5t42 -17.5t67 4t75.5 49t71.5 117.5q10 29 26.5 21t2.5 -39q-35 -76 -70 -117t-71.5 -57.5t-73.5 -15t-74 9.5q-8 2 -40 12t-54 35q-18 20 -23.5 43.5zM518.5 127q-10.5 53 7.5 100q25 51 43.5 91t37 77t39 76t46.5 88q39 74 67.5 102.5t78.5 26.5
q20 -2 41.5 -7t44.5 -1q-23 -12 -54.5 -53t-65.5 -96.5t-67.5 -118t-60.5 -117.5q-14 -29 -29.5 -71t-22 -82t3 -68.5t46.5 -28.5q39 0 81 43t78.5 100.5t66.5 115.5t46 91q12 27 27.5 20t1.5 -38q-23 -47 -56.5 -112.5t-76.5 -126t-94.5 -103.5t-110.5 -43q-25 0 -48.5 13
t-43.5 42q-16 27 -26.5 80z" />
    <glyph glyph-name="uni044C" unicode="&#x44c;" horiz-adv-x="571" 
d="M11.5 138.5q0.5 39.5 23.5 88.5q25 51 43 91t36.5 77t39 76t47.5 88q39 74 67.5 102.5t77.5 26.5q20 -2 42 -7t44 -1q-23 -12 -53.5 -53t-64 -96.5t-67.5 -118t-63 -117.5q-25 -49 -40 -93t-18 -79t7 -56.5t35 -27.5q14 -4 45 8t59 47q33 39 57.5 85t32.5 81
q16 66 8 100.5t-65 30.5q-4 0 -1 5t10.5 10.5t17.5 8.5t22 -1q37 -14 58.5 -63.5t7.5 -104.5q-18 -78 -69.5 -143.5t-123.5 -98.5q-59 -27 -118 -6t-84 72q-14 29 -13.5 68.5zM269.5 328.5q-5.5 23.5 0.5 44t22.5 33t41.5 12.5q23 0 42 -18.5t19 -41.5q0 -6 -5 -18t-5 -18
q2 -18 16.5 -43t30.5 -37q12 -10 42 -17.5t67 4t75.5 49t71.5 117.5q10 29 26.5 21t2.5 -39q-35 -76 -71 -118t-73.5 -58.5t-74.5 -15t-70 11.5q-41 12 -77 35.5t-58 52.5q-18 20 -23.5 43.5z" />
    <glyph glyph-name="uni044D" unicode="&#x44d;" horiz-adv-x="692" 
d="M92 338q37 80 74 149.5t83 122t106.5 82t144.5 29.5q80 0 127 -28.5t67.5 -75t17.5 -105.5t-22.5 -122.5t-51.5 -125t-69 -110.5q-57 -78 -128.5 -120t-145.5 -42q-78 0 -114 39t-27 102q2 25 18 51.5t36.5 45t43 23.5t39.5 -11q-16 -20 -35.5 -48t-28.5 -57
q-14 -53 -0.5 -76.5t41.5 -23.5q27 0 56.5 16.5t59.5 41t55.5 56t47.5 62.5q14 20 34 55t37 77t29.5 89t12.5 92q0 61 -27.5 109.5t-93.5 48.5q-68 0 -120 -34t-95 -86t-77.5 -115.5t-65.5 -124.5q-14 -29 -28.5 -23t-0.5 37zM250 362q14 31 46 63t75 30q41 -4 77.5 -22.5
t73.5 -22.5q47 -2 70 45q4 4 16 2t8 -6q-16 -35 -46.5 -69t-75.5 -30q-41 4 -77 24.5t-73 24.5q-25 2 -41 -11t-27 -30q-2 -6 -16 -5t-10 7z" />
    <glyph glyph-name="uni044E" unicode="&#x44e;" horiz-adv-x="991" 
d="M-76 -14q74 147 140.5 290.5t142.5 282.5q39 74 67.5 102.5t77.5 26.5q20 -2 42 -7t44 -1q-23 -12 -54.5 -53t-65 -96.5t-67.5 -118t-61 -117.5q-12 -27 -20 -43t-18.5 -41t-29 -66t-50.5 -116q-12 -23 -28.5 -27t-49.5 -4q-23 -2 -38 -2t-32 -10zM168 319q8 18 22.5 37
t31 34.5t37 23.5t42.5 6q23 0 43.5 -7t39.5 -15.5t38.5 -15.5t40.5 -9q29 -4 46 9t28 36q4 6 18 5t10 -5q-16 -39 -51 -76t-82 -33q-41 4 -82 25.5t-82 25.5q-23 2 -41 -11t-28 -32q0 -4 -6.5 -5t-12.5 0t-10 2t-2 5zM369.5 218.5q9.5 64.5 38.5 131.5q29 70 72.5 132.5
t96 108.5t106.5 72.5t105 24.5q57 0 91 -32.5t45.5 -84t2.5 -116t-38 -131.5q-23 -53 -68 -119t-102 -119q27 -51 94 -51q49 0 92 41t79 96t63.5 113.5t46.5 95.5q8 16 24 10t6 -29q-12 -29 -38.5 -88t-66.5 -119.5t-93.5 -106.5t-116.5 -46q-45 0 -77 14.5t-50 36.5
q-43 -31 -87 -50t-89 -17q-57 2 -90 33.5t-44.5 83t-2 116zM479 157q-4 -44 6.5 -74t36.5 -38q29 -8 65 6.5t72 44.5q-33 47 -32 99q2 35 17 60.5t52 25.5q27 0 44.5 -18.5t17.5 -41.5q0 -6 -1 -11t-3 -11q33 47 61 108q29 61 45.5 117.5t19.5 100.5t-9.5 74t-39.5 38
q-33 8 -70.5 -9.5t-76.5 -54t-75 -89t-62 -111.5q-29 -61 -46.5 -116.5t-21.5 -99.5z" />
    <glyph glyph-name="uni044F" unicode="&#x44f;" horiz-adv-x="751" 
d="M-32 161q-1 36 12.5 57.5t34 28.5t36 0t20.5 -29.5t-14 -59.5q-8 -18 -4 -38t15.5 -36t29 -27.5t39.5 -11.5q35 -2 60.5 7t48.5 30q47 41 91 100.5t81 124.5q4 4 28 0q11 -2 27 -4q-33 -59 -66.5 -115.5t-72.5 -99.5t-82 -69.5t-92 -26.5q-119 0 -164 84q-27 49 -28 85z
M309 407.5q-2 32.5 4 61.5q8 37 25.5 75t42.5 70.5t56.5 57t68.5 35.5q55 16 96 8t61.5 -37t19.5 -78t-32 -113q-45 -55 -73 -84q-25 -25 -37.5 -28.5t14.5 45.5t47.5 94t26.5 80t-6.5 56.5t-51.5 23.5q-29 2 -56.5 -11.5t-47.5 -41.5q-23 -31 -48.5 -72t-37.5 -76
q-8 -20 -10 -49t8 -52.5t40 -36.5t87 -5q29 4 29 -11.5t-41 -19.5q-68 -8 -107 7.5t-57.5 42t-20.5 59zM443.5 127q-5.5 53 13.5 100q25 51 44 91t38.5 77t41 76t48.5 88q20 37 33.5 62.5t26.5 41t28.5 21.5t40.5 4q20 -2 41.5 -7t44.5 -1q-23 -12 -54.5 -53t-65.5 -96.5
t-67.5 -118t-60.5 -117.5q-14 -29 -29.5 -71t-21.5 -82t3 -68.5t46 -28.5q39 0 81 43t79 100.5t66.5 115.5t45.5 91q12 27 27.5 20t1.5 -38q-23 -47 -56.5 -112.5t-76.5 -126t-94.5 -103.5t-110.5 -43q-25 0 -48.5 13t-43.5 42q-16 27 -21.5 80z" />
    <glyph glyph-name="uni0451" unicode="&#x451;" horiz-adv-x="503" 
d="M63 188q0 45 11.5 96.5t33 101.5t50 97t63.5 88q39 45 86 82t94.5 56.5t91.5 19.5t78 -24q29 -23 34 -58t-11 -77t-51 -85t-84 -79q-25 -18 -58.5 -35t-70.5 -29t-70 -19.5t-53 -7.5q-12 -29 -21.5 -75.5t-6.5 -92t24.5 -79t72.5 -33.5q68 0 122.5 40t96.5 95t71.5 114.5
t47.5 100.5q6 14 15.5 21.5t16.5 7.5t10 -7.5t-5 -23.5q-29 -61 -61.5 -130t-77.5 -127t-105.5 -96t-146.5 -38q-78 0 -136 49t-61 147zM221 350q14 0 39 5t55.5 16.5t62 28.5t60.5 40q41 35 69 78t38 80t4 61.5t-30.5 23.5t-67.5 -33t-107 -107q-41 -49 -74.5 -106.5
t-48.5 -86.5zM330 901q0 29 18.5 48.5t46.5 19.5q29 0 49.5 -18.5t20.5 -49.5q0 -29 -18.5 -48t-47.5 -19t-49 18t-20 49zM594 901q0 29 18.5 48.5t46.5 19.5q29 0 49.5 -18.5t20.5 -49.5q0 -29 -18.5 -48t-46.5 -19q-29 0 -49.5 18t-20.5 49z" />
    <glyph glyph-name="emdash" unicode="&#x2014;" horiz-adv-x="1677" 
d="M302 444.5q-3 18.5 4 35t30 16.5h108t212 -1t268.5 -1t280.5 -1t249 -2.5t172 -3.5q18 0 29.5 -9t13.5 -19t-6.5 -18.5t-28.5 -8.5q-47 0 -152.5 -2t-239.5 -4t-281.5 -6t-275.5 -7t-223 -7.5t-126 -8.5q-10 -2 -20.5 13.5t-13.5 34z" />
    <glyph glyph-name="quoteright" unicode="&#x2019;" horiz-adv-x="323" 
d="M320.5 1118q-3.5 12 17.5 19q57 18 102 63t54 115q-27 -20 -58 -21q-35 0 -55.5 24.5t-13.5 59.5q4 35 33.5 59.5t64.5 24.5q45 0 64.5 -34.5t19.5 -75.5q0 -51 -20.5 -90t-51.5 -69t-66.5 -49.5t-68.5 -29.5q-18 -8 -21.5 4z" />
    </font>
</defs>
</svg>
