<svg xmlns="http://www.w3.org/2000/svg"><symbol viewBox="0 0 153 24" id="idp" xmlns="http://www.w3.org/2000/svg"><path d="M28.285 23.683H9.532l9.116-11.53L9.636.207h18.7l9.065 11.946-9.116 11.53zm-10.94-3.809h9.064l6.095-7.72-6.095-8.139h-9.168l6.2 8.139-6.095 7.72zM2.966 4.019L.101.159h4.74l2.918 3.86H2.966z"/><path d="M13.96 12.158l-9.116 11.53H0l9.116-11.582-3.23-4.278h4.74l3.334 4.33zm36.879-2.456h-2.032V.207h2.032v9.495zM51.931.207h2.188l2.553 7.095L59.224.207h2.188l-3.698 9.495H55.63L51.93.207zm12.556 0h2.188l3.855 9.495h-2.084l-.677-1.774h-4.324l-.729 1.774h-2.083L64.487.207zm2.657 6l-1.302-3.392c-.052-.208-.157-.365-.209-.73-.052.365-.156.574-.208.73l-1.302 3.391h3.02zm4.479-6h1.928l4.427 6.208c-.052-.417-.052-.887-.052-1.304V.207h2.032v9.495H78.03l-4.428-6.208c.052.417.052.886.052 1.304v4.904h-2.032V.207zm21.879 4.747c0 2.765-1.615 4.748-4.949 4.748h-3.542V.207h3.542c3.334 0 4.949 1.982 4.949 4.747zm-5-2.973H86.99v5.895h1.511c1.875 0 2.917-.991 2.917-2.974 0-1.982-1.042-2.921-2.917-2.921zm13.176-.001h-4.636v2.035h4.22V5.79h-4.22v2.139h4.741v1.774h-6.772V.207h6.667v1.774zm1.718-1.773h3.906c1.824 0 3.751.678 3.751 3.078 0 1.617-.938 2.452-2.084 2.817l2.813 3.6h-2.344l-2.552-3.34h-1.511v3.34h-2.031V.207h.052zm3.959 4.434c.833 0 1.614-.365 1.614-1.356 0-.991-.729-1.356-1.614-1.356h-1.98v2.66h1.98v.052zm13.024-2.034c0 1.095-.573 1.773-1.458 2.086.938.261 1.823.94 1.823 2.348 0 2.139-2.084 2.66-3.75 2.66h-4.064V.208h4.168c2.031 0 3.281.73 3.281 2.4zm-3.281 2.973h-2.136v2.452h2.032c.885 0 1.719-.208 1.719-1.2 0-1.043-.782-1.252-1.615-1.252zm-.157-3.704h-1.927v2.191h2.032c.781 0 1.302-.365 1.302-1.095 0-.783-.521-1.096-1.407-1.096zm7.346 7.826h-2.032V.207h2.032v9.495zm4.062-1.826h4.636v1.826h-6.667V.207h2.031v7.669zM138.35 0c3.334 0 5.053 2.348 5.053 4.956 0 2.556-1.667 4.956-5.053 4.956s-5.053-2.348-5.053-4.956c0-2.608 1.719-4.956 5.053-4.956zm0 1.878c-1.98 0-2.969 1.409-2.969 3.026 0 1.67.989 3.078 2.969 3.078 1.979 0 2.969-1.409 2.969-3.078 0-1.617-.99-3.026-2.969-3.026zm5.158-1.671h2.188l2.552 7.095 2.553-7.095h2.187l-3.698 9.495h-2.084L143.508.207zM56.464 17.475c0 2.452-1.823 3.182-4.115 3.182h-1.563v3.13h-2.032v-9.494h3.595c2.344 0 4.115.73 4.115 3.182zm-4.011-1.408h-1.615v2.817h1.615c1.042 0 1.927-.261 1.927-1.409 0-1.148-.885-1.408-1.927-1.408zm5.366-1.774h3.906c1.824 0 3.751.678 3.751 3.078 0 1.617-.938 2.452-2.084 2.817l2.813 3.6h-2.344l-2.552-3.34h-1.51v3.34h-1.98v-9.495zm4.01 4.434c.834 0 1.615-.365 1.615-1.356 0-.991-.729-1.356-1.614-1.356h-1.98v2.66h1.98v.052zm9.951-4.639c3.333 0 5.052 2.347 5.052 4.956C76.832 21.6 75.165 24 71.78 24s-5.052-2.348-5.052-4.956c0-2.609 1.666-4.956 5.052-4.956zm0 1.878c-1.98 0-2.97 1.409-2.97 3.026 0 1.669.99 3.078 2.97 3.078 1.979 0 2.969-1.409 2.969-3.078-.052-1.617-1.042-3.026-2.97-3.026zm15.052 3.074c0 2.765-1.614 4.748-4.948 4.748h-3.542v-9.495h3.542c3.334 0 4.948 1.982 4.948 4.747zm-5-2.973H80.32v5.895h1.51c1.876 0 2.918-.991 2.918-2.974 0-1.982-.99-2.921-2.917-2.921zm14.743 4.121c0 2.817-2.084 3.756-4.168 3.756-2.083 0-4.167-.939-4.167-3.756v-5.895h2.032v5.843c0 1.513.885 2.034 2.135 2.034 1.25 0 2.136-.521 2.136-2.034v-5.843h2.031v5.895zm6.511-6.1a6.07 6.07 0 012.708.626v1.93c-.625-.47-1.51-.73-2.396-.73-1.667 0-3.334.939-3.334 3.234 0 2.087 1.719 3.026 3.334 3.026.99 0 1.875-.26 2.448-.783v1.983c-.833.417-1.771.626-2.76.626-2.553 0-5.105-1.513-5.105-4.852 0-3.495 2.552-5.06 5.105-5.06zm11.304 2.031h-2.917v7.669h-2.032v-7.67h-2.917v-1.825h7.866v1.826zm3.23 7.669h-2.032v-9.495h2.032v9.495zm6.512-9.7c3.333 0 5.052 2.347 5.052 4.956 0 2.556-1.666 4.956-5.052 4.956-3.386 0-5.053-2.348-5.053-4.956 0-2.609 1.719-4.956 5.053-4.956zm0 1.878c-1.98 0-2.97 1.409-2.97 3.026 0 1.669.99 3.078 2.97 3.078 1.979 0 2.969-1.409 2.969-3.078 0-1.617-.99-3.026-2.969-3.026zm6.562-1.673h1.927l4.428 6.208c-.052-.417-.052-.887-.052-1.304v-4.904h2.031v9.495h-1.927l-4.428-6.209c.052.418.052.887.052 1.305v4.904h-2.031v-9.495z"/></symbol><symbol viewBox="0 0 24 24" id="in" xmlns="http://www.w3.org/2000/svg"><path d="M11.995 2.117c3.205 0 3.581.014 4.848.07 1.171.052 1.805.243 2.228.406a3.73 3.73 0 011.381.877c.42.41.681.802.896 1.352.162.415.361 1.036.414 2.183.057 1.24.071 1.609.071 4.747 0 3.139-.014 3.507-.071 4.748-.053 1.147-.248 1.767-.414 2.183a3.64 3.64 0 01-.896 1.352c-.419.41-.819.667-1.38.877-.424.158-1.058.354-2.23.405-1.266.056-1.642.07-4.847.07-3.205 0-3.58-.014-4.847-.07-1.172-.05-1.805-.242-2.229-.405a3.731 3.731 0 01-1.38-.877 3.582 3.582 0 01-.896-1.352c-.162-.416-.362-1.036-.414-2.183-.058-1.24-.072-1.609-.072-4.748 0-3.138.014-3.507.072-4.747.052-1.147.247-1.768.414-2.183a3.64 3.64 0 01.895-1.352c.42-.41.82-.667 1.381-.877.424-.159 1.057-.354 2.229-.406 1.266-.06 1.647-.07 4.847-.07zm0-2.117C8.738 0 8.33.014 7.048.07 5.77.126 4.9.326 4.138.616a5.86 5.86 0 00-2.124 1.357A5.817 5.817 0 00.63 4.053c-.296.746-.5 1.6-.558 2.854C.014 8.157 0 8.557 0 11.747s.014 3.592.071 4.846c.058 1.25.262 2.104.558 2.854a5.716 5.716 0 001.385 2.08 5.964 5.964 0 002.124 1.357c.762.29 1.633.49 2.914.546 1.281.056 1.686.07 4.948.07 3.262 0 3.667-.014 4.948-.07 1.276-.056 2.147-.256 2.914-.546a5.861 5.861 0 002.124-1.357 5.816 5.816 0 001.385-2.08c.296-.746.5-1.6.558-2.854.057-1.254.071-1.65.071-4.845s-.014-3.591-.071-4.846c-.058-1.25-.262-2.103-.558-2.854a5.715 5.715 0 00-1.385-2.08A5.964 5.964 0 0019.862.611C19.1.32 18.229.12 16.948.065 15.662.014 15.252 0 11.995 0z"/><path d="M11.995 5.717c-3.4 0-6.162 2.7-6.162 6.035 0 3.334 2.757 6.034 6.162 6.034s6.162-2.7 6.162-6.035c0-3.334-2.757-6.034-6.162-6.034zm0 9.947c-2.21 0-4-1.753-4-3.917 0-2.164 1.79-3.918 4-3.918s4 1.754 4 3.918-1.79 3.917-4 3.917zM18.4 6.883c.794 0 1.438-.63 1.438-1.408 0-.778-.644-1.409-1.438-1.409-.794 0-1.438.631-1.438 1.409s.644 1.408 1.438 1.408z"/></symbol><symbol viewBox="0 0 24 24" id="tg" xmlns="http://www.w3.org/2000/svg"><path d="M12.56 17.361c-.85.85-1.75 1.65-2.6 2.5-.3.3-.65.45-1.05.45-.3 0-.45-.15-.55-.4-.65-2-1.3-4.05-1.95-6.05-.05-.2-.15-.3-.35-.35-1.55-.5-3.1-1-4.6-1.5-.25-.1-.45-.15-.7-.3-.3-.2-.35-.55-.1-.8.25-.25.55-.45.9-.55 1.9-.75 3.75-1.45 5.65-2.2l14.4-5.55c.9-.35 1.6.15 1.5 1.15-.05.65-.2 1.25-.35 1.85-1.05 4.9-2.1 9.8-3.1 14.7-.25 1.15-1.05 1.45-2 .75-1.6-1.2-3.2-2.35-4.8-3.55-.15-.05-.2-.1-.3-.15zm-3.6 1.5h.05c0-.05 0-.1.05-.15.1-1.1.2-2.2.3-3.35 0-.25.1-.4.3-.6 1.5-1.3 2.95-2.65 4.4-4 1.65-1.45 3.25-2.95 4.9-4.4.05-.05.1-.25.2-.35-.15 0-.3-.1-.45-.05-.2.05-.4.15-.55.25-3.6 2.3-7.2 4.55-10.8 6.8-.2.15-.25.25-.15.45.25.75.5 1.55.75 2.3.3 1.05.65 2.05 1 3.1z"/></symbol><symbol viewBox="0 0 24 24" id="vk" xmlns="http://www.w3.org/2000/svg"><path d="M22.858 18.5h-3.339c-.257 0-.77-.084-1.456-.506-1.114-.76-2.227-2.7-2.998-2.7h-.171c-.77.253-.942.928-.942 1.856 0 .338-.257.422-.857.422h-1.627c-1.884 0-3.683 0-5.653-2.194C2.817 12.256.076 6.603.076 6.603s-.171-.337 0-.506c.171-.253.514-.253.6-.253h3.511s.343.084.514.253c.171.169.343.422.343.422s.6 1.097 1.284 2.362c1.285 2.025 1.885 2.7 2.398 2.7.086 0 .172 0 .257-.084.686-.338.429-3.375.429-3.375s0-1.097-.343-1.603c-.257-.422-.856-.506-1.028-.506-.171 0 .086-.422.514-.675C9.07 5.084 9.925 5 11.04 5h.514c1.028 0 1.028.084 1.456.253 1.113.253.685 1.35.685 3.966 0 .844-.171 2.025.428 2.447h.171c.429 0 1.285-.507 2.57-2.785.77-1.265 1.37-2.531 1.37-2.531s.171-.253.343-.337c.257-.17.257-.17.514-.17h3.682c.6 0 1.114 0 1.2.338.17.506-.429 1.435-1.885 3.375-2.398 3.207-2.655 2.953-.685 4.81 1.884 1.771 2.313 2.615 2.398 2.7.771 1.35-.942 1.434-.942 1.434z"/></symbol><symbol viewBox="0 0 24 24" id="wa" xmlns="http://www.w3.org/2000/svg"><path d="M12.217 23.351c-2.097 0-3.976-.504-5.711-1.441L0 24l2.096-6.27C1.012 16 .434 13.91.434 11.676.434 5.189 5.71 0 12.217 0 18.723 0 24 5.19 24 11.676S18.723 23.35 12.217 23.35zm0-21.477c-5.422 0-9.904 4.396-9.904 9.802 0 2.162.723 4.108 1.88 5.765l-1.23 3.676 3.832-1.225c1.59 1.009 3.47 1.657 5.422 1.657 5.494 0 9.903-4.396 9.903-9.801 0-5.406-4.41-9.874-9.903-9.874zm6 12.468c-.072-.144-.29-.216-.578-.36-.29-.144-1.735-.865-1.952-.937-.29-.072-.506-.072-.65.216-.218.289-.724.937-.94 1.153-.145.217-.362.217-.651.072-.29-.144-1.23-.432-2.313-1.441-.868-.793-1.446-1.658-1.59-1.946-.145-.288 0-.432.144-.576.144-.145.289-.36.434-.505.144-.144.216-.288.289-.504.072-.217.072-.36 0-.505-.073-.144-.651-1.586-.868-2.09-.217-.577-.506-.505-.65-.505h-.579c-.217 0-.506.072-.795.36-.29.217-1.012.938-1.012 2.307 0 1.442 1.012 2.739 1.157 2.955.144.216 2.024 3.171 4.915 4.324 2.964 1.154 2.964.793 3.47.721.506-.072 1.735-.72 1.952-1.37.29-.648.29-1.225.217-1.369z"/></symbol><symbol viewBox="0 0 24 24" id="yt" xmlns="http://www.w3.org/2000/svg"><path d="M23.526 6.504A2.873 2.873 0 0021.5 4.489C19.7 4 12.5 4 12.5 4s-7.2 0-9 .47a2.931 2.931 0 00-2.026 2.034C1 8.292 1 12 1 12s0 3.727.474 5.497A2.872 2.872 0 003.5 19.51c1.82.49 9 .49 9 .49s7.2 0 9-.47a2.873 2.873 0 002.026-2.015C24 15.727 24 12.02 24 12.02s.019-3.727-.474-5.515zm-13.319 8.922V8.574L16.194 12l-5.986 3.426z"/></symbol></svg>