<svg width="49" height="48" viewBox="0 0 49 48" fill="none" xmlns="http://www.w3.org/2000/svg"><g clip-path="url(#clip0)"><path d="M11.38 1.658a.683.683 0 00-.283.088 26.287 26.287 0 00-10.35 10.35.747.747 0 00.655 1.11c.264 0 .519-.14.657-.386a24.79 24.79 0 019.761-9.762.75.75 0 00-.44-1.4zM23.75 3C11.756 3 2 12.755 2 24.75 2 36.744 11.756 46.5 23.75 46.5S45.5 36.744 45.5 24.75C45.5 12.755 35.744 3 23.75 3zm0 1.5C34.915 4.5 44 13.585 44 24.75S34.915 45 23.75 45 3.5 35.915 3.5 24.75 12.585 4.5 23.75 4.5zm-.325 3.003c-.126.002-.252.014-.378.02a19.449 19.449 0 00-1.82.167c-.248.038-.497.08-.744.126-.137.03-.275.062-.413.09-.407.089-.811.194-1.207.311-.173.05-.345.1-.515.156-.2.067-.396.137-.595.213-.2.074-.401.153-.6.235-.168.07-.335.138-.502.214a15.22 15.22 0 00-1.03.504c-.089.044-.17.096-.256.143a16.49 16.49 0 00-.847.501c-.102.065-.202.132-.304.2-.29.193-.574.392-.853.6-.055.044-.114.085-.17.126-.34.264-.668.536-.984.823-.056.05-.108.103-.164.152-.164.153-.331.305-.492.466-.059.059-.109.123-.167.185-.243.249-.475.51-.703.776-.12.138-.246.276-.364.42-.234.29-.454.594-.668.902-.246.345-.471.7-.688 1.06-.108.182-.223.358-.325.54-.164.298-.308.603-.454.91-.056.115-.12.226-.173.343-.024.056-.044.114-.068.17a15.197 15.197 0 00-.761 2.104c-.12.41-.223.82-.31 1.233-.021.111-.045.223-.065.337-.091.466-.159.931-.205 1.397-.01.076-.015.15-.024.226-.047.495-.07.99-.07 1.482 0 .041-.006.076-.006.115 0 .044.006.085.006.128a16.806 16.806 0 00.111 1.805c.041.384.097.762.167 1.137.038.22.082.436.132.65.064.296.138.59.217.882.272.982.633 1.934 1.075 2.85.035.08.07.156.108.235.144.287.293.571.454.85.138.24.279.474.425.709.112.17.22.343.334.51.235.342.487.676.744 1.004.07.085.138.173.211.258.32.387.657.759 1.011 1.12l.056.06c.006.004.009.004.011.01a17.156 17.156 0 005.13 3.533A17.131 17.131 0 0023.724 42c4.555 0 8.973-1.817 12.216-5.048.003-.003.003-.003.006-.003l.07-.08c.329-.33.645-.679.95-1.042.096-.117.19-.238.287-.355.22-.278.434-.565.639-.858.102-.147.208-.293.307-.442a17.313 17.313 0 001.072-1.922c.07-.147.15-.29.217-.443.024-.05.044-.105.068-.155.085-.196.167-.393.246-.589.143-.37.278-.741.398-1.113.047-.153.088-.308.132-.463.123-.425.231-.853.32-1.283l.02-.1a17.044 17.044 0 00.246-1.643 17.297 17.297 0 000-3.39l-.009-.08a16.758 16.758 0 00-.231-1.57 7.612 7.612 0 00-.05-.222 16.424 16.424 0 00-.305-1.219 16.115 16.115 0 00-.15-.5 18.386 18.386 0 00-.357-.997c-.073-.188-.146-.378-.225-.563a16.109 16.109 0 00-.44-.943c-.006-.012-.014-.018-.017-.026a17.343 17.343 0 00-3.185-4.4 17.596 17.596 0 00-1.57-1.392.753.753 0 00-1.055.126.753.753 0 00.13 1.054c.497.39.98.818 1.435 1.272a15.647 15.647 0 013.322 4.901c.076.17.144.346.21.519.115.296.224.595.32.893.053.162.1.32.147.478.102.363.196.73.272 1.099.018.07.032.14.047.213.09.47.161.944.211 1.424l.009.076a16.188 16.188 0 01-.003 3.094c0 .006 0 .012-.003.02-.047.499-.123.99-.217 1.477-.006.035-.015.07-.02.106a15.87 15.87 0 01-.293 1.16c-.038.143-.08.284-.123.425a14.764 14.764 0 01-.59 1.555c-.052.123-.11.24-.166.364-.173.363-.352.72-.548 1.066-.082.146-.173.29-.26.437a12.685 12.685 0 01-.958 1.395 12.875 12.875 0 01-1.047 1.23c-4.476 4.734-11.622 6.39-17.894 3.577a15.685 15.685 0 01-4.875-3.437 15.201 15.201 0 01-.507-.562c-.19-.214-.378-.431-.557-.657-.108-.14-.21-.284-.316-.424a18.15 18.15 0 01-.618-.9c-.047-.076-.091-.155-.138-.231a16.438 16.438 0 01-.642-1.152l-.026-.061a16.035 16.035 0 01-1.052-2.76 17.022 17.022 0 01-.32-1.42c-.02-.118-.034-.238-.052-.355a17.117 17.117 0 01-.138-1.093c-.017-.22-.023-.44-.032-.662-.012-.278-.026-.557-.023-.835.003-.264.023-.519.038-.78.015-.257.026-.518.056-.776.023-.222.064-.442.096-.662.047-.302.091-.606.155-.908.036-.158.08-.31.118-.469.09-.36.181-.723.298-1.08.036-.11.08-.215.118-.326.134-.39.284-.782.454-1.169.061-.138.126-.27.193-.404.132-.285.27-.566.42-.838.087-.164.19-.322.286-.484.2-.33.407-.656.63-.972.2-.281.399-.563.618-.832.103-.13.211-.25.32-.372.21-.247.427-.49.656-.727.187-.19.375-.378.571-.557.062-.058.12-.12.185-.175.28-.255.574-.498.873-.73.073-.056.15-.108.222-.167a22.663 22.663 0 011.043-.718 19.707 19.707 0 011.14-.653c.24-.123.483-.24.727-.354.199-.088.4-.173.603-.255.12-.047.243-.097.366-.144a16.7 16.7 0 01.683-.243c.044-.012.085-.023.129-.038.53-.167 1.07-.308 1.617-.42.026-.005.053-.01.08-.017.272-.052.544-.1.82-.137.064-.012.131-.018.199-.027.79-.105 1.59-.146 2.393-.129.155.003.31.01.463.015.202.012.401.023.6.044.267.023.537.056.8.094.091.011.185.02.276.035a.745.745 0 00.858-.621.757.757 0 00-.62-.864c-.095-.015-.188-.018-.28-.033a18.458 18.458 0 00-.916-.108c-.2-.018-.396-.03-.598-.041a14.496 14.496 0 00-.62-.02c-.218-.004-.437-.012-.654-.006zm6.07 1.037a.75.75 0 00-.231 1.453c.533.199 1.063.43 1.573.685a.753.753 0 001.01-.331.754.754 0 00-.333-1.008c-.56-.28-1.14-.533-1.726-.753a.724.724 0 00-.293-.046zM23.75 12a.751.751 0 00-.75.75v1.5c0 .413.337.75.75.75s.75-.337.75-.75v-1.5a.751.751 0 00-.75-.75zm4.485.876a.747.747 0 00-.685.468l-.563 1.389a.751.751 0 101.392.563l.562-1.392a.75.75 0 00-.706-1.028zm3.838 2.49a.764.764 0 00-.527.231l-1.043 1.078a.75.75 0 001.078 1.043l1.043-1.078a.753.753 0 00-.015-1.063.755.755 0 00-.536-.211zM23.75 16.5a.751.751 0 00-.75.75v6.208c-.445.26-.75.738-.75 1.292 0 .826.674 1.5 1.5 1.5.135 0 .26-.024.384-.056l4.71 4.71c.147.147.338.22.531.22a.75.75 0 00.53-1.28l-4.71-4.71a1.5 1.5 0 00.055-.384c0-.554-.305-1.032-.75-1.292V17.25a.751.751 0 00-.75-.75zm10.948 2.619a.786.786 0 00-.29.064l-1.37.61a.755.755 0 00-.382.993.754.754 0 00.686.445.754.754 0 00.305-.067l1.37-.61a.753.753 0 00.381-.99.752.752 0 00-.7-.445zm-22.948 4.88a.751.751 0 00-.75.75c0 .414.337.75.75.75h1.5a.75.75 0 00.75-.75.751.751 0 00-.75-.75h-1.5zm22.5 0a.751.751 0 00-.75.75c0 .414.337.75.75.75h1.5a.75.75 0 00.75-.75.751.751 0 00-.75-.75h-1.5zm-.776 3.935a.747.747 0 00-.686.469.753.753 0 00.416.976l1.392.562a.75.75 0 00.56-1.392l-1.39-.562a.738.738 0 00-.292-.053zm-2.183 3.358a.763.763 0 00-.527.231.749.749 0 00.017 1.058l1.078 1.043a.759.759 0 001.063-.015.753.753 0 00-.02-1.064l-1.078-1.043a.753.753 0 00-.533-.21zM23.75 34.5a.751.751 0 00-.75.75v1.5c0 .413.337.75.75.75s.75-.337.75-.75v-1.5a.751.751 0 00-.75-.75zm22.427 1.795a.75.75 0 00-.736.384 24.809 24.809 0 01-9.761 9.762.751.751 0 00-.296 1.02.754.754 0 001.02.293 26.288 26.288 0 0010.35-10.351.75.75 0 00-.577-1.108z" fill="#1A1A1A"/></g><defs><clipPath id="clip0"><path fill="#fff" transform="translate(.5)" d="M0 0h48v48H0z"/></clipPath></defs></svg>