<svg width="48" height="48" viewBox="0 0 48 48" fill="none" xmlns="http://www.w3.org/2000/svg"><path d="M24.75 2.25A3.754 3.754 0 0021 6c0 1.81 1.29 3.325 3 3.674v2.364a14.198 14.198 0 00-9.454 4.285l-4.55-3.982A3.703 3.703 0 0010.5 10.5a3.754 3.754 0 00-3.75-3.75A3.754 3.754 0 003 10.5a3.754 3.754 0 003.75 3.75 3.71 3.71 0 002.259-.778l4.553 3.983a14.176 14.176 0 00.366 18.041L9.665 38.95a3.72 3.72 0 00-2.165-.7A3.754 3.754 0 003.75 42a3.754 3.754 0 003.75 3.75A3.754 3.754 0 0011.25 42c0-.717-.213-1.38-.563-1.95l4.28-3.465a14.176 14.176 0 0019.043.473l2.67 2.802A3.72 3.72 0 0036 42a3.754 3.754 0 003.75 3.75A3.754 3.754 0 0043.5 42a3.754 3.754 0 00-3.75-3.75c-.73 0-1.404.219-1.98.58l-2.675-2.808C37.509 33.468 39 30.033 39 26.25c0-3.66-1.399-6.99-3.674-9.516l3.859-3.86a3.724 3.724 0 002.065.626A3.754 3.754 0 0045 9.75 3.754 3.754 0 0041.25 6a3.754 3.754 0 00-3.75 3.75c0 .763.231 1.471.624 2.064l-3.858 3.86a14.17 14.17 0 00-8.766-3.636V9.674c1.71-.349 3-1.863 3-3.674a3.754 3.754 0 00-3.75-3.75zm0 1.5C25.99 3.75 27 4.76 27 6s-1.01 2.25-2.25 2.25S22.5 7.24 22.5 6s1.01-2.25 2.25-2.25zm16.5 3.75c1.24 0 2.25 1.01 2.25 2.25S42.49 12 41.25 12 39 10.99 39 9.75s1.01-2.25 2.25-2.25zm-34.5.75C7.99 8.25 9 9.26 9 10.5s-1.01 2.25-2.25 2.25S4.5 11.74 4.5 10.5s1.01-2.25 2.25-2.25zm18 5.25c7.03 0 12.75 5.72 12.75 12.75S31.78 39 24.75 39 12 33.28 12 26.25 17.72 13.5 24.75 13.5zM7.5 39.75c1.24 0 2.25 1.01 2.25 2.25s-1.01 2.25-2.25 2.25S5.25 43.24 5.25 42s1.01-2.25 2.25-2.25zm32.25 0c1.24 0 2.25 1.01 2.25 2.25s-1.01 2.25-2.25 2.25S37.5 43.24 37.5 42s1.01-2.25 2.25-2.25z" fill="#000"/><path d="M24.5 18a.708.708 0 00-.655.433l-1.934 4.677-5.269.471a.694.694 0 00-.398 1.222l3.974 3.424-1.22 4.908a.69.69 0 00.27.73c.233.167.546.18.789.03l4.444-2.712 4.44 2.713a.716.716 0 00.792-.03.691.691 0 00.271-.73l-1.22-4.911 3.974-3.422a.693.693 0 00.207-.742.703.703 0 00-.606-.48l-5.268-.471-1.934-4.677A.708.708 0 0024.5 18zm0 2.544l1.442 3.484a.71.71 0 00.593.431l4.045.366-3.05 2.628a.689.689 0 00-.22.69l.907 3.667-3.343-2.04a.71.71 0 00-.373-.103.736.736 0 00-.374.103l-3.342 2.04.907-3.667a.689.689 0 00-.221-.69l-3.05-2.631 4.046-.363a.716.716 0 00.592-.43l1.442-3.485z" fill="#000"/></svg>