<svg width="48" height="48" viewBox="0 0 48 48" fill="none" xmlns="http://www.w3.org/2000/svg"><path d="M9.75 4.5A5.256 5.256 0 004.5 9.75v28.5a5.256 5.256 0 005.25 5.25h28.5a5.256 5.256 0 005.25-5.25V9.75a5.256 5.256 0 00-5.25-5.25H9.75zm0 1.5h28.5A3.753 3.753 0 0142 9.75v28.5A3.753 3.753 0 0138.25 42H9.75A3.753 3.753 0 016 38.25V9.75A3.753 3.753 0 019.75 6zM36 9.75c-1.24 0-2.25 1.01-2.25 2.25s1.01 2.25 2.25 2.25 2.25-1.01 2.25-2.25S37.24 9.75 36 9.75zm0 1.148c.606 0 1.102.496 1.102 1.102 0 .606-.496 1.102-1.102 1.102A1.104 1.104 0 0134.898 12c0-.606.496-1.102 1.102-1.102zM24 13.5c-5.79 0-10.5 4.71-10.5 10.5S18.21 34.5 24 34.5 34.5 29.79 34.5 24 29.79 13.5 24 13.5zm0 1.5c4.963 0 9 4.037 9 9s-4.037 9-9 9-9-4.037-9-9 4.037-9 9-9zm0 1.5a7.507 7.507 0 00-7.5 7.5c0 4.137 3.363 7.5 7.5 7.5 4.137 0 7.5-3.363 7.5-7.5 0-4.137-3.363-7.5-7.5-7.5zm0 1.5c3.308 0 6 2.692 6 6s-2.692 6-6 6-6-2.692-6-6 2.692-6 6-6zM9 36.75a.751.751 0 00-.75.75V39c0 .413.337.75.75.75s.75-.337.75-.75v-1.5a.751.751 0 00-.75-.75zm3.75 0a.751.751 0 00-.75.75V39c0 .413.337.75.75.75s.75-.337.75-.75v-1.5a.751.751 0 00-.75-.75zm3.75 0a.751.751 0 00-.75.75V39c0 .413.337.75.75.75s.75-.337.75-.75v-1.5a.751.751 0 00-.75-.75zm3.75 0a.751.751 0 00-.75.75V39c0 .413.337.75.75.75s.75-.337.75-.75v-1.5a.751.751 0 00-.75-.75zm3.75 0a.751.751 0 00-.75.75V39c0 .413.337.75.75.75s.75-.337.75-.75v-1.5a.751.751 0 00-.75-.75zm3.75 0a.751.751 0 00-.75.75V39c0 .413.337.75.75.75s.75-.337.75-.75v-1.5a.751.751 0 00-.75-.75zm3.75 0a.751.751 0 00-.75.75V39c0 .413.337.75.75.75s.75-.337.75-.75v-1.5a.751.751 0 00-.75-.75zm3.75 0a.751.751 0 00-.75.75V39c0 .413.337.75.75.75s.75-.337.75-.75v-1.5a.751.751 0 00-.75-.75zm3.75 0a.751.751 0 00-.75.75V39c0 .413.337.75.75.75s.75-.337.75-.75v-1.5a.751.751 0 00-.75-.75z" fill="#000"/></svg>